%TF.GenerationSoftware,KiCad,Pcbnew,6.0.9-8da3e8f707~116~ubuntu20.04.1*%
%TF.CreationDate,2023-03-05T21:16:27+01:00*%
%TF.ProjectId,pi4_pmod,7069345f-706d-46f6-942e-6b696361645f,rev?*%
%TF.SameCoordinates,Original*%
%TF.FileFunction,Drillmap*%
%TF.FilePolarity,Positive*%
%FSLAX45Y45*%
G04 Gerber Fmt 4.5, Leading zero omitted, Abs format (unit mm)*
G04 Created by KiCad (PCBNEW 6.0.9-8da3e8f707~116~ubuntu20.04.1) date 2023-03-05 21:16:27*
%MOMM*%
%LPD*%
G01*
G04 APERTURE LIST*
%ADD10C,0.100000*%
%ADD11C,0.200000*%
%ADD12C,0.250000*%
G04 APERTURE END LIST*
D10*
X18288000Y-4191000D02*
G75*
G03*
X18224500Y-4127500I-63500J0D01*
G01*
X9715500Y-4127500D02*
G75*
G03*
X9652000Y-4191000I0J-63500D01*
G01*
X9715500Y-8191500D02*
X18224500Y-8191500D01*
X9652000Y-8128000D02*
G75*
G03*
X9715500Y-8191500I63500J0D01*
G01*
X18224500Y-8191500D02*
G75*
G03*
X18288000Y-8128000I0J63500D01*
G01*
X18288000Y-8128000D02*
X18288000Y-4191000D01*
X18224500Y-4127500D02*
X9715500Y-4127500D01*
X9652000Y-8128000D02*
X9652000Y-4191000D01*
D11*
D12*
X10035000Y-4447000D02*
X10285000Y-4697000D01*
X10285000Y-4447000D02*
X10035000Y-4697000D01*
X10035000Y-7495000D02*
X10285000Y-7745000D01*
X10285000Y-7495000D02*
X10035000Y-7745000D01*
X17655000Y-4447000D02*
X17905000Y-4697000D01*
X17905000Y-4447000D02*
X17655000Y-4697000D01*
X17655000Y-7495000D02*
X17905000Y-7745000D01*
X17905000Y-7495000D02*
X17655000Y-7745000D01*
D11*
X9904619Y-8506976D02*
X9904619Y-8306976D01*
X9952238Y-8306976D01*
X9980810Y-8316500D01*
X9999857Y-8335548D01*
X10009381Y-8354595D01*
X10018905Y-8392690D01*
X10018905Y-8421262D01*
X10009381Y-8459357D01*
X9999857Y-8478405D01*
X9980810Y-8497452D01*
X9952238Y-8506976D01*
X9904619Y-8506976D01*
X10104619Y-8506976D02*
X10104619Y-8373643D01*
X10104619Y-8411738D02*
X10114143Y-8392690D01*
X10123667Y-8383167D01*
X10142714Y-8373643D01*
X10161762Y-8373643D01*
X10228429Y-8506976D02*
X10228429Y-8373643D01*
X10228429Y-8306976D02*
X10218905Y-8316500D01*
X10228429Y-8326024D01*
X10237952Y-8316500D01*
X10228429Y-8306976D01*
X10228429Y-8326024D01*
X10352238Y-8506976D02*
X10333190Y-8497452D01*
X10323667Y-8478405D01*
X10323667Y-8306976D01*
X10457000Y-8506976D02*
X10437952Y-8497452D01*
X10428429Y-8478405D01*
X10428429Y-8306976D01*
X10685571Y-8506976D02*
X10685571Y-8306976D01*
X10752238Y-8449833D01*
X10818905Y-8306976D01*
X10818905Y-8506976D01*
X10999857Y-8506976D02*
X10999857Y-8402214D01*
X10990333Y-8383167D01*
X10971286Y-8373643D01*
X10933190Y-8373643D01*
X10914143Y-8383167D01*
X10999857Y-8497452D02*
X10980810Y-8506976D01*
X10933190Y-8506976D01*
X10914143Y-8497452D01*
X10904619Y-8478405D01*
X10904619Y-8459357D01*
X10914143Y-8440310D01*
X10933190Y-8430786D01*
X10980810Y-8430786D01*
X10999857Y-8421262D01*
X11095095Y-8373643D02*
X11095095Y-8573643D01*
X11095095Y-8383167D02*
X11114143Y-8373643D01*
X11152238Y-8373643D01*
X11171286Y-8383167D01*
X11180810Y-8392690D01*
X11190333Y-8411738D01*
X11190333Y-8468881D01*
X11180810Y-8487929D01*
X11171286Y-8497452D01*
X11152238Y-8506976D01*
X11114143Y-8506976D01*
X11095095Y-8497452D01*
X11276048Y-8487929D02*
X11285571Y-8497452D01*
X11276048Y-8506976D01*
X11266524Y-8497452D01*
X11276048Y-8487929D01*
X11276048Y-8506976D01*
X11276048Y-8383167D02*
X11285571Y-8392690D01*
X11276048Y-8402214D01*
X11266524Y-8392690D01*
X11276048Y-8383167D01*
X11276048Y-8402214D01*
X9447000Y-8736500D02*
X9647000Y-8936500D01*
X9647000Y-8736500D02*
X9447000Y-8936500D01*
X9895095Y-8746024D02*
X9904619Y-8736500D01*
X9923667Y-8726976D01*
X9971286Y-8726976D01*
X9990333Y-8736500D01*
X9999857Y-8746024D01*
X10009381Y-8765071D01*
X10009381Y-8784119D01*
X9999857Y-8812690D01*
X9885571Y-8926976D01*
X10009381Y-8926976D01*
X10095095Y-8907929D02*
X10104619Y-8917452D01*
X10095095Y-8926976D01*
X10085571Y-8917452D01*
X10095095Y-8907929D01*
X10095095Y-8926976D01*
X10285571Y-8726976D02*
X10190333Y-8726976D01*
X10180810Y-8822214D01*
X10190333Y-8812690D01*
X10209381Y-8803167D01*
X10257000Y-8803167D01*
X10276048Y-8812690D01*
X10285571Y-8822214D01*
X10295095Y-8841262D01*
X10295095Y-8888881D01*
X10285571Y-8907929D01*
X10276048Y-8917452D01*
X10257000Y-8926976D01*
X10209381Y-8926976D01*
X10190333Y-8917452D01*
X10180810Y-8907929D01*
X10418905Y-8726976D02*
X10437952Y-8726976D01*
X10457000Y-8736500D01*
X10466524Y-8746024D01*
X10476048Y-8765071D01*
X10485571Y-8803167D01*
X10485571Y-8850786D01*
X10476048Y-8888881D01*
X10466524Y-8907929D01*
X10457000Y-8917452D01*
X10437952Y-8926976D01*
X10418905Y-8926976D01*
X10399857Y-8917452D01*
X10390333Y-8907929D01*
X10380810Y-8888881D01*
X10371286Y-8850786D01*
X10371286Y-8803167D01*
X10380810Y-8765071D01*
X10390333Y-8746024D01*
X10399857Y-8736500D01*
X10418905Y-8726976D01*
X10609381Y-8726976D02*
X10628429Y-8726976D01*
X10647476Y-8736500D01*
X10657000Y-8746024D01*
X10666524Y-8765071D01*
X10676048Y-8803167D01*
X10676048Y-8850786D01*
X10666524Y-8888881D01*
X10657000Y-8907929D01*
X10647476Y-8917452D01*
X10628429Y-8926976D01*
X10609381Y-8926976D01*
X10590333Y-8917452D01*
X10580810Y-8907929D01*
X10571286Y-8888881D01*
X10561762Y-8850786D01*
X10561762Y-8803167D01*
X10571286Y-8765071D01*
X10580810Y-8746024D01*
X10590333Y-8736500D01*
X10609381Y-8726976D01*
X10761762Y-8926976D02*
X10761762Y-8793643D01*
X10761762Y-8812690D02*
X10771286Y-8803167D01*
X10790333Y-8793643D01*
X10818905Y-8793643D01*
X10837952Y-8803167D01*
X10847476Y-8822214D01*
X10847476Y-8926976D01*
X10847476Y-8822214D02*
X10857000Y-8803167D01*
X10876048Y-8793643D01*
X10904619Y-8793643D01*
X10923667Y-8803167D01*
X10933190Y-8822214D01*
X10933190Y-8926976D01*
X11028429Y-8926976D02*
X11028429Y-8793643D01*
X11028429Y-8812690D02*
X11037952Y-8803167D01*
X11057000Y-8793643D01*
X11085571Y-8793643D01*
X11104619Y-8803167D01*
X11114143Y-8822214D01*
X11114143Y-8926976D01*
X11114143Y-8822214D02*
X11123667Y-8803167D01*
X11142714Y-8793643D01*
X11171286Y-8793643D01*
X11190333Y-8803167D01*
X11199857Y-8822214D01*
X11199857Y-8926976D01*
X11590333Y-8717452D02*
X11418905Y-8974595D01*
X11847476Y-8726976D02*
X11866524Y-8726976D01*
X11885571Y-8736500D01*
X11895095Y-8746024D01*
X11904619Y-8765071D01*
X11914143Y-8803167D01*
X11914143Y-8850786D01*
X11904619Y-8888881D01*
X11895095Y-8907929D01*
X11885571Y-8917452D01*
X11866524Y-8926976D01*
X11847476Y-8926976D01*
X11828428Y-8917452D01*
X11818905Y-8907929D01*
X11809381Y-8888881D01*
X11799857Y-8850786D01*
X11799857Y-8803167D01*
X11809381Y-8765071D01*
X11818905Y-8746024D01*
X11828428Y-8736500D01*
X11847476Y-8726976D01*
X11999857Y-8907929D02*
X12009381Y-8917452D01*
X11999857Y-8926976D01*
X11990333Y-8917452D01*
X11999857Y-8907929D01*
X11999857Y-8926976D01*
X12133190Y-8726976D02*
X12152238Y-8726976D01*
X12171286Y-8736500D01*
X12180809Y-8746024D01*
X12190333Y-8765071D01*
X12199857Y-8803167D01*
X12199857Y-8850786D01*
X12190333Y-8888881D01*
X12180809Y-8907929D01*
X12171286Y-8917452D01*
X12152238Y-8926976D01*
X12133190Y-8926976D01*
X12114143Y-8917452D01*
X12104619Y-8907929D01*
X12095095Y-8888881D01*
X12085571Y-8850786D01*
X12085571Y-8803167D01*
X12095095Y-8765071D01*
X12104619Y-8746024D01*
X12114143Y-8736500D01*
X12133190Y-8726976D01*
X12295095Y-8926976D02*
X12333190Y-8926976D01*
X12352238Y-8917452D01*
X12361762Y-8907929D01*
X12380809Y-8879357D01*
X12390333Y-8841262D01*
X12390333Y-8765071D01*
X12380809Y-8746024D01*
X12371286Y-8736500D01*
X12352238Y-8726976D01*
X12314143Y-8726976D01*
X12295095Y-8736500D01*
X12285571Y-8746024D01*
X12276048Y-8765071D01*
X12276048Y-8812690D01*
X12285571Y-8831738D01*
X12295095Y-8841262D01*
X12314143Y-8850786D01*
X12352238Y-8850786D01*
X12371286Y-8841262D01*
X12380809Y-8831738D01*
X12390333Y-8812690D01*
X12504619Y-8812690D02*
X12485571Y-8803167D01*
X12476048Y-8793643D01*
X12466524Y-8774595D01*
X12466524Y-8765071D01*
X12476048Y-8746024D01*
X12485571Y-8736500D01*
X12504619Y-8726976D01*
X12542714Y-8726976D01*
X12561762Y-8736500D01*
X12571286Y-8746024D01*
X12580809Y-8765071D01*
X12580809Y-8774595D01*
X12571286Y-8793643D01*
X12561762Y-8803167D01*
X12542714Y-8812690D01*
X12504619Y-8812690D01*
X12485571Y-8822214D01*
X12476048Y-8831738D01*
X12466524Y-8850786D01*
X12466524Y-8888881D01*
X12476048Y-8907929D01*
X12485571Y-8917452D01*
X12504619Y-8926976D01*
X12542714Y-8926976D01*
X12561762Y-8917452D01*
X12571286Y-8907929D01*
X12580809Y-8888881D01*
X12580809Y-8850786D01*
X12571286Y-8831738D01*
X12561762Y-8822214D01*
X12542714Y-8812690D01*
X12752238Y-8793643D02*
X12752238Y-8926976D01*
X12704619Y-8717452D02*
X12657000Y-8860310D01*
X12780809Y-8860310D01*
X12847476Y-8726976D02*
X12847476Y-8765071D01*
X12923667Y-8726976D02*
X12923667Y-8765071D01*
X13218905Y-9003167D02*
X13209381Y-8993643D01*
X13190333Y-8965071D01*
X13180809Y-8946024D01*
X13171286Y-8917452D01*
X13161762Y-8869833D01*
X13161762Y-8831738D01*
X13171286Y-8784119D01*
X13180809Y-8755548D01*
X13190333Y-8736500D01*
X13209381Y-8707929D01*
X13218905Y-8698405D01*
X13380809Y-8793643D02*
X13380809Y-8926976D01*
X13333190Y-8717452D02*
X13285571Y-8860310D01*
X13409381Y-8860310D01*
X13637952Y-8926976D02*
X13637952Y-8726976D01*
X13723667Y-8926976D02*
X13723667Y-8822214D01*
X13714143Y-8803167D01*
X13695095Y-8793643D01*
X13666524Y-8793643D01*
X13647476Y-8803167D01*
X13637952Y-8812690D01*
X13847476Y-8926976D02*
X13828428Y-8917452D01*
X13818905Y-8907929D01*
X13809381Y-8888881D01*
X13809381Y-8831738D01*
X13818905Y-8812690D01*
X13828428Y-8803167D01*
X13847476Y-8793643D01*
X13876048Y-8793643D01*
X13895095Y-8803167D01*
X13904619Y-8812690D01*
X13914143Y-8831738D01*
X13914143Y-8888881D01*
X13904619Y-8907929D01*
X13895095Y-8917452D01*
X13876048Y-8926976D01*
X13847476Y-8926976D01*
X14028428Y-8926976D02*
X14009381Y-8917452D01*
X13999857Y-8898405D01*
X13999857Y-8726976D01*
X14180809Y-8917452D02*
X14161762Y-8926976D01*
X14123667Y-8926976D01*
X14104619Y-8917452D01*
X14095095Y-8898405D01*
X14095095Y-8822214D01*
X14104619Y-8803167D01*
X14123667Y-8793643D01*
X14161762Y-8793643D01*
X14180809Y-8803167D01*
X14190333Y-8822214D01*
X14190333Y-8841262D01*
X14095095Y-8860310D01*
X14266524Y-8917452D02*
X14285571Y-8926976D01*
X14323667Y-8926976D01*
X14342714Y-8917452D01*
X14352238Y-8898405D01*
X14352238Y-8888881D01*
X14342714Y-8869833D01*
X14323667Y-8860310D01*
X14295095Y-8860310D01*
X14276048Y-8850786D01*
X14266524Y-8831738D01*
X14266524Y-8822214D01*
X14276048Y-8803167D01*
X14295095Y-8793643D01*
X14323667Y-8793643D01*
X14342714Y-8803167D01*
X14418905Y-9003167D02*
X14428428Y-8993643D01*
X14447476Y-8965071D01*
X14457000Y-8946024D01*
X14466524Y-8917452D01*
X14476048Y-8869833D01*
X14476048Y-8831738D01*
X14466524Y-8784119D01*
X14457000Y-8755548D01*
X14447476Y-8736500D01*
X14428428Y-8707929D01*
X14418905Y-8698405D01*
X14780809Y-9003167D02*
X14771286Y-8993643D01*
X14752238Y-8965071D01*
X14742714Y-8946024D01*
X14733190Y-8917452D01*
X14723667Y-8869833D01*
X14723667Y-8831738D01*
X14733190Y-8784119D01*
X14742714Y-8755548D01*
X14752238Y-8736500D01*
X14771286Y-8707929D01*
X14780809Y-8698405D01*
X14857000Y-8793643D02*
X14857000Y-8926976D01*
X14857000Y-8812690D02*
X14866524Y-8803167D01*
X14885571Y-8793643D01*
X14914143Y-8793643D01*
X14933190Y-8803167D01*
X14942714Y-8822214D01*
X14942714Y-8926976D01*
X15066524Y-8926976D02*
X15047476Y-8917452D01*
X15037952Y-8907929D01*
X15028428Y-8888881D01*
X15028428Y-8831738D01*
X15037952Y-8812690D01*
X15047476Y-8803167D01*
X15066524Y-8793643D01*
X15095095Y-8793643D01*
X15114143Y-8803167D01*
X15123667Y-8812690D01*
X15133190Y-8831738D01*
X15133190Y-8888881D01*
X15123667Y-8907929D01*
X15114143Y-8917452D01*
X15095095Y-8926976D01*
X15066524Y-8926976D01*
X15190333Y-8793643D02*
X15266524Y-8793643D01*
X15218905Y-8726976D02*
X15218905Y-8898405D01*
X15228428Y-8917452D01*
X15247476Y-8926976D01*
X15266524Y-8926976D01*
X15485571Y-8793643D02*
X15485571Y-8993643D01*
X15485571Y-8803167D02*
X15504619Y-8793643D01*
X15542714Y-8793643D01*
X15561762Y-8803167D01*
X15571286Y-8812690D01*
X15580809Y-8831738D01*
X15580809Y-8888881D01*
X15571286Y-8907929D01*
X15561762Y-8917452D01*
X15542714Y-8926976D01*
X15504619Y-8926976D01*
X15485571Y-8917452D01*
X15695095Y-8926976D02*
X15676048Y-8917452D01*
X15666524Y-8898405D01*
X15666524Y-8726976D01*
X15857000Y-8926976D02*
X15857000Y-8822214D01*
X15847476Y-8803167D01*
X15828428Y-8793643D01*
X15790333Y-8793643D01*
X15771286Y-8803167D01*
X15857000Y-8917452D02*
X15837952Y-8926976D01*
X15790333Y-8926976D01*
X15771286Y-8917452D01*
X15761762Y-8898405D01*
X15761762Y-8879357D01*
X15771286Y-8860310D01*
X15790333Y-8850786D01*
X15837952Y-8850786D01*
X15857000Y-8841262D01*
X15923667Y-8793643D02*
X15999857Y-8793643D01*
X15952238Y-8726976D02*
X15952238Y-8898405D01*
X15961762Y-8917452D01*
X15980809Y-8926976D01*
X15999857Y-8926976D01*
X16142714Y-8917452D02*
X16123667Y-8926976D01*
X16085571Y-8926976D01*
X16066524Y-8917452D01*
X16057000Y-8898405D01*
X16057000Y-8822214D01*
X16066524Y-8803167D01*
X16085571Y-8793643D01*
X16123667Y-8793643D01*
X16142714Y-8803167D01*
X16152238Y-8822214D01*
X16152238Y-8841262D01*
X16057000Y-8860310D01*
X16323667Y-8926976D02*
X16323667Y-8726976D01*
X16323667Y-8917452D02*
X16304619Y-8926976D01*
X16266524Y-8926976D01*
X16247476Y-8917452D01*
X16237952Y-8907929D01*
X16228428Y-8888881D01*
X16228428Y-8831738D01*
X16237952Y-8812690D01*
X16247476Y-8803167D01*
X16266524Y-8793643D01*
X16304619Y-8793643D01*
X16323667Y-8803167D01*
X16399857Y-9003167D02*
X16409381Y-8993643D01*
X16428428Y-8965071D01*
X16437952Y-8946024D01*
X16447476Y-8917452D01*
X16457000Y-8869833D01*
X16457000Y-8831738D01*
X16447476Y-8784119D01*
X16437952Y-8755548D01*
X16428428Y-8736500D01*
X16409381Y-8707929D01*
X16399857Y-8698405D01*
M02*
