%TF.GenerationSoftware,KiCad,Pcbnew,6.0.9-8da3e8f707~116~ubuntu20.04.1*%
%TF.CreationDate,2023-03-05T21:16:27+01:00*%
%TF.ProjectId,pi4_pmod,7069345f-706d-46f6-942e-6b696361645f,rev?*%
%TF.SameCoordinates,Original*%
%TF.FileFunction,Drillmap*%
%TF.FilePolarity,Positive*%
%FSLAX45Y45*%
G04 Gerber Fmt 4.5, Leading zero omitted, Abs format (unit mm)*
G04 Created by KiCad (PCBNEW 6.0.9-8da3e8f707~116~ubuntu20.04.1) date 2023-03-05 21:16:27*
%MOMM*%
%LPD*%
G01*
G04 APERTURE LIST*
%ADD10C,0.100000*%
%ADD11C,0.200000*%
%ADD12C,0.040000*%
G04 APERTURE END LIST*
D10*
X18288000Y-4191000D02*
G75*
G03*
X18224500Y-4127500I-63500J0D01*
G01*
X9715500Y-4127500D02*
G75*
G03*
X9652000Y-4191000I0J-63500D01*
G01*
X9715500Y-8191500D02*
X18224500Y-8191500D01*
X9652000Y-8128000D02*
G75*
G03*
X9715500Y-8191500I63500J0D01*
G01*
X18224500Y-8191500D02*
G75*
G03*
X18288000Y-8128000I0J63500D01*
G01*
X18288000Y-8128000D02*
X18288000Y-4191000D01*
X18224500Y-4127500D02*
X9715500Y-4127500D01*
X9652000Y-8128000D02*
X9652000Y-4191000D01*
D11*
D12*
X10472920Y-4720890D02*
X10512920Y-4760890D01*
X10512920Y-4720890D02*
X10472920Y-4760890D01*
X10708860Y-4952240D02*
X10748860Y-4992240D01*
X10748860Y-4952240D02*
X10708860Y-4992240D01*
X11010240Y-4679000D02*
X11050240Y-4719000D01*
X11050240Y-4679000D02*
X11010240Y-4719000D01*
X13322850Y-5435690D02*
X13362850Y-5475690D01*
X13362850Y-5435690D02*
X13322850Y-5475690D01*
X13470920Y-6239420D02*
X13510920Y-6279420D01*
X13510920Y-6239420D02*
X13470920Y-6279420D01*
X13886500Y-4234500D02*
X13926500Y-4274500D01*
X13926500Y-4234500D02*
X13886500Y-4274500D01*
X13950000Y-6012500D02*
X13990000Y-6052500D01*
X13990000Y-6012500D02*
X13950000Y-6052500D01*
X14158870Y-6440210D02*
X14198870Y-6480210D01*
X14198870Y-6440210D02*
X14158870Y-6480210D01*
X14523770Y-5575650D02*
X14563770Y-5615650D01*
X14563770Y-5575650D02*
X14523770Y-5615650D01*
X14680260Y-5393820D02*
X14720260Y-5433820D01*
X14720260Y-5393820D02*
X14680260Y-5433820D01*
X15254480Y-5313190D02*
X15294480Y-5353190D01*
X15294480Y-5313190D02*
X15254480Y-5353190D01*
X15694840Y-5361360D02*
X15734840Y-5401360D01*
X15734840Y-5361360D02*
X15694840Y-5401360D01*
X16060560Y-6104960D02*
X16100560Y-6144960D01*
X16100560Y-6104960D02*
X16060560Y-6144960D01*
X16264540Y-6201920D02*
X16304540Y-6241920D01*
X16304540Y-6201920D02*
X16264540Y-6241920D01*
D10*
X10718000Y-6858000D02*
G75*
G03*
X10718000Y-6858000I-50000J0D01*
G01*
X10718000Y-7112000D02*
G75*
G03*
X10718000Y-7112000I-50000J0D01*
G01*
X10972000Y-6858000D02*
G75*
G03*
X10972000Y-6858000I-50000J0D01*
G01*
X10972000Y-7112000D02*
G75*
G03*
X10972000Y-7112000I-50000J0D01*
G01*
X11226000Y-6858000D02*
G75*
G03*
X11226000Y-6858000I-50000J0D01*
G01*
X11226000Y-7112000D02*
G75*
G03*
X11226000Y-7112000I-50000J0D01*
G01*
X11480000Y-6858000D02*
G75*
G03*
X11480000Y-6858000I-50000J0D01*
G01*
X11480000Y-7112000D02*
G75*
G03*
X11480000Y-7112000I-50000J0D01*
G01*
X11734000Y-4572000D02*
G75*
G03*
X11734000Y-4572000I-50000J0D01*
G01*
X11734000Y-4826000D02*
G75*
G03*
X11734000Y-4826000I-50000J0D01*
G01*
X11734000Y-6858000D02*
G75*
G03*
X11734000Y-6858000I-50000J0D01*
G01*
X11734000Y-7112000D02*
G75*
G03*
X11734000Y-7112000I-50000J0D01*
G01*
X11988000Y-4572000D02*
G75*
G03*
X11988000Y-4572000I-50000J0D01*
G01*
X11988000Y-4826000D02*
G75*
G03*
X11988000Y-4826000I-50000J0D01*
G01*
X11988000Y-6858000D02*
G75*
G03*
X11988000Y-6858000I-50000J0D01*
G01*
X11988000Y-7112000D02*
G75*
G03*
X11988000Y-7112000I-50000J0D01*
G01*
X12242000Y-4572000D02*
G75*
G03*
X12242000Y-4572000I-50000J0D01*
G01*
X12242000Y-4826000D02*
G75*
G03*
X12242000Y-4826000I-50000J0D01*
G01*
X12242000Y-6858000D02*
G75*
G03*
X12242000Y-6858000I-50000J0D01*
G01*
X12242000Y-7112000D02*
G75*
G03*
X12242000Y-7112000I-50000J0D01*
G01*
X12496000Y-4572000D02*
G75*
G03*
X12496000Y-4572000I-50000J0D01*
G01*
X12496000Y-4826000D02*
G75*
G03*
X12496000Y-4826000I-50000J0D01*
G01*
X12496000Y-6858000D02*
G75*
G03*
X12496000Y-6858000I-50000J0D01*
G01*
X12496000Y-7112000D02*
G75*
G03*
X12496000Y-7112000I-50000J0D01*
G01*
X12750000Y-4572000D02*
G75*
G03*
X12750000Y-4572000I-50000J0D01*
G01*
X12750000Y-4826000D02*
G75*
G03*
X12750000Y-4826000I-50000J0D01*
G01*
X12750000Y-6858000D02*
G75*
G03*
X12750000Y-6858000I-50000J0D01*
G01*
X12750000Y-7112000D02*
G75*
G03*
X12750000Y-7112000I-50000J0D01*
G01*
X13004000Y-4572000D02*
G75*
G03*
X13004000Y-4572000I-50000J0D01*
G01*
X13004000Y-4826000D02*
G75*
G03*
X13004000Y-4826000I-50000J0D01*
G01*
X13258000Y-4572000D02*
G75*
G03*
X13258000Y-4572000I-50000J0D01*
G01*
X13258000Y-4826000D02*
G75*
G03*
X13258000Y-4826000I-50000J0D01*
G01*
X13512000Y-4572000D02*
G75*
G03*
X13512000Y-4572000I-50000J0D01*
G01*
X13512000Y-4826000D02*
G75*
G03*
X13512000Y-4826000I-50000J0D01*
G01*
X13766000Y-4572000D02*
G75*
G03*
X13766000Y-4572000I-50000J0D01*
G01*
X13766000Y-4826000D02*
G75*
G03*
X13766000Y-4826000I-50000J0D01*
G01*
X13766000Y-6858000D02*
G75*
G03*
X13766000Y-6858000I-50000J0D01*
G01*
X13766000Y-7112000D02*
G75*
G03*
X13766000Y-7112000I-50000J0D01*
G01*
X14020000Y-4572000D02*
G75*
G03*
X14020000Y-4572000I-50000J0D01*
G01*
X14020000Y-4826000D02*
G75*
G03*
X14020000Y-4826000I-50000J0D01*
G01*
X14020000Y-6858000D02*
G75*
G03*
X14020000Y-6858000I-50000J0D01*
G01*
X14020000Y-7112000D02*
G75*
G03*
X14020000Y-7112000I-50000J0D01*
G01*
X14274000Y-4572000D02*
G75*
G03*
X14274000Y-4572000I-50000J0D01*
G01*
X14274000Y-4826000D02*
G75*
G03*
X14274000Y-4826000I-50000J0D01*
G01*
X14274000Y-6858000D02*
G75*
G03*
X14274000Y-6858000I-50000J0D01*
G01*
X14274000Y-7112000D02*
G75*
G03*
X14274000Y-7112000I-50000J0D01*
G01*
X14528000Y-4572000D02*
G75*
G03*
X14528000Y-4572000I-50000J0D01*
G01*
X14528000Y-4826000D02*
G75*
G03*
X14528000Y-4826000I-50000J0D01*
G01*
X14528000Y-6858000D02*
G75*
G03*
X14528000Y-6858000I-50000J0D01*
G01*
X14528000Y-7112000D02*
G75*
G03*
X14528000Y-7112000I-50000J0D01*
G01*
X14782000Y-4572000D02*
G75*
G03*
X14782000Y-4572000I-50000J0D01*
G01*
X14782000Y-4826000D02*
G75*
G03*
X14782000Y-4826000I-50000J0D01*
G01*
X14782000Y-6858000D02*
G75*
G03*
X14782000Y-6858000I-50000J0D01*
G01*
X14782000Y-7112000D02*
G75*
G03*
X14782000Y-7112000I-50000J0D01*
G01*
X15036000Y-4572000D02*
G75*
G03*
X15036000Y-4572000I-50000J0D01*
G01*
X15036000Y-4826000D02*
G75*
G03*
X15036000Y-4826000I-50000J0D01*
G01*
X15036000Y-6858000D02*
G75*
G03*
X15036000Y-6858000I-50000J0D01*
G01*
X15036000Y-7112000D02*
G75*
G03*
X15036000Y-7112000I-50000J0D01*
G01*
X15290000Y-4572000D02*
G75*
G03*
X15290000Y-4572000I-50000J0D01*
G01*
X15290000Y-4826000D02*
G75*
G03*
X15290000Y-4826000I-50000J0D01*
G01*
X15544000Y-4572000D02*
G75*
G03*
X15544000Y-4572000I-50000J0D01*
G01*
X15544000Y-4826000D02*
G75*
G03*
X15544000Y-4826000I-50000J0D01*
G01*
X15798000Y-4572000D02*
G75*
G03*
X15798000Y-4572000I-50000J0D01*
G01*
X15798000Y-4826000D02*
G75*
G03*
X15798000Y-4826000I-50000J0D01*
G01*
X16052000Y-4572000D02*
G75*
G03*
X16052000Y-4572000I-50000J0D01*
G01*
X16052000Y-4826000D02*
G75*
G03*
X16052000Y-4826000I-50000J0D01*
G01*
X16052000Y-6858000D02*
G75*
G03*
X16052000Y-6858000I-50000J0D01*
G01*
X16052000Y-7112000D02*
G75*
G03*
X16052000Y-7112000I-50000J0D01*
G01*
X16306000Y-4572000D02*
G75*
G03*
X16306000Y-4572000I-50000J0D01*
G01*
X16306000Y-4826000D02*
G75*
G03*
X16306000Y-4826000I-50000J0D01*
G01*
X16306000Y-6858000D02*
G75*
G03*
X16306000Y-6858000I-50000J0D01*
G01*
X16306000Y-7112000D02*
G75*
G03*
X16306000Y-7112000I-50000J0D01*
G01*
X16560000Y-4572000D02*
G75*
G03*
X16560000Y-4572000I-50000J0D01*
G01*
X16560000Y-4826000D02*
G75*
G03*
X16560000Y-4826000I-50000J0D01*
G01*
X16560000Y-6858000D02*
G75*
G03*
X16560000Y-6858000I-50000J0D01*
G01*
X16560000Y-7112000D02*
G75*
G03*
X16560000Y-7112000I-50000J0D01*
G01*
X16814000Y-6858000D02*
G75*
G03*
X16814000Y-6858000I-50000J0D01*
G01*
X16814000Y-7112000D02*
G75*
G03*
X16814000Y-7112000I-50000J0D01*
G01*
X17068000Y-6858000D02*
G75*
G03*
X17068000Y-6858000I-50000J0D01*
G01*
X17068000Y-7112000D02*
G75*
G03*
X17068000Y-7112000I-50000J0D01*
G01*
X17322000Y-4572000D02*
G75*
G03*
X17322000Y-4572000I-50000J0D01*
G01*
X17322000Y-4826000D02*
G75*
G03*
X17322000Y-4826000I-50000J0D01*
G01*
X17322000Y-6858000D02*
G75*
G03*
X17322000Y-6858000I-50000J0D01*
G01*
X17322000Y-7112000D02*
G75*
G03*
X17322000Y-7112000I-50000J0D01*
G01*
X17830000Y-5588000D02*
G75*
G03*
X17830000Y-5588000I-50000J0D01*
G01*
X17830000Y-5842000D02*
G75*
G03*
X17830000Y-5842000I-50000J0D01*
G01*
X17830000Y-6096000D02*
G75*
G03*
X17830000Y-6096000I-50000J0D01*
G01*
D11*
X9904619Y-8506976D02*
X9904619Y-8306976D01*
X9952238Y-8306976D01*
X9980810Y-8316500D01*
X9999857Y-8335548D01*
X10009381Y-8354595D01*
X10018905Y-8392690D01*
X10018905Y-8421262D01*
X10009381Y-8459357D01*
X9999857Y-8478405D01*
X9980810Y-8497452D01*
X9952238Y-8506976D01*
X9904619Y-8506976D01*
X10104619Y-8506976D02*
X10104619Y-8373643D01*
X10104619Y-8411738D02*
X10114143Y-8392690D01*
X10123667Y-8383167D01*
X10142714Y-8373643D01*
X10161762Y-8373643D01*
X10228429Y-8506976D02*
X10228429Y-8373643D01*
X10228429Y-8306976D02*
X10218905Y-8316500D01*
X10228429Y-8326024D01*
X10237952Y-8316500D01*
X10228429Y-8306976D01*
X10228429Y-8326024D01*
X10352238Y-8506976D02*
X10333190Y-8497452D01*
X10323667Y-8478405D01*
X10323667Y-8306976D01*
X10457000Y-8506976D02*
X10437952Y-8497452D01*
X10428429Y-8478405D01*
X10428429Y-8306976D01*
X10685571Y-8506976D02*
X10685571Y-8306976D01*
X10752238Y-8449833D01*
X10818905Y-8306976D01*
X10818905Y-8506976D01*
X10999857Y-8506976D02*
X10999857Y-8402214D01*
X10990333Y-8383167D01*
X10971286Y-8373643D01*
X10933190Y-8373643D01*
X10914143Y-8383167D01*
X10999857Y-8497452D02*
X10980810Y-8506976D01*
X10933190Y-8506976D01*
X10914143Y-8497452D01*
X10904619Y-8478405D01*
X10904619Y-8459357D01*
X10914143Y-8440310D01*
X10933190Y-8430786D01*
X10980810Y-8430786D01*
X10999857Y-8421262D01*
X11095095Y-8373643D02*
X11095095Y-8573643D01*
X11095095Y-8383167D02*
X11114143Y-8373643D01*
X11152238Y-8373643D01*
X11171286Y-8383167D01*
X11180810Y-8392690D01*
X11190333Y-8411738D01*
X11190333Y-8468881D01*
X11180810Y-8487929D01*
X11171286Y-8497452D01*
X11152238Y-8506976D01*
X11114143Y-8506976D01*
X11095095Y-8497452D01*
X11276048Y-8487929D02*
X11285571Y-8497452D01*
X11276048Y-8506976D01*
X11266524Y-8497452D01*
X11276048Y-8487929D01*
X11276048Y-8506976D01*
X11276048Y-8383167D02*
X11285571Y-8392690D01*
X11276048Y-8402214D01*
X11266524Y-8392690D01*
X11276048Y-8383167D01*
X11276048Y-8402214D01*
D12*
X9607000Y-8816500D02*
X9647000Y-8856500D01*
X9647000Y-8816500D02*
X9607000Y-8856500D01*
D11*
X9942714Y-8726976D02*
X9961762Y-8726976D01*
X9980810Y-8736500D01*
X9990333Y-8746024D01*
X9999857Y-8765071D01*
X10009381Y-8803167D01*
X10009381Y-8850786D01*
X9999857Y-8888881D01*
X9990333Y-8907929D01*
X9980810Y-8917452D01*
X9961762Y-8926976D01*
X9942714Y-8926976D01*
X9923667Y-8917452D01*
X9914143Y-8907929D01*
X9904619Y-8888881D01*
X9895095Y-8850786D01*
X9895095Y-8803167D01*
X9904619Y-8765071D01*
X9914143Y-8746024D01*
X9923667Y-8736500D01*
X9942714Y-8726976D01*
X10095095Y-8907929D02*
X10104619Y-8917452D01*
X10095095Y-8926976D01*
X10085571Y-8917452D01*
X10095095Y-8907929D01*
X10095095Y-8926976D01*
X10276048Y-8793643D02*
X10276048Y-8926976D01*
X10228429Y-8717452D02*
X10180810Y-8860310D01*
X10304619Y-8860310D01*
X10418905Y-8726976D02*
X10437952Y-8726976D01*
X10457000Y-8736500D01*
X10466524Y-8746024D01*
X10476048Y-8765071D01*
X10485571Y-8803167D01*
X10485571Y-8850786D01*
X10476048Y-8888881D01*
X10466524Y-8907929D01*
X10457000Y-8917452D01*
X10437952Y-8926976D01*
X10418905Y-8926976D01*
X10399857Y-8917452D01*
X10390333Y-8907929D01*
X10380810Y-8888881D01*
X10371286Y-8850786D01*
X10371286Y-8803167D01*
X10380810Y-8765071D01*
X10390333Y-8746024D01*
X10399857Y-8736500D01*
X10418905Y-8726976D01*
X10609381Y-8726976D02*
X10628429Y-8726976D01*
X10647476Y-8736500D01*
X10657000Y-8746024D01*
X10666524Y-8765071D01*
X10676048Y-8803167D01*
X10676048Y-8850786D01*
X10666524Y-8888881D01*
X10657000Y-8907929D01*
X10647476Y-8917452D01*
X10628429Y-8926976D01*
X10609381Y-8926976D01*
X10590333Y-8917452D01*
X10580810Y-8907929D01*
X10571286Y-8888881D01*
X10561762Y-8850786D01*
X10561762Y-8803167D01*
X10571286Y-8765071D01*
X10580810Y-8746024D01*
X10590333Y-8736500D01*
X10609381Y-8726976D01*
X10761762Y-8926976D02*
X10761762Y-8793643D01*
X10761762Y-8812690D02*
X10771286Y-8803167D01*
X10790333Y-8793643D01*
X10818905Y-8793643D01*
X10837952Y-8803167D01*
X10847476Y-8822214D01*
X10847476Y-8926976D01*
X10847476Y-8822214D02*
X10857000Y-8803167D01*
X10876048Y-8793643D01*
X10904619Y-8793643D01*
X10923667Y-8803167D01*
X10933190Y-8822214D01*
X10933190Y-8926976D01*
X11028429Y-8926976D02*
X11028429Y-8793643D01*
X11028429Y-8812690D02*
X11037952Y-8803167D01*
X11057000Y-8793643D01*
X11085571Y-8793643D01*
X11104619Y-8803167D01*
X11114143Y-8822214D01*
X11114143Y-8926976D01*
X11114143Y-8822214D02*
X11123667Y-8803167D01*
X11142714Y-8793643D01*
X11171286Y-8793643D01*
X11190333Y-8803167D01*
X11199857Y-8822214D01*
X11199857Y-8926976D01*
X11590333Y-8717452D02*
X11418905Y-8974595D01*
X11847476Y-8726976D02*
X11866524Y-8726976D01*
X11885571Y-8736500D01*
X11895095Y-8746024D01*
X11904619Y-8765071D01*
X11914143Y-8803167D01*
X11914143Y-8850786D01*
X11904619Y-8888881D01*
X11895095Y-8907929D01*
X11885571Y-8917452D01*
X11866524Y-8926976D01*
X11847476Y-8926976D01*
X11828428Y-8917452D01*
X11818905Y-8907929D01*
X11809381Y-8888881D01*
X11799857Y-8850786D01*
X11799857Y-8803167D01*
X11809381Y-8765071D01*
X11818905Y-8746024D01*
X11828428Y-8736500D01*
X11847476Y-8726976D01*
X11999857Y-8907929D02*
X12009381Y-8917452D01*
X11999857Y-8926976D01*
X11990333Y-8917452D01*
X11999857Y-8907929D01*
X11999857Y-8926976D01*
X12133190Y-8726976D02*
X12152238Y-8726976D01*
X12171286Y-8736500D01*
X12180809Y-8746024D01*
X12190333Y-8765071D01*
X12199857Y-8803167D01*
X12199857Y-8850786D01*
X12190333Y-8888881D01*
X12180809Y-8907929D01*
X12171286Y-8917452D01*
X12152238Y-8926976D01*
X12133190Y-8926976D01*
X12114143Y-8917452D01*
X12104619Y-8907929D01*
X12095095Y-8888881D01*
X12085571Y-8850786D01*
X12085571Y-8803167D01*
X12095095Y-8765071D01*
X12104619Y-8746024D01*
X12114143Y-8736500D01*
X12133190Y-8726976D01*
X12390333Y-8926976D02*
X12276048Y-8926976D01*
X12333190Y-8926976D02*
X12333190Y-8726976D01*
X12314143Y-8755548D01*
X12295095Y-8774595D01*
X12276048Y-8784119D01*
X12571286Y-8726976D02*
X12476048Y-8726976D01*
X12466524Y-8822214D01*
X12476048Y-8812690D01*
X12495095Y-8803167D01*
X12542714Y-8803167D01*
X12561762Y-8812690D01*
X12571286Y-8822214D01*
X12580809Y-8841262D01*
X12580809Y-8888881D01*
X12571286Y-8907929D01*
X12561762Y-8917452D01*
X12542714Y-8926976D01*
X12495095Y-8926976D01*
X12476048Y-8917452D01*
X12466524Y-8907929D01*
X12647476Y-8726976D02*
X12780809Y-8726976D01*
X12695095Y-8926976D01*
X12847476Y-8726976D02*
X12847476Y-8765071D01*
X12923667Y-8726976D02*
X12923667Y-8765071D01*
X13218905Y-9003167D02*
X13209381Y-8993643D01*
X13190333Y-8965071D01*
X13180809Y-8946024D01*
X13171286Y-8917452D01*
X13161762Y-8869833D01*
X13161762Y-8831738D01*
X13171286Y-8784119D01*
X13180809Y-8755548D01*
X13190333Y-8736500D01*
X13209381Y-8707929D01*
X13218905Y-8698405D01*
X13399857Y-8926976D02*
X13285571Y-8926976D01*
X13342714Y-8926976D02*
X13342714Y-8726976D01*
X13323667Y-8755548D01*
X13304619Y-8774595D01*
X13285571Y-8784119D01*
X13571286Y-8793643D02*
X13571286Y-8926976D01*
X13523667Y-8717452D02*
X13476048Y-8860310D01*
X13599857Y-8860310D01*
X13828428Y-8926976D02*
X13828428Y-8726976D01*
X13914143Y-8926976D02*
X13914143Y-8822214D01*
X13904619Y-8803167D01*
X13885571Y-8793643D01*
X13857000Y-8793643D01*
X13837952Y-8803167D01*
X13828428Y-8812690D01*
X14037952Y-8926976D02*
X14018905Y-8917452D01*
X14009381Y-8907929D01*
X13999857Y-8888881D01*
X13999857Y-8831738D01*
X14009381Y-8812690D01*
X14018905Y-8803167D01*
X14037952Y-8793643D01*
X14066524Y-8793643D01*
X14085571Y-8803167D01*
X14095095Y-8812690D01*
X14104619Y-8831738D01*
X14104619Y-8888881D01*
X14095095Y-8907929D01*
X14085571Y-8917452D01*
X14066524Y-8926976D01*
X14037952Y-8926976D01*
X14218905Y-8926976D02*
X14199857Y-8917452D01*
X14190333Y-8898405D01*
X14190333Y-8726976D01*
X14371286Y-8917452D02*
X14352238Y-8926976D01*
X14314143Y-8926976D01*
X14295095Y-8917452D01*
X14285571Y-8898405D01*
X14285571Y-8822214D01*
X14295095Y-8803167D01*
X14314143Y-8793643D01*
X14352238Y-8793643D01*
X14371286Y-8803167D01*
X14380809Y-8822214D01*
X14380809Y-8841262D01*
X14285571Y-8860310D01*
X14457000Y-8917452D02*
X14476048Y-8926976D01*
X14514143Y-8926976D01*
X14533190Y-8917452D01*
X14542714Y-8898405D01*
X14542714Y-8888881D01*
X14533190Y-8869833D01*
X14514143Y-8860310D01*
X14485571Y-8860310D01*
X14466524Y-8850786D01*
X14457000Y-8831738D01*
X14457000Y-8822214D01*
X14466524Y-8803167D01*
X14485571Y-8793643D01*
X14514143Y-8793643D01*
X14533190Y-8803167D01*
X14609381Y-9003167D02*
X14618905Y-8993643D01*
X14637952Y-8965071D01*
X14647476Y-8946024D01*
X14657000Y-8917452D01*
X14666524Y-8869833D01*
X14666524Y-8831738D01*
X14657000Y-8784119D01*
X14647476Y-8755548D01*
X14637952Y-8736500D01*
X14618905Y-8707929D01*
X14609381Y-8698405D01*
D10*
X9647000Y-9100500D02*
G75*
G03*
X9647000Y-9100500I-50000J0D01*
G01*
D11*
X10009381Y-9190976D02*
X9895095Y-9190976D01*
X9952238Y-9190976D02*
X9952238Y-8990976D01*
X9933190Y-9019548D01*
X9914143Y-9038595D01*
X9895095Y-9048119D01*
X10095095Y-9171929D02*
X10104619Y-9181452D01*
X10095095Y-9190976D01*
X10085571Y-9181452D01*
X10095095Y-9171929D01*
X10095095Y-9190976D01*
X10228429Y-8990976D02*
X10247476Y-8990976D01*
X10266524Y-9000500D01*
X10276048Y-9010024D01*
X10285571Y-9029071D01*
X10295095Y-9067167D01*
X10295095Y-9114786D01*
X10285571Y-9152881D01*
X10276048Y-9171929D01*
X10266524Y-9181452D01*
X10247476Y-9190976D01*
X10228429Y-9190976D01*
X10209381Y-9181452D01*
X10199857Y-9171929D01*
X10190333Y-9152881D01*
X10180810Y-9114786D01*
X10180810Y-9067167D01*
X10190333Y-9029071D01*
X10199857Y-9010024D01*
X10209381Y-9000500D01*
X10228429Y-8990976D01*
X10418905Y-8990976D02*
X10437952Y-8990976D01*
X10457000Y-9000500D01*
X10466524Y-9010024D01*
X10476048Y-9029071D01*
X10485571Y-9067167D01*
X10485571Y-9114786D01*
X10476048Y-9152881D01*
X10466524Y-9171929D01*
X10457000Y-9181452D01*
X10437952Y-9190976D01*
X10418905Y-9190976D01*
X10399857Y-9181452D01*
X10390333Y-9171929D01*
X10380810Y-9152881D01*
X10371286Y-9114786D01*
X10371286Y-9067167D01*
X10380810Y-9029071D01*
X10390333Y-9010024D01*
X10399857Y-9000500D01*
X10418905Y-8990976D01*
X10609381Y-8990976D02*
X10628429Y-8990976D01*
X10647476Y-9000500D01*
X10657000Y-9010024D01*
X10666524Y-9029071D01*
X10676048Y-9067167D01*
X10676048Y-9114786D01*
X10666524Y-9152881D01*
X10657000Y-9171929D01*
X10647476Y-9181452D01*
X10628429Y-9190976D01*
X10609381Y-9190976D01*
X10590333Y-9181452D01*
X10580810Y-9171929D01*
X10571286Y-9152881D01*
X10561762Y-9114786D01*
X10561762Y-9067167D01*
X10571286Y-9029071D01*
X10580810Y-9010024D01*
X10590333Y-9000500D01*
X10609381Y-8990976D01*
X10761762Y-9190976D02*
X10761762Y-9057643D01*
X10761762Y-9076690D02*
X10771286Y-9067167D01*
X10790333Y-9057643D01*
X10818905Y-9057643D01*
X10837952Y-9067167D01*
X10847476Y-9086214D01*
X10847476Y-9190976D01*
X10847476Y-9086214D02*
X10857000Y-9067167D01*
X10876048Y-9057643D01*
X10904619Y-9057643D01*
X10923667Y-9067167D01*
X10933190Y-9086214D01*
X10933190Y-9190976D01*
X11028429Y-9190976D02*
X11028429Y-9057643D01*
X11028429Y-9076690D02*
X11037952Y-9067167D01*
X11057000Y-9057643D01*
X11085571Y-9057643D01*
X11104619Y-9067167D01*
X11114143Y-9086214D01*
X11114143Y-9190976D01*
X11114143Y-9086214D02*
X11123667Y-9067167D01*
X11142714Y-9057643D01*
X11171286Y-9057643D01*
X11190333Y-9067167D01*
X11199857Y-9086214D01*
X11199857Y-9190976D01*
X11590333Y-8981452D02*
X11418905Y-9238595D01*
X11847476Y-8990976D02*
X11866524Y-8990976D01*
X11885571Y-9000500D01*
X11895095Y-9010024D01*
X11904619Y-9029071D01*
X11914143Y-9067167D01*
X11914143Y-9114786D01*
X11904619Y-9152881D01*
X11895095Y-9171929D01*
X11885571Y-9181452D01*
X11866524Y-9190976D01*
X11847476Y-9190976D01*
X11828428Y-9181452D01*
X11818905Y-9171929D01*
X11809381Y-9152881D01*
X11799857Y-9114786D01*
X11799857Y-9067167D01*
X11809381Y-9029071D01*
X11818905Y-9010024D01*
X11828428Y-9000500D01*
X11847476Y-8990976D01*
X11999857Y-9171929D02*
X12009381Y-9181452D01*
X11999857Y-9190976D01*
X11990333Y-9181452D01*
X11999857Y-9171929D01*
X11999857Y-9190976D01*
X12133190Y-8990976D02*
X12152238Y-8990976D01*
X12171286Y-9000500D01*
X12180809Y-9010024D01*
X12190333Y-9029071D01*
X12199857Y-9067167D01*
X12199857Y-9114786D01*
X12190333Y-9152881D01*
X12180809Y-9171929D01*
X12171286Y-9181452D01*
X12152238Y-9190976D01*
X12133190Y-9190976D01*
X12114143Y-9181452D01*
X12104619Y-9171929D01*
X12095095Y-9152881D01*
X12085571Y-9114786D01*
X12085571Y-9067167D01*
X12095095Y-9029071D01*
X12104619Y-9010024D01*
X12114143Y-9000500D01*
X12133190Y-8990976D01*
X12266524Y-8990976D02*
X12390333Y-8990976D01*
X12323667Y-9067167D01*
X12352238Y-9067167D01*
X12371286Y-9076690D01*
X12380809Y-9086214D01*
X12390333Y-9105262D01*
X12390333Y-9152881D01*
X12380809Y-9171929D01*
X12371286Y-9181452D01*
X12352238Y-9190976D01*
X12295095Y-9190976D01*
X12276048Y-9181452D01*
X12266524Y-9171929D01*
X12485571Y-9190976D02*
X12523667Y-9190976D01*
X12542714Y-9181452D01*
X12552238Y-9171929D01*
X12571286Y-9143357D01*
X12580809Y-9105262D01*
X12580809Y-9029071D01*
X12571286Y-9010024D01*
X12561762Y-9000500D01*
X12542714Y-8990976D01*
X12504619Y-8990976D01*
X12485571Y-9000500D01*
X12476048Y-9010024D01*
X12466524Y-9029071D01*
X12466524Y-9076690D01*
X12476048Y-9095738D01*
X12485571Y-9105262D01*
X12504619Y-9114786D01*
X12542714Y-9114786D01*
X12561762Y-9105262D01*
X12571286Y-9095738D01*
X12580809Y-9076690D01*
X12752238Y-9057643D02*
X12752238Y-9190976D01*
X12704619Y-8981452D02*
X12657000Y-9124310D01*
X12780809Y-9124310D01*
X12847476Y-8990976D02*
X12847476Y-9029071D01*
X12923667Y-8990976D02*
X12923667Y-9029071D01*
X13218905Y-9267167D02*
X13209381Y-9257643D01*
X13190333Y-9229071D01*
X13180809Y-9210024D01*
X13171286Y-9181452D01*
X13161762Y-9133833D01*
X13161762Y-9095738D01*
X13171286Y-9048119D01*
X13180809Y-9019548D01*
X13190333Y-9000500D01*
X13209381Y-8971929D01*
X13218905Y-8962405D01*
X13323667Y-9076690D02*
X13304619Y-9067167D01*
X13295095Y-9057643D01*
X13285571Y-9038595D01*
X13285571Y-9029071D01*
X13295095Y-9010024D01*
X13304619Y-9000500D01*
X13323667Y-8990976D01*
X13361762Y-8990976D01*
X13380809Y-9000500D01*
X13390333Y-9010024D01*
X13399857Y-9029071D01*
X13399857Y-9038595D01*
X13390333Y-9057643D01*
X13380809Y-9067167D01*
X13361762Y-9076690D01*
X13323667Y-9076690D01*
X13304619Y-9086214D01*
X13295095Y-9095738D01*
X13285571Y-9114786D01*
X13285571Y-9152881D01*
X13295095Y-9171929D01*
X13304619Y-9181452D01*
X13323667Y-9190976D01*
X13361762Y-9190976D01*
X13380809Y-9181452D01*
X13390333Y-9171929D01*
X13399857Y-9152881D01*
X13399857Y-9114786D01*
X13390333Y-9095738D01*
X13380809Y-9086214D01*
X13361762Y-9076690D01*
X13466524Y-8990976D02*
X13599857Y-8990976D01*
X13514143Y-9190976D01*
X13828428Y-9190976D02*
X13828428Y-8990976D01*
X13914143Y-9190976D02*
X13914143Y-9086214D01*
X13904619Y-9067167D01*
X13885571Y-9057643D01*
X13857000Y-9057643D01*
X13837952Y-9067167D01*
X13828428Y-9076690D01*
X14037952Y-9190976D02*
X14018905Y-9181452D01*
X14009381Y-9171929D01*
X13999857Y-9152881D01*
X13999857Y-9095738D01*
X14009381Y-9076690D01*
X14018905Y-9067167D01*
X14037952Y-9057643D01*
X14066524Y-9057643D01*
X14085571Y-9067167D01*
X14095095Y-9076690D01*
X14104619Y-9095738D01*
X14104619Y-9152881D01*
X14095095Y-9171929D01*
X14085571Y-9181452D01*
X14066524Y-9190976D01*
X14037952Y-9190976D01*
X14218905Y-9190976D02*
X14199857Y-9181452D01*
X14190333Y-9162405D01*
X14190333Y-8990976D01*
X14371286Y-9181452D02*
X14352238Y-9190976D01*
X14314143Y-9190976D01*
X14295095Y-9181452D01*
X14285571Y-9162405D01*
X14285571Y-9086214D01*
X14295095Y-9067167D01*
X14314143Y-9057643D01*
X14352238Y-9057643D01*
X14371286Y-9067167D01*
X14380809Y-9086214D01*
X14380809Y-9105262D01*
X14285571Y-9124310D01*
X14457000Y-9181452D02*
X14476048Y-9190976D01*
X14514143Y-9190976D01*
X14533190Y-9181452D01*
X14542714Y-9162405D01*
X14542714Y-9152881D01*
X14533190Y-9133833D01*
X14514143Y-9124310D01*
X14485571Y-9124310D01*
X14466524Y-9114786D01*
X14457000Y-9095738D01*
X14457000Y-9086214D01*
X14466524Y-9067167D01*
X14485571Y-9057643D01*
X14514143Y-9057643D01*
X14533190Y-9067167D01*
X14609381Y-9267167D02*
X14618905Y-9257643D01*
X14637952Y-9229071D01*
X14647476Y-9210024D01*
X14657000Y-9181452D01*
X14666524Y-9133833D01*
X14666524Y-9095738D01*
X14657000Y-9048119D01*
X14647476Y-9019548D01*
X14637952Y-9000500D01*
X14618905Y-8971929D01*
X14609381Y-8962405D01*
M02*
