G04 #@! TF.GenerationSoftware,KiCad,Pcbnew,6.0.9-8da3e8f707~116~ubuntu20.04.1*
G04 #@! TF.CreationDate,2023-03-05T21:16:07+01:00*
G04 #@! TF.ProjectId,pi4_pmod,7069345f-706d-46f6-942e-6b696361645f,rev?*
G04 #@! TF.SameCoordinates,Original*
G04 #@! TF.FileFunction,Copper,L1,Top*
G04 #@! TF.FilePolarity,Positive*
%FSLAX46Y46*%
G04 Gerber Fmt 4.6, Leading zero omitted, Abs format (unit mm)*
G04 Created by KiCad (PCBNEW 6.0.9-8da3e8f707~116~ubuntu20.04.1) date 2023-03-05 21:16:07*
%MOMM*%
%LPD*%
G01*
G04 APERTURE LIST*
G04 Aperture macros list*
%AMRoundRect*
0 Rectangle with rounded corners*
0 $1 Rounding radius*
0 $2 $3 $4 $5 $6 $7 $8 $9 X,Y pos of 4 corners*
0 Add a 4 corners polygon primitive as box body*
4,1,4,$2,$3,$4,$5,$6,$7,$8,$9,$2,$3,0*
0 Add four circle primitives for the rounded corners*
1,1,$1+$1,$2,$3*
1,1,$1+$1,$4,$5*
1,1,$1+$1,$6,$7*
1,1,$1+$1,$8,$9*
0 Add four rect primitives between the rounded corners*
20,1,$1+$1,$2,$3,$4,$5,0*
20,1,$1+$1,$4,$5,$6,$7,0*
20,1,$1+$1,$6,$7,$8,$9,0*
20,1,$1+$1,$8,$9,$2,$3,0*%
G04 Aperture macros list end*
G04 #@! TA.AperFunction,ComponentPad*
%ADD10R,1.700000X1.700000*%
G04 #@! TD*
G04 #@! TA.AperFunction,ComponentPad*
%ADD11O,1.700000X1.700000*%
G04 #@! TD*
G04 #@! TA.AperFunction,SMDPad,CuDef*
%ADD12RoundRect,0.237500X0.237500X-0.287500X0.237500X0.287500X-0.237500X0.287500X-0.237500X-0.287500X0*%
G04 #@! TD*
G04 #@! TA.AperFunction,ViaPad*
%ADD13C,0.800000*%
G04 #@! TD*
G04 #@! TA.AperFunction,Conductor*
%ADD14C,0.250000*%
G04 #@! TD*
G04 #@! TA.AperFunction,Conductor*
%ADD15C,0.500000*%
G04 #@! TD*
G04 APERTURE END LIST*
D10*
X137160000Y-68580000D03*
D11*
X137160000Y-71120000D03*
X139700000Y-68580000D03*
X139700000Y-71120000D03*
X142240000Y-68580000D03*
X142240000Y-71120000D03*
X144780000Y-68580000D03*
X144780000Y-71120000D03*
X147320000Y-68580000D03*
X147320000Y-71120000D03*
X149860000Y-68580000D03*
X149860000Y-71120000D03*
D10*
X160020000Y-68580000D03*
D11*
X160020000Y-71120000D03*
X162560000Y-68580000D03*
X162560000Y-71120000D03*
X165100000Y-68580000D03*
X165100000Y-71120000D03*
X167640000Y-68580000D03*
X167640000Y-71120000D03*
X170180000Y-68580000D03*
X170180000Y-71120000D03*
X172720000Y-68580000D03*
X172720000Y-71120000D03*
D10*
X165100000Y-45720000D03*
D11*
X165100000Y-48260000D03*
X162560000Y-45720000D03*
X162560000Y-48260000D03*
X160020000Y-45720000D03*
X160020000Y-48260000D03*
X157480000Y-45720000D03*
X157480000Y-48260000D03*
X154940000Y-45720000D03*
X154940000Y-48260000D03*
X152400000Y-45720000D03*
X152400000Y-48260000D03*
X149860000Y-45720000D03*
X149860000Y-48260000D03*
X147320000Y-45720000D03*
X147320000Y-48260000D03*
X144780000Y-45720000D03*
X144780000Y-48260000D03*
X142240000Y-45720000D03*
X142240000Y-48260000D03*
X139700000Y-45720000D03*
X139700000Y-48260000D03*
X137160000Y-45720000D03*
X137160000Y-48260000D03*
X134620000Y-45720000D03*
X134620000Y-48260000D03*
X132080000Y-45720000D03*
X132080000Y-48260000D03*
X129540000Y-45720000D03*
X129540000Y-48260000D03*
X127000000Y-45720000D03*
X127000000Y-48260000D03*
X124460000Y-45720000D03*
X124460000Y-48260000D03*
X121920000Y-45720000D03*
X121920000Y-48260000D03*
X119380000Y-45720000D03*
X119380000Y-48260000D03*
X116840000Y-45720000D03*
X116840000Y-48260000D03*
D12*
X109220000Y-48740000D03*
X109220000Y-46990000D03*
D10*
X106680000Y-68580000D03*
D11*
X106680000Y-71120000D03*
X109220000Y-68580000D03*
X109220000Y-71120000D03*
X111760000Y-68580000D03*
X111760000Y-71120000D03*
X114300000Y-68580000D03*
X114300000Y-71120000D03*
X116840000Y-68580000D03*
X116840000Y-71120000D03*
X119380000Y-68580000D03*
X119380000Y-71120000D03*
X121920000Y-68580000D03*
X121920000Y-71120000D03*
X124460000Y-68580000D03*
X124460000Y-71120000D03*
X127000000Y-68580000D03*
X127000000Y-71120000D03*
D10*
X172720000Y-45720000D03*
D11*
X172720000Y-48260000D03*
D12*
X106045000Y-48740000D03*
X106045000Y-46990000D03*
D10*
X177800000Y-55880000D03*
D11*
X177800000Y-58420000D03*
X177800000Y-60960000D03*
D13*
X107288600Y-49722400D03*
X139065000Y-42545000D03*
X139700000Y-60325000D03*
X104929200Y-47408900D03*
X110302400Y-46990000D03*
X160805600Y-61249600D03*
X152744800Y-53331900D03*
X134909200Y-62594200D03*
X162845400Y-62219200D03*
X147002600Y-54138200D03*
X157148400Y-53813600D03*
X141788700Y-64602100D03*
X133428500Y-54556900D03*
X145437700Y-55956500D03*
D14*
X107288600Y-49722400D02*
X107862400Y-50296200D01*
X136773700Y-56681800D02*
X155313500Y-56681800D01*
X107862400Y-50296200D02*
X130388100Y-50296200D01*
X162560000Y-48260000D02*
X162560000Y-49435300D01*
X130388100Y-50296200D02*
X136773700Y-56681800D01*
X155313500Y-56681800D02*
X162560000Y-49435300D01*
X130715300Y-48260000D02*
X130715300Y-47892600D01*
X128364700Y-48260000D02*
X128364700Y-48570100D01*
X125635300Y-48627400D02*
X125635300Y-48260000D01*
X149860000Y-48260000D02*
X151035300Y-48260000D01*
X152767400Y-47084700D02*
X151843200Y-47084700D01*
X129540000Y-48260000D02*
X130715300Y-48260000D01*
X161384700Y-71487400D02*
X161384700Y-71120000D01*
X109220000Y-48740000D02*
X106563300Y-48740000D01*
X139700000Y-71120000D02*
X140875300Y-71120000D01*
X142240000Y-48260000D02*
X142240000Y-47197300D01*
X140875300Y-71487300D02*
X141683300Y-72295300D01*
X115664700Y-45720000D02*
X112644700Y-48740000D01*
X112644700Y-48740000D02*
X109220000Y-48740000D01*
X148684700Y-47892600D02*
X148684700Y-48260000D01*
X123284700Y-47892600D02*
X122287400Y-46895300D01*
X133444700Y-46087400D02*
X133444700Y-45720000D01*
X162560000Y-71120000D02*
X161384700Y-71120000D01*
X106563300Y-48740000D02*
X106563300Y-67288000D01*
X131523200Y-47084700D02*
X132447400Y-47084700D01*
X160576800Y-72295300D02*
X161384700Y-71487400D01*
X106563300Y-48740000D02*
X106045000Y-48740000D01*
X124460000Y-48260000D02*
X123284700Y-48260000D01*
X136792700Y-47084700D02*
X135795300Y-46087300D01*
X149860000Y-48260000D02*
X148684700Y-48260000D01*
X141683300Y-72295300D02*
X160576800Y-72295300D01*
X134620000Y-45720000D02*
X135795300Y-45720000D01*
X135795300Y-46087300D02*
X135795300Y-45720000D01*
X116840000Y-45720000D02*
X115664700Y-45720000D01*
X151035300Y-47892600D02*
X151035300Y-48260000D01*
X106563300Y-67288000D02*
X106680000Y-67404700D01*
X126443200Y-49435300D02*
X125635300Y-48627400D01*
X140875300Y-71120000D02*
X140875300Y-71487300D01*
X118015300Y-46087400D02*
X118015300Y-45720000D01*
X132447400Y-47084700D02*
X133444700Y-46087400D01*
X122287400Y-46895300D02*
X118823200Y-46895300D01*
X154940000Y-45720000D02*
X153764700Y-45720000D01*
X118823200Y-46895300D02*
X118015300Y-46087400D01*
X142240000Y-47197300D02*
X142240000Y-47084700D01*
X127499500Y-49435300D02*
X126443200Y-49435300D01*
X153764700Y-45720000D02*
X153764700Y-46087400D01*
X142240000Y-47084700D02*
X147876800Y-47084700D01*
X153764700Y-46087400D02*
X152767400Y-47084700D01*
X134620000Y-45720000D02*
X133444700Y-45720000D01*
X123284700Y-48260000D02*
X123284700Y-47892600D01*
X147876800Y-47084700D02*
X148684700Y-47892600D01*
X128952400Y-48260000D02*
X128364700Y-48260000D01*
X128364700Y-48570100D02*
X127499500Y-49435300D01*
X124460000Y-48260000D02*
X125635300Y-48260000D01*
X116840000Y-45720000D02*
X118015300Y-45720000D01*
X129540000Y-48260000D02*
X128952400Y-48260000D01*
X106680000Y-68580000D02*
X106680000Y-67404700D01*
X151843200Y-47084700D02*
X151035300Y-47892600D01*
X142240000Y-47084700D02*
X136792700Y-47084700D01*
X130715300Y-47892600D02*
X131523200Y-47084700D01*
D15*
X137160000Y-71120000D02*
X135859700Y-71120000D01*
X157386100Y-67246400D02*
X138493600Y-67246400D01*
X146137100Y-44362900D02*
X163742900Y-44362900D01*
X166413800Y-47033800D02*
X166413800Y-57341300D01*
X138493600Y-67246400D02*
X137160000Y-68580000D01*
X160020000Y-68580000D02*
X158719700Y-68580000D01*
X107980300Y-72420300D02*
X134559400Y-72420300D01*
X157386100Y-66369000D02*
X157386100Y-67246400D01*
X165100000Y-45720000D02*
X166413800Y-47033800D01*
X166413800Y-57341300D02*
X157386100Y-66369000D01*
X134559400Y-72420300D02*
X135859700Y-71120000D01*
X106680000Y-71120000D02*
X107980300Y-72420300D01*
X144780000Y-45720000D02*
X146137100Y-44362900D01*
X163742900Y-44362900D02*
X165100000Y-45720000D01*
X158719700Y-68580000D02*
X157386100Y-67246400D01*
D14*
X106045000Y-46990000D02*
X105348100Y-46990000D01*
X105348100Y-46990000D02*
X104929200Y-47408900D01*
X109220000Y-46990000D02*
X110302400Y-46990000D01*
X160805600Y-61249600D02*
X163735300Y-58319900D01*
X163735300Y-47703200D02*
X162927400Y-46895300D01*
X163735300Y-58319900D02*
X163735300Y-47703200D01*
X162560000Y-45720000D02*
X162560000Y-46895300D01*
X162927400Y-46895300D02*
X162560000Y-46895300D01*
X156304700Y-49772000D02*
X156304700Y-47703200D01*
X156304700Y-47703200D02*
X157112600Y-46895300D01*
X157480000Y-45720000D02*
X157480000Y-46895300D01*
X152744800Y-53331900D02*
X156304700Y-49772000D01*
X157112600Y-46895300D02*
X157480000Y-46895300D01*
X134161100Y-62594200D02*
X134909200Y-62594200D01*
X128175300Y-68580000D02*
X134161100Y-62594200D01*
X127000000Y-68580000D02*
X128175300Y-68580000D01*
X142457600Y-43770300D02*
X165365000Y-43770300D01*
X167640000Y-68580000D02*
X166464700Y-68580000D01*
X140875300Y-45352600D02*
X142457600Y-43770300D01*
X165365000Y-43770300D02*
X167002300Y-45407600D01*
X167002300Y-45407600D02*
X167002300Y-61681600D01*
X167002300Y-61681600D02*
X166464700Y-62219200D01*
X139700000Y-45720000D02*
X140875300Y-45720000D01*
X140875300Y-45720000D02*
X140875300Y-45352600D01*
X166464700Y-62219200D02*
X166464700Y-68580000D01*
X166464700Y-62219200D02*
X162845400Y-62219200D01*
X165100000Y-69167600D02*
X164512300Y-69755300D01*
X164512300Y-69755300D02*
X144223200Y-69755300D01*
X165687800Y-69755400D02*
X168165600Y-69755400D01*
X168165600Y-69755400D02*
X168816900Y-69104100D01*
X165100000Y-69167600D02*
X165687800Y-69755400D01*
X142240000Y-68580000D02*
X143415300Y-68580000D01*
X168816900Y-46585300D02*
X165551600Y-43320000D01*
X165551600Y-43320000D02*
X140368000Y-43320000D01*
X144223200Y-69755300D02*
X143415300Y-68947400D01*
X165100000Y-68580000D02*
X165100000Y-69167600D01*
X143415300Y-68947400D02*
X143415300Y-68580000D01*
X140368000Y-43320000D02*
X138335300Y-45352700D01*
X137160000Y-45720000D02*
X138335300Y-45720000D01*
X138335300Y-45352700D02*
X138335300Y-45720000D01*
X168816900Y-69104100D02*
X168816900Y-46585300D01*
X147002600Y-54138200D02*
X143846100Y-54138200D01*
X143846100Y-54138200D02*
X138335300Y-48627400D01*
X138335300Y-48627400D02*
X138335300Y-48260000D01*
X137160000Y-48260000D02*
X138335300Y-48260000D01*
X135795300Y-48260000D02*
X135795300Y-48627300D01*
X134620000Y-48260000D02*
X135795300Y-48260000D01*
X142051800Y-54883800D02*
X156078200Y-54883800D01*
X156078200Y-54883800D02*
X157148400Y-53813600D01*
X135795300Y-48627300D02*
X142051800Y-54883800D01*
X141788700Y-64602100D02*
X133428500Y-56241900D01*
X133428500Y-56241900D02*
X133428500Y-54556900D01*
X133255300Y-48627300D02*
X140584500Y-55956500D01*
X133255300Y-48260000D02*
X133255300Y-48627300D01*
X140584500Y-55956500D02*
X145437700Y-55956500D01*
X132080000Y-48260000D02*
X133255300Y-48260000D01*
X118823200Y-69944700D02*
X118015300Y-70752600D01*
X138335400Y-71501100D02*
X138335400Y-70572300D01*
X118015300Y-70752600D02*
X118015300Y-71120000D01*
X137707800Y-69944700D02*
X118823200Y-69944700D01*
X116840000Y-71120000D02*
X118015300Y-71120000D01*
X139627400Y-72793100D02*
X138335400Y-71501100D01*
X169004700Y-71120000D02*
X169004700Y-71487300D01*
X138335400Y-70572300D02*
X137707800Y-69944700D01*
X169004700Y-71487300D02*
X167698900Y-72793100D01*
X170180000Y-71120000D02*
X169004700Y-71120000D01*
X167698900Y-72793100D02*
X139627400Y-72793100D01*
G04 #@! TA.AperFunction,Conductor*
G36*
X182215018Y-41785000D02*
G01*
X182229853Y-41787310D01*
X182229855Y-41787310D01*
X182238724Y-41788691D01*
X182244508Y-41787935D01*
X182310868Y-41808307D01*
X182356700Y-41862528D01*
X182365165Y-41903873D01*
X182366309Y-41903723D01*
X182366309Y-41903724D01*
X182366329Y-41903873D01*
X182370436Y-41935283D01*
X182371500Y-41951621D01*
X182371500Y-81230633D01*
X182370000Y-81250018D01*
X182366309Y-81273724D01*
X182367065Y-81279508D01*
X182346693Y-81345868D01*
X182292472Y-81391700D01*
X182251127Y-81400165D01*
X182251277Y-81401309D01*
X182251276Y-81401309D01*
X182219714Y-81405436D01*
X182203379Y-81406500D01*
X97204367Y-81406500D01*
X97184982Y-81405000D01*
X97170148Y-81402690D01*
X97170145Y-81402690D01*
X97161276Y-81401309D01*
X97156065Y-81401990D01*
X97089984Y-81381706D01*
X97044150Y-81327486D01*
X97033671Y-81284778D01*
X97033729Y-81280000D01*
X97029773Y-81252376D01*
X97028500Y-81234514D01*
X97028500Y-76307655D01*
X99839858Y-76307655D01*
X99875104Y-76566638D01*
X99876412Y-76571124D01*
X99876412Y-76571126D01*
X99896098Y-76638664D01*
X99948243Y-76817567D01*
X100057668Y-77054928D01*
X100060231Y-77058837D01*
X100198410Y-77269596D01*
X100198414Y-77269601D01*
X100200976Y-77273509D01*
X100375018Y-77468506D01*
X100575970Y-77635637D01*
X100579973Y-77638066D01*
X100795422Y-77768804D01*
X100795426Y-77768806D01*
X100799419Y-77771229D01*
X101040455Y-77872303D01*
X101293783Y-77936641D01*
X101298434Y-77937109D01*
X101298438Y-77937110D01*
X101491308Y-77956531D01*
X101510867Y-77958500D01*
X101666354Y-77958500D01*
X101668679Y-77958327D01*
X101668685Y-77958327D01*
X101856000Y-77944407D01*
X101856004Y-77944406D01*
X101860652Y-77944061D01*
X101865200Y-77943032D01*
X101865206Y-77943031D01*
X102051601Y-77900853D01*
X102115577Y-77886377D01*
X102151769Y-77872303D01*
X102354824Y-77793340D01*
X102354827Y-77793339D01*
X102359177Y-77791647D01*
X102586098Y-77661951D01*
X102791357Y-77500138D01*
X102970443Y-77309763D01*
X103119424Y-77095009D01*
X103235025Y-76860593D01*
X103314707Y-76611665D01*
X103356721Y-76353693D01*
X103357324Y-76307655D01*
X176039858Y-76307655D01*
X176075104Y-76566638D01*
X176076412Y-76571124D01*
X176076412Y-76571126D01*
X176096098Y-76638664D01*
X176148243Y-76817567D01*
X176257668Y-77054928D01*
X176260231Y-77058837D01*
X176398410Y-77269596D01*
X176398414Y-77269601D01*
X176400976Y-77273509D01*
X176575018Y-77468506D01*
X176775970Y-77635637D01*
X176779973Y-77638066D01*
X176995422Y-77768804D01*
X176995426Y-77768806D01*
X176999419Y-77771229D01*
X177240455Y-77872303D01*
X177493783Y-77936641D01*
X177498434Y-77937109D01*
X177498438Y-77937110D01*
X177691308Y-77956531D01*
X177710867Y-77958500D01*
X177866354Y-77958500D01*
X177868679Y-77958327D01*
X177868685Y-77958327D01*
X178056000Y-77944407D01*
X178056004Y-77944406D01*
X178060652Y-77944061D01*
X178065200Y-77943032D01*
X178065206Y-77943031D01*
X178251601Y-77900853D01*
X178315577Y-77886377D01*
X178351769Y-77872303D01*
X178554824Y-77793340D01*
X178554827Y-77793339D01*
X178559177Y-77791647D01*
X178786098Y-77661951D01*
X178991357Y-77500138D01*
X179170443Y-77309763D01*
X179319424Y-77095009D01*
X179435025Y-76860593D01*
X179514707Y-76611665D01*
X179556721Y-76353693D01*
X179560142Y-76092345D01*
X179524896Y-75833362D01*
X179510473Y-75783877D01*
X179453068Y-75586932D01*
X179451757Y-75582433D01*
X179342332Y-75345072D01*
X179309519Y-75295024D01*
X179201590Y-75130404D01*
X179201586Y-75130399D01*
X179199024Y-75126491D01*
X179024982Y-74931494D01*
X178824030Y-74764363D01*
X178776844Y-74735730D01*
X178604578Y-74631196D01*
X178604574Y-74631194D01*
X178600581Y-74628771D01*
X178359545Y-74527697D01*
X178106217Y-74463359D01*
X178101566Y-74462891D01*
X178101562Y-74462890D01*
X177892271Y-74441816D01*
X177889133Y-74441500D01*
X177733646Y-74441500D01*
X177731321Y-74441673D01*
X177731315Y-74441673D01*
X177544000Y-74455593D01*
X177543996Y-74455594D01*
X177539348Y-74455939D01*
X177534800Y-74456968D01*
X177534794Y-74456969D01*
X177348399Y-74499147D01*
X177284423Y-74513623D01*
X177280071Y-74515315D01*
X177280069Y-74515316D01*
X177045176Y-74606660D01*
X177045173Y-74606661D01*
X177040823Y-74608353D01*
X176813902Y-74738049D01*
X176608643Y-74899862D01*
X176429557Y-75090237D01*
X176280576Y-75304991D01*
X176164975Y-75539407D01*
X176085293Y-75788335D01*
X176043279Y-76046307D01*
X176039858Y-76307655D01*
X103357324Y-76307655D01*
X103360142Y-76092345D01*
X103324896Y-75833362D01*
X103310473Y-75783877D01*
X103253068Y-75586932D01*
X103251757Y-75582433D01*
X103142332Y-75345072D01*
X103109519Y-75295024D01*
X103001590Y-75130404D01*
X103001586Y-75130399D01*
X102999024Y-75126491D01*
X102824982Y-74931494D01*
X102624030Y-74764363D01*
X102576844Y-74735730D01*
X102404578Y-74631196D01*
X102404574Y-74631194D01*
X102400581Y-74628771D01*
X102159545Y-74527697D01*
X101906217Y-74463359D01*
X101901566Y-74462891D01*
X101901562Y-74462890D01*
X101692271Y-74441816D01*
X101689133Y-74441500D01*
X101533646Y-74441500D01*
X101531321Y-74441673D01*
X101531315Y-74441673D01*
X101344000Y-74455593D01*
X101343996Y-74455594D01*
X101339348Y-74455939D01*
X101334800Y-74456968D01*
X101334794Y-74456969D01*
X101148399Y-74499147D01*
X101084423Y-74513623D01*
X101080071Y-74515315D01*
X101080069Y-74515316D01*
X100845176Y-74606660D01*
X100845173Y-74606661D01*
X100840823Y-74608353D01*
X100613902Y-74738049D01*
X100408643Y-74899862D01*
X100229557Y-75090237D01*
X100080576Y-75304991D01*
X99964975Y-75539407D01*
X99885293Y-75788335D01*
X99843279Y-76046307D01*
X99839858Y-76307655D01*
X97028500Y-76307655D01*
X97028500Y-71086695D01*
X105317251Y-71086695D01*
X105317548Y-71091848D01*
X105317548Y-71091851D01*
X105323011Y-71186590D01*
X105330110Y-71309715D01*
X105331247Y-71314761D01*
X105331248Y-71314767D01*
X105342031Y-71362614D01*
X105379222Y-71527639D01*
X105463266Y-71734616D01*
X105514019Y-71817438D01*
X105577291Y-71920688D01*
X105579987Y-71925088D01*
X105726250Y-72093938D01*
X105898126Y-72236632D01*
X106091000Y-72349338D01*
X106299692Y-72429030D01*
X106304760Y-72430061D01*
X106304763Y-72430062D01*
X106412017Y-72451883D01*
X106518597Y-72473567D01*
X106523772Y-72473757D01*
X106523774Y-72473757D01*
X106736673Y-72481564D01*
X106736677Y-72481564D01*
X106741837Y-72481753D01*
X106881908Y-72463809D01*
X106952017Y-72474993D01*
X106987012Y-72499693D01*
X107396530Y-72909211D01*
X107408916Y-72923623D01*
X107417449Y-72935218D01*
X107417454Y-72935223D01*
X107421792Y-72941118D01*
X107427370Y-72945857D01*
X107427373Y-72945860D01*
X107462068Y-72975335D01*
X107469584Y-72982265D01*
X107475279Y-72987960D01*
X107478161Y-72990240D01*
X107497551Y-73005581D01*
X107500955Y-73008372D01*
X107551003Y-73050891D01*
X107556585Y-73055633D01*
X107563101Y-73058961D01*
X107568150Y-73062328D01*
X107573279Y-73065495D01*
X107579016Y-73070034D01*
X107645175Y-73100955D01*
X107649069Y-73102858D01*
X107714108Y-73136069D01*
X107721216Y-73137808D01*
X107726859Y-73139907D01*
X107732622Y-73141824D01*
X107739250Y-73144922D01*
X107746412Y-73146412D01*
X107746413Y-73146412D01*
X107810712Y-73159786D01*
X107814996Y-73160756D01*
X107885910Y-73178108D01*
X107891512Y-73178456D01*
X107891515Y-73178456D01*
X107897064Y-73178800D01*
X107897062Y-73178836D01*
X107901055Y-73179075D01*
X107905247Y-73179449D01*
X107912415Y-73180940D01*
X107989820Y-73178846D01*
X107993228Y-73178800D01*
X134492330Y-73178800D01*
X134511280Y-73180233D01*
X134525515Y-73182399D01*
X134525519Y-73182399D01*
X134532749Y-73183499D01*
X134540041Y-73182906D01*
X134540044Y-73182906D01*
X134585418Y-73179215D01*
X134595633Y-73178800D01*
X134603693Y-73178800D01*
X134621080Y-73176773D01*
X134631907Y-73175511D01*
X134636282Y-73175078D01*
X134701739Y-73169754D01*
X134701742Y-73169753D01*
X134709037Y-73169160D01*
X134716001Y-73166904D01*
X134721960Y-73165713D01*
X134727815Y-73164329D01*
X134735081Y-73163482D01*
X134803727Y-73138565D01*
X134807855Y-73137148D01*
X134870336Y-73116907D01*
X134870338Y-73116906D01*
X134877299Y-73114651D01*
X134883554Y-73110855D01*
X134889028Y-73108349D01*
X134894458Y-73105630D01*
X134901337Y-73103133D01*
X134907458Y-73099120D01*
X134962376Y-73063114D01*
X134966080Y-73060777D01*
X135028507Y-73022895D01*
X135036884Y-73015497D01*
X135036908Y-73015524D01*
X135039900Y-73012871D01*
X135043133Y-73010168D01*
X135049252Y-73006156D01*
X135102528Y-72949917D01*
X135104906Y-72947475D01*
X135995517Y-72056864D01*
X136057829Y-72022838D01*
X136128644Y-72027903D01*
X136179848Y-72063460D01*
X136199340Y-72085961D01*
X136206250Y-72093938D01*
X136378126Y-72236632D01*
X136571000Y-72349338D01*
X136779692Y-72429030D01*
X136784760Y-72430061D01*
X136784763Y-72430062D01*
X136892017Y-72451883D01*
X136998597Y-72473567D01*
X137003772Y-72473757D01*
X137003774Y-72473757D01*
X137216673Y-72481564D01*
X137216677Y-72481564D01*
X137221837Y-72481753D01*
X137226957Y-72481097D01*
X137226959Y-72481097D01*
X137438288Y-72454025D01*
X137438289Y-72454025D01*
X137443416Y-72453368D01*
X137448366Y-72451883D01*
X137652429Y-72390661D01*
X137652434Y-72390659D01*
X137657384Y-72389174D01*
X137857994Y-72290896D01*
X137987874Y-72198254D01*
X138054945Y-72174982D01*
X138123953Y-72191665D01*
X138150131Y-72211735D01*
X139123759Y-73185364D01*
X139131288Y-73193638D01*
X139135400Y-73200118D01*
X139141177Y-73205543D01*
X139185051Y-73246743D01*
X139187893Y-73249498D01*
X139207630Y-73269235D01*
X139210827Y-73271715D01*
X139219847Y-73279418D01*
X139252079Y-73309686D01*
X139259025Y-73313505D01*
X139259028Y-73313507D01*
X139269834Y-73319448D01*
X139286353Y-73330299D01*
X139302359Y-73342714D01*
X139309628Y-73345859D01*
X139309632Y-73345862D01*
X139342937Y-73360274D01*
X139353587Y-73365491D01*
X139392340Y-73386795D01*
X139400015Y-73388766D01*
X139400016Y-73388766D01*
X139411962Y-73391833D01*
X139430667Y-73398237D01*
X139449255Y-73406281D01*
X139457078Y-73407520D01*
X139457088Y-73407523D01*
X139492924Y-73413199D01*
X139504544Y-73415605D01*
X139536359Y-73423773D01*
X139547370Y-73426600D01*
X139567624Y-73426600D01*
X139587334Y-73428151D01*
X139607343Y-73431320D01*
X139615235Y-73430574D01*
X139633980Y-73428802D01*
X139651362Y-73427159D01*
X139663219Y-73426600D01*
X167620133Y-73426600D01*
X167631316Y-73427127D01*
X167638809Y-73428802D01*
X167646735Y-73428553D01*
X167646736Y-73428553D01*
X167706886Y-73426662D01*
X167710845Y-73426600D01*
X167738756Y-73426600D01*
X167742691Y-73426103D01*
X167742756Y-73426095D01*
X167754593Y-73425162D01*
X167786851Y-73424148D01*
X167790870Y-73424022D01*
X167798789Y-73423773D01*
X167818243Y-73418121D01*
X167837600Y-73414113D01*
X167849830Y-73412568D01*
X167849831Y-73412568D01*
X167857697Y-73411574D01*
X167865068Y-73408655D01*
X167865070Y-73408655D01*
X167898812Y-73395296D01*
X167910042Y-73391451D01*
X167944883Y-73381329D01*
X167944884Y-73381329D01*
X167952493Y-73379118D01*
X167959312Y-73375085D01*
X167959317Y-73375083D01*
X167969928Y-73368807D01*
X167987676Y-73360112D01*
X168006517Y-73352652D01*
X168042287Y-73326664D01*
X168052207Y-73320148D01*
X168083435Y-73301680D01*
X168083438Y-73301678D01*
X168090262Y-73297642D01*
X168104583Y-73283321D01*
X168119617Y-73270480D01*
X168129594Y-73263231D01*
X168136007Y-73258572D01*
X168164198Y-73224495D01*
X168172188Y-73215716D01*
X169182036Y-72205868D01*
X169244348Y-72171842D01*
X169315163Y-72176907D01*
X169351615Y-72198018D01*
X169360977Y-72205791D01*
X169398126Y-72236632D01*
X169591000Y-72349338D01*
X169799692Y-72429030D01*
X169804760Y-72430061D01*
X169804763Y-72430062D01*
X169912017Y-72451883D01*
X170018597Y-72473567D01*
X170023772Y-72473757D01*
X170023774Y-72473757D01*
X170236673Y-72481564D01*
X170236677Y-72481564D01*
X170241837Y-72481753D01*
X170246957Y-72481097D01*
X170246959Y-72481097D01*
X170458288Y-72454025D01*
X170458289Y-72454025D01*
X170463416Y-72453368D01*
X170468366Y-72451883D01*
X170672429Y-72390661D01*
X170672434Y-72390659D01*
X170677384Y-72389174D01*
X170877994Y-72290896D01*
X171059860Y-72161173D01*
X171081500Y-72139609D01*
X171164534Y-72056864D01*
X171218096Y-72003489D01*
X171277594Y-71920689D01*
X171348453Y-71822077D01*
X171349776Y-71823028D01*
X171396645Y-71779857D01*
X171466580Y-71767625D01*
X171532026Y-71795144D01*
X171559875Y-71826994D01*
X171619987Y-71925088D01*
X171766250Y-72093938D01*
X171938126Y-72236632D01*
X172131000Y-72349338D01*
X172339692Y-72429030D01*
X172344760Y-72430061D01*
X172344763Y-72430062D01*
X172452017Y-72451883D01*
X172558597Y-72473567D01*
X172563772Y-72473757D01*
X172563774Y-72473757D01*
X172776673Y-72481564D01*
X172776677Y-72481564D01*
X172781837Y-72481753D01*
X172786957Y-72481097D01*
X172786959Y-72481097D01*
X172998288Y-72454025D01*
X172998289Y-72454025D01*
X173003416Y-72453368D01*
X173008366Y-72451883D01*
X173212429Y-72390661D01*
X173212434Y-72390659D01*
X173217384Y-72389174D01*
X173417994Y-72290896D01*
X173599860Y-72161173D01*
X173621500Y-72139609D01*
X173704534Y-72056864D01*
X173758096Y-72003489D01*
X173817594Y-71920689D01*
X173885435Y-71826277D01*
X173888453Y-71822077D01*
X173901995Y-71794678D01*
X173985136Y-71626453D01*
X173985137Y-71626451D01*
X173987430Y-71621811D01*
X174052370Y-71408069D01*
X174081529Y-71186590D01*
X174083156Y-71120000D01*
X174064852Y-70897361D01*
X174010431Y-70680702D01*
X173921354Y-70475840D01*
X173865045Y-70388800D01*
X173802822Y-70292617D01*
X173802820Y-70292614D01*
X173800014Y-70288277D01*
X173649670Y-70123051D01*
X173645619Y-70119852D01*
X173645615Y-70119848D01*
X173478414Y-69987800D01*
X173478410Y-69987798D01*
X173474359Y-69984598D01*
X173433053Y-69961796D01*
X173383084Y-69911364D01*
X173368312Y-69841921D01*
X173393428Y-69775516D01*
X173420780Y-69748909D01*
X173464603Y-69717650D01*
X173599860Y-69621173D01*
X173758096Y-69463489D01*
X173888453Y-69282077D01*
X173901995Y-69254678D01*
X173985136Y-69086453D01*
X173985137Y-69086451D01*
X173987430Y-69081811D01*
X174024691Y-68959171D01*
X174050865Y-68873023D01*
X174050865Y-68873021D01*
X174052370Y-68868069D01*
X174081529Y-68646590D01*
X174083156Y-68580000D01*
X174064852Y-68357361D01*
X174010431Y-68140702D01*
X173921354Y-67935840D01*
X173800014Y-67748277D01*
X173649670Y-67583051D01*
X173645619Y-67579852D01*
X173645615Y-67579848D01*
X173478414Y-67447800D01*
X173478410Y-67447798D01*
X173474359Y-67444598D01*
X173438028Y-67424542D01*
X173422136Y-67415769D01*
X173278789Y-67336638D01*
X173273920Y-67334914D01*
X173273916Y-67334912D01*
X173073087Y-67263795D01*
X173073083Y-67263794D01*
X173068212Y-67262069D01*
X173063119Y-67261162D01*
X173063116Y-67261161D01*
X172853373Y-67223800D01*
X172853367Y-67223799D01*
X172848284Y-67222894D01*
X172774452Y-67221992D01*
X172630081Y-67220228D01*
X172630079Y-67220228D01*
X172624911Y-67220165D01*
X172404091Y-67253955D01*
X172191756Y-67323357D01*
X171993607Y-67426507D01*
X171989474Y-67429610D01*
X171989471Y-67429612D01*
X171906450Y-67491946D01*
X171814965Y-67560635D01*
X171660629Y-67722138D01*
X171553201Y-67879621D01*
X171498293Y-67924621D01*
X171427768Y-67932792D01*
X171364021Y-67901538D01*
X171343324Y-67877054D01*
X171262822Y-67752617D01*
X171262820Y-67752614D01*
X171260014Y-67748277D01*
X171109670Y-67583051D01*
X171105619Y-67579852D01*
X171105615Y-67579848D01*
X170938414Y-67447800D01*
X170938410Y-67447798D01*
X170934359Y-67444598D01*
X170898028Y-67424542D01*
X170882136Y-67415769D01*
X170738789Y-67336638D01*
X170733920Y-67334914D01*
X170733916Y-67334912D01*
X170533087Y-67263795D01*
X170533083Y-67263794D01*
X170528212Y-67262069D01*
X170523119Y-67261162D01*
X170523116Y-67261161D01*
X170313373Y-67223800D01*
X170313367Y-67223799D01*
X170308284Y-67222894D01*
X170234452Y-67221992D01*
X170090081Y-67220228D01*
X170090079Y-67220228D01*
X170084911Y-67220165D01*
X169864091Y-67253955D01*
X169651756Y-67323357D01*
X169646278Y-67326209D01*
X169634579Y-67332299D01*
X169564919Y-67346011D01*
X169498904Y-67319885D01*
X169457494Y-67262216D01*
X169450400Y-67220535D01*
X169450400Y-60926695D01*
X176437251Y-60926695D01*
X176437548Y-60931848D01*
X176437548Y-60931851D01*
X176443011Y-61026590D01*
X176450110Y-61149715D01*
X176451247Y-61154761D01*
X176451248Y-61154767D01*
X176471119Y-61242939D01*
X176499222Y-61367639D01*
X176548396Y-61488741D01*
X176572925Y-61549148D01*
X176583266Y-61574616D01*
X176585965Y-61579020D01*
X176679379Y-61731458D01*
X176699987Y-61765088D01*
X176846250Y-61933938D01*
X177018126Y-62076632D01*
X177211000Y-62189338D01*
X177419692Y-62269030D01*
X177424760Y-62270061D01*
X177424763Y-62270062D01*
X177532017Y-62291883D01*
X177638597Y-62313567D01*
X177643772Y-62313757D01*
X177643774Y-62313757D01*
X177856673Y-62321564D01*
X177856677Y-62321564D01*
X177861837Y-62321753D01*
X177866957Y-62321097D01*
X177866959Y-62321097D01*
X178078288Y-62294025D01*
X178078289Y-62294025D01*
X178083416Y-62293368D01*
X178088366Y-62291883D01*
X178292429Y-62230661D01*
X178292434Y-62230659D01*
X178297384Y-62229174D01*
X178497994Y-62130896D01*
X178679860Y-62001173D01*
X178686872Y-61994186D01*
X178772378Y-61908978D01*
X178838096Y-61843489D01*
X178864343Y-61806963D01*
X178965435Y-61666277D01*
X178968453Y-61662077D01*
X178973570Y-61651725D01*
X179065136Y-61466453D01*
X179065137Y-61466451D01*
X179067430Y-61461811D01*
X179132370Y-61248069D01*
X179161529Y-61026590D01*
X179163156Y-60960000D01*
X179144852Y-60737361D01*
X179090431Y-60520702D01*
X179001354Y-60315840D01*
X178880014Y-60128277D01*
X178729670Y-59963051D01*
X178725619Y-59959852D01*
X178725615Y-59959848D01*
X178558414Y-59827800D01*
X178558410Y-59827798D01*
X178554359Y-59824598D01*
X178513053Y-59801796D01*
X178463084Y-59751364D01*
X178448312Y-59681921D01*
X178473428Y-59615516D01*
X178500780Y-59588909D01*
X178544603Y-59557650D01*
X178679860Y-59461173D01*
X178838096Y-59303489D01*
X178897594Y-59220689D01*
X178965435Y-59126277D01*
X178968453Y-59122077D01*
X179067430Y-58921811D01*
X179132370Y-58708069D01*
X179161529Y-58486590D01*
X179163156Y-58420000D01*
X179144852Y-58197361D01*
X179090431Y-57980702D01*
X179001354Y-57775840D01*
X178880014Y-57588277D01*
X178876540Y-57584459D01*
X178876533Y-57584450D01*
X178732435Y-57426088D01*
X178701383Y-57362242D01*
X178709779Y-57291744D01*
X178754956Y-57236976D01*
X178781400Y-57223307D01*
X178888052Y-57183325D01*
X178903649Y-57174786D01*
X179005724Y-57098285D01*
X179018285Y-57085724D01*
X179094786Y-56983649D01*
X179103324Y-56968054D01*
X179148478Y-56847606D01*
X179152105Y-56832351D01*
X179157631Y-56781486D01*
X179158000Y-56774672D01*
X179158000Y-56152115D01*
X179153525Y-56136876D01*
X179152135Y-56135671D01*
X179144452Y-56134000D01*
X176460116Y-56134000D01*
X176444877Y-56138475D01*
X176443672Y-56139865D01*
X176442001Y-56147548D01*
X176442001Y-56774669D01*
X176442371Y-56781490D01*
X176447895Y-56832352D01*
X176451521Y-56847604D01*
X176496676Y-56968054D01*
X176505214Y-56983649D01*
X176581715Y-57085724D01*
X176594276Y-57098285D01*
X176696351Y-57174786D01*
X176711946Y-57183324D01*
X176820827Y-57224142D01*
X176877591Y-57266784D01*
X176902291Y-57333345D01*
X176887083Y-57402694D01*
X176867691Y-57429175D01*
X176744200Y-57558401D01*
X176740629Y-57562138D01*
X176614743Y-57746680D01*
X176520688Y-57949305D01*
X176460989Y-58164570D01*
X176437251Y-58386695D01*
X176437548Y-58391848D01*
X176437548Y-58391851D01*
X176443011Y-58486590D01*
X176450110Y-58609715D01*
X176451247Y-58614761D01*
X176451248Y-58614767D01*
X176467676Y-58687662D01*
X176499222Y-58827639D01*
X176583266Y-59034616D01*
X176699987Y-59225088D01*
X176846250Y-59393938D01*
X177018126Y-59536632D01*
X177088595Y-59577811D01*
X177091445Y-59579476D01*
X177140169Y-59631114D01*
X177153240Y-59700897D01*
X177126509Y-59766669D01*
X177086055Y-59800027D01*
X177073607Y-59806507D01*
X177069474Y-59809610D01*
X177069471Y-59809612D01*
X177045247Y-59827800D01*
X176894965Y-59940635D01*
X176740629Y-60102138D01*
X176614743Y-60286680D01*
X176599003Y-60320590D01*
X176534996Y-60458482D01*
X176520688Y-60489305D01*
X176460989Y-60704570D01*
X176437251Y-60926695D01*
X169450400Y-60926695D01*
X169450400Y-55607885D01*
X176442000Y-55607885D01*
X176446475Y-55623124D01*
X176447865Y-55624329D01*
X176455548Y-55626000D01*
X177527885Y-55626000D01*
X177543124Y-55621525D01*
X177544329Y-55620135D01*
X177546000Y-55612452D01*
X177546000Y-55607885D01*
X178054000Y-55607885D01*
X178058475Y-55623124D01*
X178059865Y-55624329D01*
X178067548Y-55626000D01*
X179139884Y-55626000D01*
X179155123Y-55621525D01*
X179156328Y-55620135D01*
X179157999Y-55612452D01*
X179157999Y-54985331D01*
X179157629Y-54978510D01*
X179152105Y-54927648D01*
X179148479Y-54912396D01*
X179103324Y-54791946D01*
X179094786Y-54776351D01*
X179018285Y-54674276D01*
X179005724Y-54661715D01*
X178903649Y-54585214D01*
X178888054Y-54576676D01*
X178767606Y-54531522D01*
X178752351Y-54527895D01*
X178701486Y-54522369D01*
X178694672Y-54522000D01*
X178072115Y-54522000D01*
X178056876Y-54526475D01*
X178055671Y-54527865D01*
X178054000Y-54535548D01*
X178054000Y-55607885D01*
X177546000Y-55607885D01*
X177546000Y-54540116D01*
X177541525Y-54524877D01*
X177540135Y-54523672D01*
X177532452Y-54522001D01*
X176905331Y-54522001D01*
X176898510Y-54522371D01*
X176847648Y-54527895D01*
X176832396Y-54531521D01*
X176711946Y-54576676D01*
X176696351Y-54585214D01*
X176594276Y-54661715D01*
X176581715Y-54674276D01*
X176505214Y-54776351D01*
X176496676Y-54791946D01*
X176451522Y-54912394D01*
X176447895Y-54927649D01*
X176442369Y-54978514D01*
X176442000Y-54985328D01*
X176442000Y-55607885D01*
X169450400Y-55607885D01*
X169450400Y-48226695D01*
X171357251Y-48226695D01*
X171357548Y-48231848D01*
X171357548Y-48231851D01*
X171363011Y-48326590D01*
X171370110Y-48449715D01*
X171371247Y-48454761D01*
X171371248Y-48454767D01*
X171378287Y-48486000D01*
X171419222Y-48667639D01*
X171503266Y-48874616D01*
X171540369Y-48935163D01*
X171617291Y-49060688D01*
X171619987Y-49065088D01*
X171766250Y-49233938D01*
X171938126Y-49376632D01*
X172131000Y-49489338D01*
X172135825Y-49491180D01*
X172135826Y-49491181D01*
X172167856Y-49503412D01*
X172339692Y-49569030D01*
X172344760Y-49570061D01*
X172344763Y-49570062D01*
X172439862Y-49589410D01*
X172558597Y-49613567D01*
X172563772Y-49613757D01*
X172563774Y-49613757D01*
X172776673Y-49621564D01*
X172776677Y-49621564D01*
X172781837Y-49621753D01*
X172786957Y-49621097D01*
X172786959Y-49621097D01*
X172998288Y-49594025D01*
X172998289Y-49594025D01*
X173003416Y-49593368D01*
X173008366Y-49591883D01*
X173212429Y-49530661D01*
X173212434Y-49530659D01*
X173217384Y-49529174D01*
X173417994Y-49430896D01*
X173599860Y-49301173D01*
X173758096Y-49143489D01*
X173817594Y-49060689D01*
X173885435Y-48966277D01*
X173888453Y-48962077D01*
X173901995Y-48934678D01*
X173985136Y-48766453D01*
X173985137Y-48766451D01*
X173987430Y-48761811D01*
X174052370Y-48548069D01*
X174081529Y-48326590D01*
X174081787Y-48316028D01*
X174083074Y-48263365D01*
X174083074Y-48263361D01*
X174083156Y-48260000D01*
X174064852Y-48037361D01*
X174010431Y-47820702D01*
X173921354Y-47615840D01*
X173863845Y-47526944D01*
X173802822Y-47432617D01*
X173802820Y-47432614D01*
X173800014Y-47428277D01*
X173796538Y-47424457D01*
X173796533Y-47424450D01*
X173652435Y-47266088D01*
X173621383Y-47202242D01*
X173629779Y-47131744D01*
X173674956Y-47076976D01*
X173701400Y-47063307D01*
X173808052Y-47023325D01*
X173823649Y-47014786D01*
X173925724Y-46938285D01*
X173938285Y-46925724D01*
X174014786Y-46823649D01*
X174023324Y-46808054D01*
X174068478Y-46687606D01*
X174072105Y-46672351D01*
X174077631Y-46621486D01*
X174078000Y-46614672D01*
X174078000Y-45992115D01*
X174073525Y-45976876D01*
X174072135Y-45975671D01*
X174064452Y-45974000D01*
X171380116Y-45974000D01*
X171364877Y-45978475D01*
X171363672Y-45979865D01*
X171362001Y-45987548D01*
X171362001Y-46614669D01*
X171362371Y-46621490D01*
X171367895Y-46672352D01*
X171371521Y-46687604D01*
X171416676Y-46808054D01*
X171425214Y-46823649D01*
X171501715Y-46925724D01*
X171514276Y-46938285D01*
X171616351Y-47014786D01*
X171631946Y-47023324D01*
X171740827Y-47064142D01*
X171797591Y-47106784D01*
X171822291Y-47173345D01*
X171807083Y-47242694D01*
X171787691Y-47269175D01*
X171664200Y-47398401D01*
X171660629Y-47402138D01*
X171657720Y-47406403D01*
X171657714Y-47406411D01*
X171623130Y-47457110D01*
X171534743Y-47586680D01*
X171519003Y-47620590D01*
X171444796Y-47780456D01*
X171440688Y-47789305D01*
X171380989Y-48004570D01*
X171357251Y-48226695D01*
X169450400Y-48226695D01*
X169450400Y-46664068D01*
X169450927Y-46652885D01*
X169452602Y-46645392D01*
X169451390Y-46606812D01*
X169450462Y-46577302D01*
X169450400Y-46573344D01*
X169450400Y-46545444D01*
X169449896Y-46541453D01*
X169448963Y-46529611D01*
X169448944Y-46528990D01*
X169447574Y-46485411D01*
X169441921Y-46465952D01*
X169437912Y-46446593D01*
X169436461Y-46435110D01*
X169435374Y-46426503D01*
X169432458Y-46419137D01*
X169432456Y-46419131D01*
X169419100Y-46385398D01*
X169415255Y-46374168D01*
X169405130Y-46339317D01*
X169405130Y-46339316D01*
X169402919Y-46331707D01*
X169392605Y-46314266D01*
X169383908Y-46296513D01*
X169379372Y-46285058D01*
X169376452Y-46277683D01*
X169350463Y-46241912D01*
X169343947Y-46231992D01*
X169325478Y-46200763D01*
X169321442Y-46193938D01*
X169307121Y-46179617D01*
X169294280Y-46164583D01*
X169287031Y-46154606D01*
X169282372Y-46148193D01*
X169248295Y-46120002D01*
X169239516Y-46112012D01*
X168955159Y-45827655D01*
X176039858Y-45827655D01*
X176075104Y-46086638D01*
X176076412Y-46091124D01*
X176076412Y-46091126D01*
X176091573Y-46143142D01*
X176148243Y-46337567D01*
X176257668Y-46574928D01*
X176260231Y-46578837D01*
X176398410Y-46789596D01*
X176398414Y-46789601D01*
X176400976Y-46793509D01*
X176516850Y-46923334D01*
X176569142Y-46981922D01*
X176575018Y-46988506D01*
X176775970Y-47155637D01*
X176779973Y-47158066D01*
X176995422Y-47288804D01*
X176995426Y-47288806D01*
X176999419Y-47291229D01*
X177240455Y-47392303D01*
X177493783Y-47456641D01*
X177498434Y-47457109D01*
X177498438Y-47457110D01*
X177691308Y-47476531D01*
X177710867Y-47478500D01*
X177866354Y-47478500D01*
X177868679Y-47478327D01*
X177868685Y-47478327D01*
X178056000Y-47464407D01*
X178056004Y-47464406D01*
X178060652Y-47464061D01*
X178065200Y-47463032D01*
X178065206Y-47463031D01*
X178275414Y-47415465D01*
X178315577Y-47406377D01*
X178319931Y-47404684D01*
X178554824Y-47313340D01*
X178554827Y-47313339D01*
X178559177Y-47311647D01*
X178786098Y-47181951D01*
X178991357Y-47020138D01*
X179170443Y-46829763D01*
X179295373Y-46649678D01*
X179316759Y-46618851D01*
X179316761Y-46618848D01*
X179319424Y-46615009D01*
X179323306Y-46607137D01*
X179432960Y-46384781D01*
X179432961Y-46384778D01*
X179435025Y-46380593D01*
X179443698Y-46353500D01*
X179513280Y-46136123D01*
X179514707Y-46131665D01*
X179556721Y-45873693D01*
X179560142Y-45612345D01*
X179524896Y-45353362D01*
X179510473Y-45303877D01*
X179453068Y-45106932D01*
X179451757Y-45102433D01*
X179439498Y-45075840D01*
X179355030Y-44892617D01*
X179342332Y-44865072D01*
X179278458Y-44767648D01*
X179201590Y-44650404D01*
X179201586Y-44650399D01*
X179199024Y-44646491D01*
X179024982Y-44451494D01*
X178824030Y-44284363D01*
X178622402Y-44162012D01*
X178604578Y-44151196D01*
X178604574Y-44151194D01*
X178600581Y-44148771D01*
X178359545Y-44047697D01*
X178106217Y-43983359D01*
X178101566Y-43982891D01*
X178101562Y-43982890D01*
X177892271Y-43961816D01*
X177889133Y-43961500D01*
X177733646Y-43961500D01*
X177731321Y-43961673D01*
X177731315Y-43961673D01*
X177544000Y-43975593D01*
X177543996Y-43975594D01*
X177539348Y-43975939D01*
X177534800Y-43976968D01*
X177534794Y-43976969D01*
X177348399Y-44019147D01*
X177284423Y-44033623D01*
X177280071Y-44035315D01*
X177280069Y-44035316D01*
X177045176Y-44126660D01*
X177045173Y-44126661D01*
X177040823Y-44128353D01*
X176813902Y-44258049D01*
X176608643Y-44419862D01*
X176429557Y-44610237D01*
X176280576Y-44824991D01*
X176278510Y-44829181D01*
X176278508Y-44829184D01*
X176168814Y-45051623D01*
X176164975Y-45059407D01*
X176163553Y-45063850D01*
X176163552Y-45063852D01*
X176102535Y-45254470D01*
X176085293Y-45308335D01*
X176043279Y-45566307D01*
X176043218Y-45570980D01*
X176040396Y-45786590D01*
X176039858Y-45827655D01*
X168955159Y-45827655D01*
X168575389Y-45447885D01*
X171362000Y-45447885D01*
X171366475Y-45463124D01*
X171367865Y-45464329D01*
X171375548Y-45466000D01*
X172447885Y-45466000D01*
X172463124Y-45461525D01*
X172464329Y-45460135D01*
X172466000Y-45452452D01*
X172466000Y-45447885D01*
X172974000Y-45447885D01*
X172978475Y-45463124D01*
X172979865Y-45464329D01*
X172987548Y-45466000D01*
X174059884Y-45466000D01*
X174075123Y-45461525D01*
X174076328Y-45460135D01*
X174077999Y-45452452D01*
X174077999Y-44825331D01*
X174077629Y-44818510D01*
X174072105Y-44767648D01*
X174068479Y-44752396D01*
X174023324Y-44631946D01*
X174014786Y-44616351D01*
X173938285Y-44514276D01*
X173925724Y-44501715D01*
X173823649Y-44425214D01*
X173808054Y-44416676D01*
X173687606Y-44371522D01*
X173672351Y-44367895D01*
X173621486Y-44362369D01*
X173614672Y-44362000D01*
X172992115Y-44362000D01*
X172976876Y-44366475D01*
X172975671Y-44367865D01*
X172974000Y-44375548D01*
X172974000Y-45447885D01*
X172466000Y-45447885D01*
X172466000Y-44380116D01*
X172461525Y-44364877D01*
X172460135Y-44363672D01*
X172452452Y-44362001D01*
X171825331Y-44362001D01*
X171818510Y-44362371D01*
X171767648Y-44367895D01*
X171752396Y-44371521D01*
X171631946Y-44416676D01*
X171616351Y-44425214D01*
X171514276Y-44501715D01*
X171501715Y-44514276D01*
X171425214Y-44616351D01*
X171416676Y-44631946D01*
X171371522Y-44752394D01*
X171367895Y-44767649D01*
X171362369Y-44818514D01*
X171362000Y-44825328D01*
X171362000Y-45447885D01*
X168575389Y-45447885D01*
X166055252Y-42927747D01*
X166047712Y-42919461D01*
X166043600Y-42912982D01*
X165993948Y-42866356D01*
X165991107Y-42863602D01*
X165971370Y-42843865D01*
X165968173Y-42841385D01*
X165959151Y-42833680D01*
X165945722Y-42821069D01*
X165926921Y-42803414D01*
X165919975Y-42799595D01*
X165919972Y-42799593D01*
X165909166Y-42793652D01*
X165892647Y-42782801D01*
X165892183Y-42782441D01*
X165876641Y-42770386D01*
X165869372Y-42767241D01*
X165869368Y-42767238D01*
X165836063Y-42752826D01*
X165825413Y-42747609D01*
X165786660Y-42726305D01*
X165767037Y-42721267D01*
X165748334Y-42714863D01*
X165737020Y-42709967D01*
X165737019Y-42709967D01*
X165729745Y-42706819D01*
X165721922Y-42705580D01*
X165721912Y-42705577D01*
X165686076Y-42699901D01*
X165674456Y-42697495D01*
X165639311Y-42688472D01*
X165639310Y-42688472D01*
X165631630Y-42686500D01*
X165611376Y-42686500D01*
X165591665Y-42684949D01*
X165579486Y-42683020D01*
X165571657Y-42681780D01*
X165542386Y-42684547D01*
X165527639Y-42685941D01*
X165515781Y-42686500D01*
X140446767Y-42686500D01*
X140435584Y-42685973D01*
X140428091Y-42684298D01*
X140420165Y-42684547D01*
X140420164Y-42684547D01*
X140360001Y-42686438D01*
X140356043Y-42686500D01*
X140328144Y-42686500D01*
X140324154Y-42687004D01*
X140312320Y-42687936D01*
X140268111Y-42689326D01*
X140260497Y-42691538D01*
X140260492Y-42691539D01*
X140248659Y-42694977D01*
X140229296Y-42698988D01*
X140209203Y-42701526D01*
X140201836Y-42704443D01*
X140201831Y-42704444D01*
X140168092Y-42717802D01*
X140156865Y-42721646D01*
X140114407Y-42733982D01*
X140107581Y-42738019D01*
X140096972Y-42744293D01*
X140079224Y-42752988D01*
X140060383Y-42760448D01*
X140053967Y-42765110D01*
X140053966Y-42765110D01*
X140024613Y-42786436D01*
X140014693Y-42792952D01*
X139983465Y-42811420D01*
X139983462Y-42811422D01*
X139976638Y-42815458D01*
X139962317Y-42829779D01*
X139947284Y-42842619D01*
X139930893Y-42854528D01*
X139922217Y-42865016D01*
X139902702Y-42888605D01*
X139894712Y-42897384D01*
X138157388Y-44634708D01*
X138095076Y-44668734D01*
X138024261Y-44663669D01*
X137990200Y-44644494D01*
X137918415Y-44587801D01*
X137918413Y-44587800D01*
X137914359Y-44584598D01*
X137878028Y-44564542D01*
X137786970Y-44514276D01*
X137718789Y-44476638D01*
X137713920Y-44474914D01*
X137713916Y-44474912D01*
X137513087Y-44403795D01*
X137513083Y-44403794D01*
X137508212Y-44402069D01*
X137503119Y-44401162D01*
X137503116Y-44401161D01*
X137293373Y-44363800D01*
X137293367Y-44363799D01*
X137288284Y-44362894D01*
X137214452Y-44361992D01*
X137070081Y-44360228D01*
X137070079Y-44360228D01*
X137064911Y-44360165D01*
X136844091Y-44393955D01*
X136631756Y-44463357D01*
X136433607Y-44566507D01*
X136429474Y-44569610D01*
X136429471Y-44569612D01*
X136304259Y-44663624D01*
X136254965Y-44700635D01*
X136251393Y-44704373D01*
X136132121Y-44829184D01*
X136100629Y-44862138D01*
X136097720Y-44866403D01*
X136097714Y-44866411D01*
X136095731Y-44869318D01*
X135993204Y-45019618D01*
X135992898Y-45020066D01*
X135937987Y-45065069D01*
X135867462Y-45073240D01*
X135803715Y-45041986D01*
X135783018Y-45017502D01*
X135702426Y-44892926D01*
X135696136Y-44884757D01*
X135552806Y-44727240D01*
X135545273Y-44720215D01*
X135378139Y-44588222D01*
X135369552Y-44582517D01*
X135183117Y-44479599D01*
X135173705Y-44475369D01*
X134972959Y-44404280D01*
X134962988Y-44401646D01*
X134891837Y-44388972D01*
X134878540Y-44390432D01*
X134874000Y-44404989D01*
X134874000Y-45848000D01*
X134853998Y-45916121D01*
X134800342Y-45962614D01*
X134748000Y-45974000D01*
X134492000Y-45974000D01*
X134423879Y-45953998D01*
X134377386Y-45900342D01*
X134366000Y-45848000D01*
X134366000Y-44403102D01*
X134362082Y-44389758D01*
X134347806Y-44387771D01*
X134309324Y-44393660D01*
X134299288Y-44396051D01*
X134096868Y-44462212D01*
X134087359Y-44466209D01*
X133898463Y-44564542D01*
X133889738Y-44570036D01*
X133719433Y-44697905D01*
X133711726Y-44704748D01*
X133564590Y-44858717D01*
X133558109Y-44866722D01*
X133453498Y-45020074D01*
X133398587Y-45065076D01*
X133328062Y-45073247D01*
X133264315Y-45041993D01*
X133243618Y-45017509D01*
X133162822Y-44892617D01*
X133162820Y-44892614D01*
X133160014Y-44888277D01*
X133009670Y-44723051D01*
X133005619Y-44719852D01*
X133005615Y-44719848D01*
X132838414Y-44587800D01*
X132838410Y-44587798D01*
X132834359Y-44584598D01*
X132798028Y-44564542D01*
X132706970Y-44514276D01*
X132638789Y-44476638D01*
X132633920Y-44474914D01*
X132633916Y-44474912D01*
X132433087Y-44403795D01*
X132433083Y-44403794D01*
X132428212Y-44402069D01*
X132423119Y-44401162D01*
X132423116Y-44401161D01*
X132213373Y-44363800D01*
X132213367Y-44363799D01*
X132208284Y-44362894D01*
X132134452Y-44361992D01*
X131990081Y-44360228D01*
X131990079Y-44360228D01*
X131984911Y-44360165D01*
X131764091Y-44393955D01*
X131551756Y-44463357D01*
X131353607Y-44566507D01*
X131349474Y-44569610D01*
X131349471Y-44569612D01*
X131224259Y-44663624D01*
X131174965Y-44700635D01*
X131171393Y-44704373D01*
X131052121Y-44829184D01*
X131020629Y-44862138D01*
X130913201Y-45019621D01*
X130858293Y-45064621D01*
X130787768Y-45072792D01*
X130724021Y-45041538D01*
X130703324Y-45017054D01*
X130622822Y-44892617D01*
X130622820Y-44892614D01*
X130620014Y-44888277D01*
X130469670Y-44723051D01*
X130465619Y-44719852D01*
X130465615Y-44719848D01*
X130298414Y-44587800D01*
X130298410Y-44587798D01*
X130294359Y-44584598D01*
X130258028Y-44564542D01*
X130166970Y-44514276D01*
X130098789Y-44476638D01*
X130093920Y-44474914D01*
X130093916Y-44474912D01*
X129893087Y-44403795D01*
X129893083Y-44403794D01*
X129888212Y-44402069D01*
X129883119Y-44401162D01*
X129883116Y-44401161D01*
X129673373Y-44363800D01*
X129673367Y-44363799D01*
X129668284Y-44362894D01*
X129594452Y-44361992D01*
X129450081Y-44360228D01*
X129450079Y-44360228D01*
X129444911Y-44360165D01*
X129224091Y-44393955D01*
X129011756Y-44463357D01*
X128813607Y-44566507D01*
X128809474Y-44569610D01*
X128809471Y-44569612D01*
X128684259Y-44663624D01*
X128634965Y-44700635D01*
X128631393Y-44704373D01*
X128512121Y-44829184D01*
X128480629Y-44862138D01*
X128373201Y-45019621D01*
X128318293Y-45064621D01*
X128247768Y-45072792D01*
X128184021Y-45041538D01*
X128163324Y-45017054D01*
X128082822Y-44892617D01*
X128082820Y-44892614D01*
X128080014Y-44888277D01*
X127929670Y-44723051D01*
X127925619Y-44719852D01*
X127925615Y-44719848D01*
X127758414Y-44587800D01*
X127758410Y-44587798D01*
X127754359Y-44584598D01*
X127718028Y-44564542D01*
X127626970Y-44514276D01*
X127558789Y-44476638D01*
X127553920Y-44474914D01*
X127553916Y-44474912D01*
X127353087Y-44403795D01*
X127353083Y-44403794D01*
X127348212Y-44402069D01*
X127343119Y-44401162D01*
X127343116Y-44401161D01*
X127133373Y-44363800D01*
X127133367Y-44363799D01*
X127128284Y-44362894D01*
X127054452Y-44361992D01*
X126910081Y-44360228D01*
X126910079Y-44360228D01*
X126904911Y-44360165D01*
X126684091Y-44393955D01*
X126471756Y-44463357D01*
X126273607Y-44566507D01*
X126269474Y-44569610D01*
X126269471Y-44569612D01*
X126144259Y-44663624D01*
X126094965Y-44700635D01*
X126091393Y-44704373D01*
X125972121Y-44829184D01*
X125940629Y-44862138D01*
X125833201Y-45019621D01*
X125778293Y-45064621D01*
X125707768Y-45072792D01*
X125644021Y-45041538D01*
X125623324Y-45017054D01*
X125542822Y-44892617D01*
X125542820Y-44892614D01*
X125540014Y-44888277D01*
X125389670Y-44723051D01*
X125385619Y-44719852D01*
X125385615Y-44719848D01*
X125218414Y-44587800D01*
X125218410Y-44587798D01*
X125214359Y-44584598D01*
X125178028Y-44564542D01*
X125086970Y-44514276D01*
X125018789Y-44476638D01*
X125013920Y-44474914D01*
X125013916Y-44474912D01*
X124813087Y-44403795D01*
X124813083Y-44403794D01*
X124808212Y-44402069D01*
X124803119Y-44401162D01*
X124803116Y-44401161D01*
X124593373Y-44363800D01*
X124593367Y-44363799D01*
X124588284Y-44362894D01*
X124514452Y-44361992D01*
X124370081Y-44360228D01*
X124370079Y-44360228D01*
X124364911Y-44360165D01*
X124144091Y-44393955D01*
X123931756Y-44463357D01*
X123733607Y-44566507D01*
X123729474Y-44569610D01*
X123729471Y-44569612D01*
X123604259Y-44663624D01*
X123554965Y-44700635D01*
X123551393Y-44704373D01*
X123432121Y-44829184D01*
X123400629Y-44862138D01*
X123293201Y-45019621D01*
X123238293Y-45064621D01*
X123167768Y-45072792D01*
X123104021Y-45041538D01*
X123083324Y-45017054D01*
X123002822Y-44892617D01*
X123002820Y-44892614D01*
X123000014Y-44888277D01*
X122849670Y-44723051D01*
X122845619Y-44719852D01*
X122845615Y-44719848D01*
X122678414Y-44587800D01*
X122678410Y-44587798D01*
X122674359Y-44584598D01*
X122638028Y-44564542D01*
X122546970Y-44514276D01*
X122478789Y-44476638D01*
X122473920Y-44474914D01*
X122473916Y-44474912D01*
X122273087Y-44403795D01*
X122273083Y-44403794D01*
X122268212Y-44402069D01*
X122263119Y-44401162D01*
X122263116Y-44401161D01*
X122053373Y-44363800D01*
X122053367Y-44363799D01*
X122048284Y-44362894D01*
X121974452Y-44361992D01*
X121830081Y-44360228D01*
X121830079Y-44360228D01*
X121824911Y-44360165D01*
X121604091Y-44393955D01*
X121391756Y-44463357D01*
X121193607Y-44566507D01*
X121189474Y-44569610D01*
X121189471Y-44569612D01*
X121064259Y-44663624D01*
X121014965Y-44700635D01*
X121011393Y-44704373D01*
X120892121Y-44829184D01*
X120860629Y-44862138D01*
X120753201Y-45019621D01*
X120698293Y-45064621D01*
X120627768Y-45072792D01*
X120564021Y-45041538D01*
X120543324Y-45017054D01*
X120462822Y-44892617D01*
X120462820Y-44892614D01*
X120460014Y-44888277D01*
X120309670Y-44723051D01*
X120305619Y-44719852D01*
X120305615Y-44719848D01*
X120138414Y-44587800D01*
X120138410Y-44587798D01*
X120134359Y-44584598D01*
X120098028Y-44564542D01*
X120006970Y-44514276D01*
X119938789Y-44476638D01*
X119933920Y-44474914D01*
X119933916Y-44474912D01*
X119733087Y-44403795D01*
X119733083Y-44403794D01*
X119728212Y-44402069D01*
X119723119Y-44401162D01*
X119723116Y-44401161D01*
X119513373Y-44363800D01*
X119513367Y-44363799D01*
X119508284Y-44362894D01*
X119434452Y-44361992D01*
X119290081Y-44360228D01*
X119290079Y-44360228D01*
X119284911Y-44360165D01*
X119064091Y-44393955D01*
X118851756Y-44463357D01*
X118653607Y-44566507D01*
X118649474Y-44569610D01*
X118649471Y-44569612D01*
X118524259Y-44663624D01*
X118474965Y-44700635D01*
X118471393Y-44704373D01*
X118352121Y-44829184D01*
X118320629Y-44862138D01*
X118317720Y-44866403D01*
X118317714Y-44866411D01*
X118315731Y-44869318D01*
X118213204Y-45019618D01*
X118212898Y-45020066D01*
X118157987Y-45065069D01*
X118087462Y-45073240D01*
X118023715Y-45041986D01*
X118003018Y-45017502D01*
X117922426Y-44892926D01*
X117916136Y-44884757D01*
X117772806Y-44727240D01*
X117765273Y-44720215D01*
X117598139Y-44588222D01*
X117589552Y-44582517D01*
X117403117Y-44479599D01*
X117393705Y-44475369D01*
X117192959Y-44404280D01*
X117182988Y-44401646D01*
X117111837Y-44388972D01*
X117098540Y-44390432D01*
X117094000Y-44404989D01*
X117094000Y-45848000D01*
X117073998Y-45916121D01*
X117020342Y-45962614D01*
X116968000Y-45974000D01*
X115523225Y-45974000D01*
X115509694Y-45977973D01*
X115508257Y-45987966D01*
X115538565Y-46122446D01*
X115541645Y-46132275D01*
X115621770Y-46329603D01*
X115626413Y-46338794D01*
X115737694Y-46520388D01*
X115743777Y-46528699D01*
X115883213Y-46689667D01*
X115890580Y-46696883D01*
X116054434Y-46832916D01*
X116062881Y-46838831D01*
X116131969Y-46879203D01*
X116180693Y-46930842D01*
X116193764Y-47000625D01*
X116167033Y-47066396D01*
X116126584Y-47099752D01*
X116113607Y-47106507D01*
X116109474Y-47109610D01*
X116109471Y-47109612D01*
X115963817Y-47218972D01*
X115934965Y-47240635D01*
X115869346Y-47309301D01*
X115788930Y-47393452D01*
X115780629Y-47402138D01*
X115777720Y-47406403D01*
X115777714Y-47406411D01*
X115743130Y-47457110D01*
X115654743Y-47586680D01*
X115639003Y-47620590D01*
X115564796Y-47780456D01*
X115560688Y-47789305D01*
X115500989Y-48004570D01*
X115477251Y-48226695D01*
X115477548Y-48231848D01*
X115477548Y-48231851D01*
X115483011Y-48326590D01*
X115490110Y-48449715D01*
X115491247Y-48454761D01*
X115491248Y-48454767D01*
X115498287Y-48486000D01*
X115539222Y-48667639D01*
X115623266Y-48874616D01*
X115660369Y-48935163D01*
X115737291Y-49060688D01*
X115739987Y-49065088D01*
X115886250Y-49233938D01*
X116058126Y-49376632D01*
X116145882Y-49427912D01*
X116194606Y-49479550D01*
X116207677Y-49549333D01*
X116180946Y-49615105D01*
X116122899Y-49655984D01*
X116082312Y-49662700D01*
X110167421Y-49662700D01*
X110099300Y-49642698D01*
X110052807Y-49589042D01*
X110042703Y-49518768D01*
X110060161Y-49470584D01*
X110133912Y-49350937D01*
X110140056Y-49337759D01*
X110190315Y-49186234D01*
X110193181Y-49172868D01*
X110202672Y-49080230D01*
X110203000Y-49073815D01*
X110203000Y-49012115D01*
X110198525Y-48996876D01*
X110197135Y-48995671D01*
X110189452Y-48994000D01*
X108255115Y-48994000D01*
X108239876Y-48998475D01*
X108238671Y-48999865D01*
X108237000Y-49007548D01*
X108237000Y-49073766D01*
X108237505Y-49083524D01*
X108235945Y-49083605D01*
X108224166Y-49147399D01*
X108175576Y-49199163D01*
X108106713Y-49216439D01*
X108039442Y-49193744D01*
X108018089Y-49174849D01*
X108017444Y-49174132D01*
X107899853Y-49043534D01*
X107793518Y-48966277D01*
X107750694Y-48935163D01*
X107750693Y-48935162D01*
X107745352Y-48931282D01*
X107739324Y-48928598D01*
X107739322Y-48928597D01*
X107576919Y-48856291D01*
X107576918Y-48856291D01*
X107570888Y-48853606D01*
X107477487Y-48833753D01*
X107390544Y-48815272D01*
X107390539Y-48815272D01*
X107384087Y-48813900D01*
X107193113Y-48813900D01*
X107186661Y-48815272D01*
X107186656Y-48815272D01*
X107099712Y-48833753D01*
X107006312Y-48853606D01*
X107000282Y-48856291D01*
X107000281Y-48856291D01*
X106837878Y-48928597D01*
X106837876Y-48928598D01*
X106831848Y-48931282D01*
X106826507Y-48935162D01*
X106826506Y-48935163D01*
X106778645Y-48969936D01*
X106704584Y-48994000D01*
X106317115Y-48994000D01*
X106301876Y-48998475D01*
X106300671Y-48999865D01*
X106299000Y-49007548D01*
X106299000Y-49754885D01*
X106303475Y-49770124D01*
X106317034Y-49781873D01*
X106355309Y-49802773D01*
X106389334Y-49865085D01*
X106391523Y-49878697D01*
X106394177Y-49903947D01*
X106395058Y-49912328D01*
X106397098Y-49918605D01*
X106397098Y-49918607D01*
X106413951Y-49970473D01*
X106454073Y-50093956D01*
X106549560Y-50259344D01*
X106677347Y-50401266D01*
X106831848Y-50513518D01*
X106837876Y-50516202D01*
X106837878Y-50516203D01*
X107000281Y-50588509D01*
X107006312Y-50591194D01*
X107099712Y-50611047D01*
X107186656Y-50629528D01*
X107186661Y-50629528D01*
X107193113Y-50630900D01*
X107249005Y-50630900D01*
X107317126Y-50650902D01*
X107338100Y-50667805D01*
X107358748Y-50688453D01*
X107366288Y-50696739D01*
X107370400Y-50703218D01*
X107376177Y-50708643D01*
X107420051Y-50749843D01*
X107422893Y-50752598D01*
X107442630Y-50772335D01*
X107445827Y-50774815D01*
X107454847Y-50782518D01*
X107487079Y-50812786D01*
X107494025Y-50816605D01*
X107494028Y-50816607D01*
X107504834Y-50822548D01*
X107521353Y-50833399D01*
X107537359Y-50845814D01*
X107544628Y-50848959D01*
X107544632Y-50848962D01*
X107577937Y-50863374D01*
X107588587Y-50868591D01*
X107627340Y-50889895D01*
X107635015Y-50891866D01*
X107635016Y-50891866D01*
X107646962Y-50894933D01*
X107665667Y-50901337D01*
X107684255Y-50909381D01*
X107692078Y-50910620D01*
X107692088Y-50910623D01*
X107727924Y-50916299D01*
X107739544Y-50918705D01*
X107774689Y-50927728D01*
X107782370Y-50929700D01*
X107802624Y-50929700D01*
X107822334Y-50931251D01*
X107842343Y-50934420D01*
X107850235Y-50933674D01*
X107886361Y-50930259D01*
X107898219Y-50929700D01*
X130073506Y-50929700D01*
X130141627Y-50949702D01*
X130162601Y-50966605D01*
X132861656Y-53665661D01*
X132895682Y-53727973D01*
X132890617Y-53798789D01*
X132846622Y-53856692D01*
X132823141Y-53873752D01*
X132817247Y-53878034D01*
X132812826Y-53882944D01*
X132812825Y-53882945D01*
X132702157Y-54005855D01*
X132689460Y-54019956D01*
X132593973Y-54185344D01*
X132534958Y-54366972D01*
X132534268Y-54373533D01*
X132534268Y-54373535D01*
X132517663Y-54531521D01*
X132514996Y-54556900D01*
X132515686Y-54563465D01*
X132527333Y-54674276D01*
X132534958Y-54746828D01*
X132593973Y-54928456D01*
X132689460Y-55093844D01*
X132762637Y-55175115D01*
X132793353Y-55239121D01*
X132795000Y-55259424D01*
X132795000Y-56163133D01*
X132794473Y-56174316D01*
X132792798Y-56181809D01*
X132793047Y-56189735D01*
X132793047Y-56189736D01*
X132794938Y-56249886D01*
X132795000Y-56253845D01*
X132795000Y-56281756D01*
X132795497Y-56285690D01*
X132795497Y-56285691D01*
X132795505Y-56285756D01*
X132796438Y-56297593D01*
X132797827Y-56341789D01*
X132803478Y-56361239D01*
X132807487Y-56380600D01*
X132810026Y-56400697D01*
X132812945Y-56408068D01*
X132812945Y-56408070D01*
X132826304Y-56441812D01*
X132830149Y-56453042D01*
X132842482Y-56495493D01*
X132846515Y-56502312D01*
X132846517Y-56502317D01*
X132852793Y-56512928D01*
X132861488Y-56530676D01*
X132868948Y-56549517D01*
X132873610Y-56555933D01*
X132873610Y-56555934D01*
X132894936Y-56585287D01*
X132901452Y-56595207D01*
X132923958Y-56633262D01*
X132938279Y-56647583D01*
X132951119Y-56662616D01*
X132963028Y-56679007D01*
X132969134Y-56684058D01*
X132997105Y-56707198D01*
X133005884Y-56715188D01*
X140841578Y-64550882D01*
X140875604Y-64613194D01*
X140877792Y-64626803D01*
X140895158Y-64792028D01*
X140954173Y-64973656D01*
X141049660Y-65139044D01*
X141177447Y-65280966D01*
X141331948Y-65393218D01*
X141337976Y-65395902D01*
X141337978Y-65395903D01*
X141500381Y-65468209D01*
X141506412Y-65470894D01*
X141599812Y-65490747D01*
X141686756Y-65509228D01*
X141686761Y-65509228D01*
X141693213Y-65510600D01*
X141884187Y-65510600D01*
X141890639Y-65509228D01*
X141890644Y-65509228D01*
X141977588Y-65490747D01*
X142070988Y-65470894D01*
X142077019Y-65468209D01*
X142239422Y-65395903D01*
X142239424Y-65395902D01*
X142245452Y-65393218D01*
X142399953Y-65280966D01*
X142527740Y-65139044D01*
X142623227Y-64973656D01*
X142682242Y-64792028D01*
X142702204Y-64602100D01*
X142682242Y-64412172D01*
X142623227Y-64230544D01*
X142527740Y-64065156D01*
X142399953Y-63923234D01*
X142245452Y-63810982D01*
X142239424Y-63808298D01*
X142239422Y-63808297D01*
X142077019Y-63735991D01*
X142077018Y-63735991D01*
X142070988Y-63733306D01*
X141977588Y-63713453D01*
X141890644Y-63694972D01*
X141890639Y-63694972D01*
X141884187Y-63693600D01*
X141828295Y-63693600D01*
X141760174Y-63673598D01*
X141739200Y-63656695D01*
X134098905Y-56016400D01*
X134064879Y-55954088D01*
X134062000Y-55927305D01*
X134062000Y-55259424D01*
X134082002Y-55191303D01*
X134094358Y-55175121D01*
X134136643Y-55128159D01*
X134197087Y-55090921D01*
X134268071Y-55092273D01*
X134319372Y-55123376D01*
X136270048Y-57074053D01*
X136277588Y-57082339D01*
X136281700Y-57088818D01*
X136287477Y-57094243D01*
X136331351Y-57135443D01*
X136334193Y-57138198D01*
X136353930Y-57157935D01*
X136357127Y-57160415D01*
X136366147Y-57168118D01*
X136398379Y-57198386D01*
X136405325Y-57202205D01*
X136405328Y-57202207D01*
X136416134Y-57208148D01*
X136432653Y-57218999D01*
X136448659Y-57231414D01*
X136455928Y-57234559D01*
X136455932Y-57234562D01*
X136489237Y-57248974D01*
X136499887Y-57254191D01*
X136538640Y-57275495D01*
X136546315Y-57277466D01*
X136546316Y-57277466D01*
X136558262Y-57280533D01*
X136576966Y-57286937D01*
X136588075Y-57291744D01*
X136595555Y-57294981D01*
X136603378Y-57296220D01*
X136603388Y-57296223D01*
X136639224Y-57301899D01*
X136650844Y-57304305D01*
X136682659Y-57312473D01*
X136693670Y-57315300D01*
X136713924Y-57315300D01*
X136733634Y-57316851D01*
X136753643Y-57320020D01*
X136761535Y-57319274D01*
X136780280Y-57317502D01*
X136797662Y-57315859D01*
X136809519Y-57315300D01*
X155234733Y-57315300D01*
X155245916Y-57315827D01*
X155253409Y-57317502D01*
X155261335Y-57317253D01*
X155261336Y-57317253D01*
X155321486Y-57315362D01*
X155325445Y-57315300D01*
X155353356Y-57315300D01*
X155357291Y-57314803D01*
X155357356Y-57314795D01*
X155369193Y-57313862D01*
X155401451Y-57312848D01*
X155405470Y-57312722D01*
X155413389Y-57312473D01*
X155432843Y-57306821D01*
X155452200Y-57302813D01*
X155464430Y-57301268D01*
X155464431Y-57301268D01*
X155472297Y-57300274D01*
X155479668Y-57297355D01*
X155479670Y-57297355D01*
X155513412Y-57283996D01*
X155524642Y-57280151D01*
X155559483Y-57270029D01*
X155559484Y-57270029D01*
X155567093Y-57267818D01*
X155573912Y-57263785D01*
X155573917Y-57263783D01*
X155584528Y-57257507D01*
X155602276Y-57248812D01*
X155621117Y-57241352D01*
X155656887Y-57215364D01*
X155666807Y-57208848D01*
X155698035Y-57190380D01*
X155698038Y-57190378D01*
X155704862Y-57186342D01*
X155719183Y-57172021D01*
X155734217Y-57159180D01*
X155744194Y-57151931D01*
X155750607Y-57147272D01*
X155778798Y-57113195D01*
X155786788Y-57104416D01*
X162886705Y-50004499D01*
X162949017Y-49970473D01*
X163019832Y-49975538D01*
X163076668Y-50018085D01*
X163101479Y-50084605D01*
X163101800Y-50093594D01*
X163101800Y-58005305D01*
X163081798Y-58073426D01*
X163064895Y-58094400D01*
X160855100Y-60304195D01*
X160792788Y-60338221D01*
X160766005Y-60341100D01*
X160710113Y-60341100D01*
X160703661Y-60342472D01*
X160703656Y-60342472D01*
X160616712Y-60360953D01*
X160523312Y-60380806D01*
X160517282Y-60383491D01*
X160517281Y-60383491D01*
X160354878Y-60455797D01*
X160354876Y-60455798D01*
X160348848Y-60458482D01*
X160194347Y-60570734D01*
X160189926Y-60575644D01*
X160189925Y-60575645D01*
X160073841Y-60704570D01*
X160066560Y-60712656D01*
X159971073Y-60878044D01*
X159912058Y-61059672D01*
X159892096Y-61249600D01*
X159892786Y-61256165D01*
X159904436Y-61367005D01*
X159912058Y-61439528D01*
X159971073Y-61621156D01*
X159974376Y-61626878D01*
X159974377Y-61626879D01*
X159994699Y-61662077D01*
X160066560Y-61786544D01*
X160194347Y-61928466D01*
X160287086Y-61995845D01*
X160309619Y-62012216D01*
X160348848Y-62040718D01*
X160354879Y-62043403D01*
X160354884Y-62043406D01*
X160384000Y-62056369D01*
X160438097Y-62102348D01*
X160458747Y-62170275D01*
X160439396Y-62238583D01*
X160421848Y-62260571D01*
X156897189Y-65785230D01*
X156882777Y-65797616D01*
X156871182Y-65806149D01*
X156871177Y-65806154D01*
X156865282Y-65810492D01*
X156860543Y-65816070D01*
X156860540Y-65816073D01*
X156831065Y-65850768D01*
X156824135Y-65858284D01*
X156818440Y-65863979D01*
X156816160Y-65866861D01*
X156800819Y-65886251D01*
X156798028Y-65889655D01*
X156755509Y-65939703D01*
X156750767Y-65945285D01*
X156747439Y-65951801D01*
X156744072Y-65956850D01*
X156740905Y-65961979D01*
X156736366Y-65967716D01*
X156705445Y-66033875D01*
X156703542Y-66037769D01*
X156670331Y-66102808D01*
X156668592Y-66109916D01*
X156666493Y-66115559D01*
X156664576Y-66121322D01*
X156661478Y-66127950D01*
X156659988Y-66135112D01*
X156659988Y-66135113D01*
X156646614Y-66199412D01*
X156645644Y-66203696D01*
X156628292Y-66274610D01*
X156627600Y-66285764D01*
X156627564Y-66285762D01*
X156627325Y-66289755D01*
X156626951Y-66293947D01*
X156625460Y-66301115D01*
X156625658Y-66308432D01*
X156627012Y-66358493D01*
X156608859Y-66427130D01*
X156556480Y-66475056D01*
X156501058Y-66487900D01*
X138560669Y-66487900D01*
X138541721Y-66486467D01*
X138534380Y-66485350D01*
X138527483Y-66484301D01*
X138527481Y-66484301D01*
X138520251Y-66483201D01*
X138512959Y-66483794D01*
X138512956Y-66483794D01*
X138467582Y-66487485D01*
X138457367Y-66487900D01*
X138449307Y-66487900D01*
X138436017Y-66489449D01*
X138421093Y-66491189D01*
X138416718Y-66491622D01*
X138351261Y-66496946D01*
X138351258Y-66496947D01*
X138343963Y-66497540D01*
X138336999Y-66499796D01*
X138331040Y-66500987D01*
X138325185Y-66502371D01*
X138317919Y-66503218D01*
X138249273Y-66528135D01*
X138245145Y-66529552D01*
X138182664Y-66549793D01*
X138182662Y-66549794D01*
X138175701Y-66552049D01*
X138169446Y-66555845D01*
X138163972Y-66558351D01*
X138158542Y-66561070D01*
X138151663Y-66563567D01*
X138090616Y-66603591D01*
X138086927Y-66605918D01*
X138066735Y-66618171D01*
X138029293Y-66640891D01*
X138029288Y-66640895D01*
X138024492Y-66643805D01*
X138016116Y-66651203D01*
X138016093Y-66651177D01*
X138013103Y-66653826D01*
X138009864Y-66656534D01*
X138003748Y-66660544D01*
X137998721Y-66665851D01*
X137998717Y-66665854D01*
X137950472Y-66716783D01*
X137948094Y-66719225D01*
X137482724Y-67184595D01*
X137420412Y-67218621D01*
X137393629Y-67221500D01*
X136261866Y-67221500D01*
X136199684Y-67228255D01*
X136063295Y-67279385D01*
X135946739Y-67366739D01*
X135859385Y-67483295D01*
X135808255Y-67619684D01*
X135801500Y-67681866D01*
X135801500Y-69185200D01*
X135781498Y-69253321D01*
X135727842Y-69299814D01*
X135675500Y-69311200D01*
X128640851Y-69311200D01*
X128572730Y-69291198D01*
X128526237Y-69237542D01*
X128516133Y-69167268D01*
X128545627Y-69102688D01*
X128561663Y-69087498D01*
X128566662Y-69084542D01*
X128580983Y-69070221D01*
X128596017Y-69057380D01*
X128605994Y-69050131D01*
X128612407Y-69045472D01*
X128640598Y-69011395D01*
X128648588Y-69002616D01*
X134268298Y-63382906D01*
X134330610Y-63348880D01*
X134401425Y-63353945D01*
X134431455Y-63370065D01*
X134452448Y-63385318D01*
X134458476Y-63388002D01*
X134458478Y-63388003D01*
X134620881Y-63460309D01*
X134626912Y-63462994D01*
X134720313Y-63482847D01*
X134807256Y-63501328D01*
X134807261Y-63501328D01*
X134813713Y-63502700D01*
X135004687Y-63502700D01*
X135011139Y-63501328D01*
X135011144Y-63501328D01*
X135098087Y-63482847D01*
X135191488Y-63462994D01*
X135197519Y-63460309D01*
X135359922Y-63388003D01*
X135359924Y-63388002D01*
X135365952Y-63385318D01*
X135520453Y-63273066D01*
X135648240Y-63131144D01*
X135743727Y-62965756D01*
X135802742Y-62784128D01*
X135822704Y-62594200D01*
X135810870Y-62481604D01*
X135803432Y-62410835D01*
X135803432Y-62410833D01*
X135802742Y-62404272D01*
X135743727Y-62222644D01*
X135648240Y-62057256D01*
X135641682Y-62049972D01*
X135524875Y-61920245D01*
X135524874Y-61920244D01*
X135520453Y-61915334D01*
X135365952Y-61803082D01*
X135359924Y-61800398D01*
X135359922Y-61800397D01*
X135197519Y-61728091D01*
X135197518Y-61728091D01*
X135191488Y-61725406D01*
X135098087Y-61705553D01*
X135011144Y-61687072D01*
X135011139Y-61687072D01*
X135004687Y-61685700D01*
X134813713Y-61685700D01*
X134807261Y-61687072D01*
X134807256Y-61687072D01*
X134720313Y-61705553D01*
X134626912Y-61725406D01*
X134620882Y-61728091D01*
X134620881Y-61728091D01*
X134458478Y-61800397D01*
X134458476Y-61800398D01*
X134452448Y-61803082D01*
X134297947Y-61915334D01*
X134293532Y-61920237D01*
X134288620Y-61924660D01*
X134287063Y-61922931D01*
X134235694Y-61954575D01*
X134206470Y-61958961D01*
X134153770Y-61960617D01*
X134153102Y-61960638D01*
X134149144Y-61960700D01*
X134121244Y-61960700D01*
X134117254Y-61961204D01*
X134105420Y-61962136D01*
X134061211Y-61963526D01*
X134053595Y-61965739D01*
X134053593Y-61965739D01*
X134041752Y-61969179D01*
X134022393Y-61973188D01*
X134021083Y-61973354D01*
X134002303Y-61975726D01*
X133994937Y-61978642D01*
X133994931Y-61978644D01*
X133961198Y-61992000D01*
X133949968Y-61995845D01*
X133915117Y-62005970D01*
X133907507Y-62008181D01*
X133900684Y-62012216D01*
X133890066Y-62018495D01*
X133872313Y-62027192D01*
X133864668Y-62030219D01*
X133853483Y-62034648D01*
X133841429Y-62043406D01*
X133817712Y-62060637D01*
X133807795Y-62067151D01*
X133769738Y-62089658D01*
X133755417Y-62103979D01*
X133740384Y-62116819D01*
X133723993Y-62128728D01*
X133718942Y-62134834D01*
X133695802Y-62162805D01*
X133687812Y-62171584D01*
X128188229Y-67671166D01*
X128125917Y-67705192D01*
X128055102Y-67700127D01*
X128005940Y-67666870D01*
X127933151Y-67586876D01*
X127933145Y-67586870D01*
X127929670Y-67583051D01*
X127925619Y-67579852D01*
X127925615Y-67579848D01*
X127758414Y-67447800D01*
X127758410Y-67447798D01*
X127754359Y-67444598D01*
X127718028Y-67424542D01*
X127702136Y-67415769D01*
X127558789Y-67336638D01*
X127553920Y-67334914D01*
X127553916Y-67334912D01*
X127353087Y-67263795D01*
X127353083Y-67263794D01*
X127348212Y-67262069D01*
X127343119Y-67261162D01*
X127343116Y-67261161D01*
X127133373Y-67223800D01*
X127133367Y-67223799D01*
X127128284Y-67222894D01*
X127054452Y-67221992D01*
X126910081Y-67220228D01*
X126910079Y-67220228D01*
X126904911Y-67220165D01*
X126684091Y-67253955D01*
X126471756Y-67323357D01*
X126273607Y-67426507D01*
X126269474Y-67429610D01*
X126269471Y-67429612D01*
X126186450Y-67491946D01*
X126094965Y-67560635D01*
X125940629Y-67722138D01*
X125833201Y-67879621D01*
X125778293Y-67924621D01*
X125707768Y-67932792D01*
X125644021Y-67901538D01*
X125623324Y-67877054D01*
X125542822Y-67752617D01*
X125542820Y-67752614D01*
X125540014Y-67748277D01*
X125389670Y-67583051D01*
X125385619Y-67579852D01*
X125385615Y-67579848D01*
X125218414Y-67447800D01*
X125218410Y-67447798D01*
X125214359Y-67444598D01*
X125178028Y-67424542D01*
X125162136Y-67415769D01*
X125018789Y-67336638D01*
X125013920Y-67334914D01*
X125013916Y-67334912D01*
X124813087Y-67263795D01*
X124813083Y-67263794D01*
X124808212Y-67262069D01*
X124803119Y-67261162D01*
X124803116Y-67261161D01*
X124593373Y-67223800D01*
X124593367Y-67223799D01*
X124588284Y-67222894D01*
X124514452Y-67221992D01*
X124370081Y-67220228D01*
X124370079Y-67220228D01*
X124364911Y-67220165D01*
X124144091Y-67253955D01*
X123931756Y-67323357D01*
X123733607Y-67426507D01*
X123729474Y-67429610D01*
X123729471Y-67429612D01*
X123646450Y-67491946D01*
X123554965Y-67560635D01*
X123400629Y-67722138D01*
X123293201Y-67879621D01*
X123238293Y-67924621D01*
X123167768Y-67932792D01*
X123104021Y-67901538D01*
X123083324Y-67877054D01*
X123002822Y-67752617D01*
X123002820Y-67752614D01*
X123000014Y-67748277D01*
X122849670Y-67583051D01*
X122845619Y-67579852D01*
X122845615Y-67579848D01*
X122678414Y-67447800D01*
X122678410Y-67447798D01*
X122674359Y-67444598D01*
X122638028Y-67424542D01*
X122622136Y-67415769D01*
X122478789Y-67336638D01*
X122473920Y-67334914D01*
X122473916Y-67334912D01*
X122273087Y-67263795D01*
X122273083Y-67263794D01*
X122268212Y-67262069D01*
X122263119Y-67261162D01*
X122263116Y-67261161D01*
X122053373Y-67223800D01*
X122053367Y-67223799D01*
X122048284Y-67222894D01*
X121974452Y-67221992D01*
X121830081Y-67220228D01*
X121830079Y-67220228D01*
X121824911Y-67220165D01*
X121604091Y-67253955D01*
X121391756Y-67323357D01*
X121193607Y-67426507D01*
X121189474Y-67429610D01*
X121189471Y-67429612D01*
X121106450Y-67491946D01*
X121014965Y-67560635D01*
X120860629Y-67722138D01*
X120753201Y-67879621D01*
X120698293Y-67924621D01*
X120627768Y-67932792D01*
X120564021Y-67901538D01*
X120543324Y-67877054D01*
X120462822Y-67752617D01*
X120462820Y-67752614D01*
X120460014Y-67748277D01*
X120309670Y-67583051D01*
X120305619Y-67579852D01*
X120305615Y-67579848D01*
X120138414Y-67447800D01*
X120138410Y-67447798D01*
X120134359Y-67444598D01*
X120098028Y-67424542D01*
X120082136Y-67415769D01*
X119938789Y-67336638D01*
X119933920Y-67334914D01*
X119933916Y-67334912D01*
X119733087Y-67263795D01*
X119733083Y-67263794D01*
X119728212Y-67262069D01*
X119723119Y-67261162D01*
X119723116Y-67261161D01*
X119513373Y-67223800D01*
X119513367Y-67223799D01*
X119508284Y-67222894D01*
X119434452Y-67221992D01*
X119290081Y-67220228D01*
X119290079Y-67220228D01*
X119284911Y-67220165D01*
X119064091Y-67253955D01*
X118851756Y-67323357D01*
X118653607Y-67426507D01*
X118649474Y-67429610D01*
X118649471Y-67429612D01*
X118566450Y-67491946D01*
X118474965Y-67560635D01*
X118320629Y-67722138D01*
X118213201Y-67879621D01*
X118158293Y-67924621D01*
X118087768Y-67932792D01*
X118024021Y-67901538D01*
X118003324Y-67877054D01*
X117922822Y-67752617D01*
X117922820Y-67752614D01*
X117920014Y-67748277D01*
X117769670Y-67583051D01*
X117765619Y-67579852D01*
X117765615Y-67579848D01*
X117598414Y-67447800D01*
X117598410Y-67447798D01*
X117594359Y-67444598D01*
X117558028Y-67424542D01*
X117542136Y-67415769D01*
X117398789Y-67336638D01*
X117393920Y-67334914D01*
X117393916Y-67334912D01*
X117193087Y-67263795D01*
X117193083Y-67263794D01*
X117188212Y-67262069D01*
X117183119Y-67261162D01*
X117183116Y-67261161D01*
X116973373Y-67223800D01*
X116973367Y-67223799D01*
X116968284Y-67222894D01*
X116894452Y-67221992D01*
X116750081Y-67220228D01*
X116750079Y-67220228D01*
X116744911Y-67220165D01*
X116524091Y-67253955D01*
X116311756Y-67323357D01*
X116113607Y-67426507D01*
X116109474Y-67429610D01*
X116109471Y-67429612D01*
X116026450Y-67491946D01*
X115934965Y-67560635D01*
X115780629Y-67722138D01*
X115673201Y-67879621D01*
X115618293Y-67924621D01*
X115547768Y-67932792D01*
X115484021Y-67901538D01*
X115463324Y-67877054D01*
X115382822Y-67752617D01*
X115382820Y-67752614D01*
X115380014Y-67748277D01*
X115229670Y-67583051D01*
X115225619Y-67579852D01*
X115225615Y-67579848D01*
X115058414Y-67447800D01*
X115058410Y-67447798D01*
X115054359Y-67444598D01*
X115018028Y-67424542D01*
X115002136Y-67415769D01*
X114858789Y-67336638D01*
X114853920Y-67334914D01*
X114853916Y-67334912D01*
X114653087Y-67263795D01*
X114653083Y-67263794D01*
X114648212Y-67262069D01*
X114643119Y-67261162D01*
X114643116Y-67261161D01*
X114433373Y-67223800D01*
X114433367Y-67223799D01*
X114428284Y-67222894D01*
X114354452Y-67221992D01*
X114210081Y-67220228D01*
X114210079Y-67220228D01*
X114204911Y-67220165D01*
X113984091Y-67253955D01*
X113771756Y-67323357D01*
X113573607Y-67426507D01*
X113569474Y-67429610D01*
X113569471Y-67429612D01*
X113486450Y-67491946D01*
X113394965Y-67560635D01*
X113240629Y-67722138D01*
X113133201Y-67879621D01*
X113078293Y-67924621D01*
X113007768Y-67932792D01*
X112944021Y-67901538D01*
X112923324Y-67877054D01*
X112842822Y-67752617D01*
X112842820Y-67752614D01*
X112840014Y-67748277D01*
X112689670Y-67583051D01*
X112685619Y-67579852D01*
X112685615Y-67579848D01*
X112518414Y-67447800D01*
X112518410Y-67447798D01*
X112514359Y-67444598D01*
X112478028Y-67424542D01*
X112462136Y-67415769D01*
X112318789Y-67336638D01*
X112313920Y-67334914D01*
X112313916Y-67334912D01*
X112113087Y-67263795D01*
X112113083Y-67263794D01*
X112108212Y-67262069D01*
X112103119Y-67261162D01*
X112103116Y-67261161D01*
X111893373Y-67223800D01*
X111893367Y-67223799D01*
X111888284Y-67222894D01*
X111814452Y-67221992D01*
X111670081Y-67220228D01*
X111670079Y-67220228D01*
X111664911Y-67220165D01*
X111444091Y-67253955D01*
X111231756Y-67323357D01*
X111033607Y-67426507D01*
X111029474Y-67429610D01*
X111029471Y-67429612D01*
X110946450Y-67491946D01*
X110854965Y-67560635D01*
X110700629Y-67722138D01*
X110593201Y-67879621D01*
X110538293Y-67924621D01*
X110467768Y-67932792D01*
X110404021Y-67901538D01*
X110383324Y-67877054D01*
X110302822Y-67752617D01*
X110302820Y-67752614D01*
X110300014Y-67748277D01*
X110149670Y-67583051D01*
X110145619Y-67579852D01*
X110145615Y-67579848D01*
X109978414Y-67447800D01*
X109978410Y-67447798D01*
X109974359Y-67444598D01*
X109938028Y-67424542D01*
X109922136Y-67415769D01*
X109778789Y-67336638D01*
X109773920Y-67334914D01*
X109773916Y-67334912D01*
X109573087Y-67263795D01*
X109573083Y-67263794D01*
X109568212Y-67262069D01*
X109563119Y-67261162D01*
X109563116Y-67261161D01*
X109353373Y-67223800D01*
X109353367Y-67223799D01*
X109348284Y-67222894D01*
X109274452Y-67221992D01*
X109130081Y-67220228D01*
X109130079Y-67220228D01*
X109124911Y-67220165D01*
X108904091Y-67253955D01*
X108691756Y-67323357D01*
X108493607Y-67426507D01*
X108489474Y-67429610D01*
X108489471Y-67429612D01*
X108406450Y-67491946D01*
X108314965Y-67560635D01*
X108311393Y-67564373D01*
X108233898Y-67645466D01*
X108172374Y-67680895D01*
X108101462Y-67677438D01*
X108043676Y-67636192D01*
X108024823Y-67602644D01*
X107983324Y-67491946D01*
X107974786Y-67476351D01*
X107898285Y-67374276D01*
X107885724Y-67361715D01*
X107783649Y-67285214D01*
X107768054Y-67276676D01*
X107647606Y-67231522D01*
X107632351Y-67227895D01*
X107581486Y-67222369D01*
X107574672Y-67222000D01*
X106952115Y-67222000D01*
X106936876Y-67226475D01*
X106935671Y-67227865D01*
X106934000Y-67235548D01*
X106934000Y-68708000D01*
X106913998Y-68776121D01*
X106860342Y-68822614D01*
X106808000Y-68834000D01*
X105340116Y-68834000D01*
X105324877Y-68838475D01*
X105323672Y-68839865D01*
X105322001Y-68847548D01*
X105322001Y-69474669D01*
X105322371Y-69481490D01*
X105327895Y-69532352D01*
X105331521Y-69547604D01*
X105376676Y-69668054D01*
X105385214Y-69683649D01*
X105461715Y-69785724D01*
X105474276Y-69798285D01*
X105576351Y-69874786D01*
X105591946Y-69883324D01*
X105700827Y-69924142D01*
X105757591Y-69966784D01*
X105782291Y-70033345D01*
X105767083Y-70102694D01*
X105747691Y-70129175D01*
X105628452Y-70253952D01*
X105620629Y-70262138D01*
X105617720Y-70266403D01*
X105617714Y-70266411D01*
X105599758Y-70292734D01*
X105494743Y-70446680D01*
X105479003Y-70480590D01*
X105427475Y-70591598D01*
X105400688Y-70649305D01*
X105340989Y-70864570D01*
X105317251Y-71086695D01*
X97028500Y-71086695D01*
X97028500Y-68307885D01*
X105322000Y-68307885D01*
X105326475Y-68323124D01*
X105327865Y-68324329D01*
X105335548Y-68326000D01*
X106407885Y-68326000D01*
X106423124Y-68321525D01*
X106424329Y-68320135D01*
X106426000Y-68312452D01*
X106426000Y-67240116D01*
X106421525Y-67224877D01*
X106420135Y-67223672D01*
X106412452Y-67222001D01*
X105785331Y-67222001D01*
X105778510Y-67222371D01*
X105727648Y-67227895D01*
X105712396Y-67231521D01*
X105591946Y-67276676D01*
X105576351Y-67285214D01*
X105474276Y-67361715D01*
X105461715Y-67374276D01*
X105385214Y-67476351D01*
X105376676Y-67491946D01*
X105331522Y-67612394D01*
X105327895Y-67627649D01*
X105322369Y-67678514D01*
X105322000Y-67685328D01*
X105322000Y-68307885D01*
X97028500Y-68307885D01*
X97028500Y-49073766D01*
X105062000Y-49073766D01*
X105062337Y-49080282D01*
X105072075Y-49174132D01*
X105074968Y-49187528D01*
X105125488Y-49338953D01*
X105131653Y-49352115D01*
X105215426Y-49487492D01*
X105224460Y-49498890D01*
X105337129Y-49611363D01*
X105348540Y-49620375D01*
X105484063Y-49703912D01*
X105497241Y-49710056D01*
X105648766Y-49760315D01*
X105662132Y-49763181D01*
X105754770Y-49772672D01*
X105761185Y-49773000D01*
X105772885Y-49773000D01*
X105788124Y-49768525D01*
X105789329Y-49767135D01*
X105791000Y-49759452D01*
X105791000Y-49012115D01*
X105786525Y-48996876D01*
X105785135Y-48995671D01*
X105777452Y-48994000D01*
X105080115Y-48994000D01*
X105064876Y-48998475D01*
X105063671Y-48999865D01*
X105062000Y-49007548D01*
X105062000Y-49073766D01*
X97028500Y-49073766D01*
X97028500Y-45827655D01*
X99839858Y-45827655D01*
X99875104Y-46086638D01*
X99876412Y-46091124D01*
X99876412Y-46091126D01*
X99891573Y-46143142D01*
X99948243Y-46337567D01*
X100057668Y-46574928D01*
X100060231Y-46578837D01*
X100198410Y-46789596D01*
X100198414Y-46789601D01*
X100200976Y-46793509D01*
X100316850Y-46923334D01*
X100369142Y-46981922D01*
X100375018Y-46988506D01*
X100575970Y-47155637D01*
X100579973Y-47158066D01*
X100795422Y-47288804D01*
X100795426Y-47288806D01*
X100799419Y-47291229D01*
X101040455Y-47392303D01*
X101293783Y-47456641D01*
X101298434Y-47457109D01*
X101298438Y-47457110D01*
X101491308Y-47476531D01*
X101510867Y-47478500D01*
X101666354Y-47478500D01*
X101668679Y-47478327D01*
X101668685Y-47478327D01*
X101856000Y-47464407D01*
X101856004Y-47464406D01*
X101860652Y-47464061D01*
X101865200Y-47463032D01*
X101865206Y-47463031D01*
X102075414Y-47415465D01*
X102104427Y-47408900D01*
X104015696Y-47408900D01*
X104016386Y-47415465D01*
X104034875Y-47591375D01*
X104035658Y-47598828D01*
X104094673Y-47780456D01*
X104190160Y-47945844D01*
X104194578Y-47950751D01*
X104194579Y-47950752D01*
X104313525Y-48082855D01*
X104317947Y-48087766D01*
X104472448Y-48200018D01*
X104478476Y-48202702D01*
X104478478Y-48202703D01*
X104543946Y-48231851D01*
X104646912Y-48277694D01*
X104740312Y-48297547D01*
X104827256Y-48316028D01*
X104827261Y-48316028D01*
X104833713Y-48317400D01*
X104936000Y-48317400D01*
X105004121Y-48337402D01*
X105050614Y-48391058D01*
X105062000Y-48443400D01*
X105062000Y-48467885D01*
X105066475Y-48483124D01*
X105067865Y-48484329D01*
X105075548Y-48486000D01*
X107009885Y-48486000D01*
X107025124Y-48481525D01*
X107026329Y-48480135D01*
X107028000Y-48472452D01*
X107028000Y-48406234D01*
X107027663Y-48399718D01*
X107017925Y-48305868D01*
X107015032Y-48292472D01*
X106964512Y-48141047D01*
X106958347Y-48127885D01*
X106874574Y-47992508D01*
X106865536Y-47981105D01*
X106838860Y-47954475D01*
X106804781Y-47892193D01*
X106809784Y-47821373D01*
X106838705Y-47776285D01*
X106843576Y-47771406D01*
X106871929Y-47743003D01*
X106875770Y-47736772D01*
X106959369Y-47601150D01*
X106959370Y-47601148D01*
X106963209Y-47594920D01*
X107017974Y-47429809D01*
X107020340Y-47406722D01*
X107028172Y-47330271D01*
X107028500Y-47327072D01*
X108236500Y-47327072D01*
X108236837Y-47330318D01*
X108236837Y-47330322D01*
X108244729Y-47406377D01*
X108247293Y-47431093D01*
X108249474Y-47437629D01*
X108249474Y-47437631D01*
X108263109Y-47478500D01*
X108302346Y-47596107D01*
X108393884Y-47744031D01*
X108426141Y-47776231D01*
X108460220Y-47838512D01*
X108455218Y-47909332D01*
X108426296Y-47954422D01*
X108398637Y-47982129D01*
X108389625Y-47993540D01*
X108306088Y-48129063D01*
X108299944Y-48142241D01*
X108249685Y-48293766D01*
X108246819Y-48307132D01*
X108237328Y-48399770D01*
X108237000Y-48406185D01*
X108237000Y-48467885D01*
X108241475Y-48483124D01*
X108242865Y-48484329D01*
X108250548Y-48486000D01*
X110184885Y-48486000D01*
X110200124Y-48481525D01*
X110201329Y-48480135D01*
X110203000Y-48472452D01*
X110203000Y-48406234D01*
X110202663Y-48399718D01*
X110192925Y-48305868D01*
X110190032Y-48292472D01*
X110139512Y-48141047D01*
X110133346Y-48127883D01*
X110110400Y-48090803D01*
X110091562Y-48022351D01*
X110112723Y-47954581D01*
X110167164Y-47909010D01*
X110217544Y-47898500D01*
X110397887Y-47898500D01*
X110404339Y-47897128D01*
X110404344Y-47897128D01*
X110491288Y-47878647D01*
X110584688Y-47858794D01*
X110590719Y-47856109D01*
X110753122Y-47783803D01*
X110753124Y-47783802D01*
X110759152Y-47781118D01*
X110772520Y-47771406D01*
X110820189Y-47736772D01*
X110913653Y-47668866D01*
X110938337Y-47641452D01*
X111037021Y-47531852D01*
X111037022Y-47531851D01*
X111041440Y-47526944D01*
X111115472Y-47398717D01*
X111133623Y-47367279D01*
X111133624Y-47367278D01*
X111136927Y-47361556D01*
X111195942Y-47179928D01*
X111201377Y-47128222D01*
X111215214Y-46996565D01*
X111215904Y-46990000D01*
X111208661Y-46921083D01*
X111196632Y-46806635D01*
X111196632Y-46806633D01*
X111195942Y-46800072D01*
X111136927Y-46618444D01*
X111128758Y-46604294D01*
X111055722Y-46477793D01*
X111041440Y-46453056D01*
X111025282Y-46435110D01*
X110918075Y-46316045D01*
X110918074Y-46316044D01*
X110913653Y-46311134D01*
X110790711Y-46221811D01*
X110764494Y-46202763D01*
X110764493Y-46202762D01*
X110759152Y-46198882D01*
X110753124Y-46196198D01*
X110753122Y-46196197D01*
X110590719Y-46123891D01*
X110590718Y-46123891D01*
X110584688Y-46121206D01*
X110491287Y-46101353D01*
X110404344Y-46082872D01*
X110404339Y-46082872D01*
X110397887Y-46081500D01*
X110206913Y-46081500D01*
X110200461Y-46082872D01*
X110200456Y-46082872D01*
X110063366Y-46112012D01*
X110020112Y-46121206D01*
X110019267Y-46121582D01*
X109950404Y-46123551D01*
X109916319Y-46108951D01*
X109774920Y-46021791D01*
X109609809Y-45967026D01*
X109602973Y-45966326D01*
X109602970Y-45966325D01*
X109551474Y-45961049D01*
X109507072Y-45956500D01*
X108932928Y-45956500D01*
X108929682Y-45956837D01*
X108929678Y-45956837D01*
X108835765Y-45966581D01*
X108835761Y-45966582D01*
X108828907Y-45967293D01*
X108822371Y-45969474D01*
X108822369Y-45969474D01*
X108800183Y-45976876D01*
X108663893Y-46022346D01*
X108515969Y-46113884D01*
X108510796Y-46119066D01*
X108398242Y-46231816D01*
X108398238Y-46231821D01*
X108393071Y-46236997D01*
X108389231Y-46243227D01*
X108389230Y-46243228D01*
X108306364Y-46377662D01*
X108301791Y-46385080D01*
X108247026Y-46550191D01*
X108246326Y-46557027D01*
X108246325Y-46557030D01*
X108244450Y-46575329D01*
X108236500Y-46652928D01*
X108236500Y-47327072D01*
X107028500Y-47327072D01*
X107028500Y-46652928D01*
X107025238Y-46621486D01*
X107018419Y-46555765D01*
X107018418Y-46555761D01*
X107017707Y-46548907D01*
X107015221Y-46541454D01*
X106964972Y-46390841D01*
X106962654Y-46383893D01*
X106871116Y-46235969D01*
X106837852Y-46202763D01*
X106753184Y-46118242D01*
X106753179Y-46118238D01*
X106748003Y-46113071D01*
X106705121Y-46086638D01*
X106606150Y-46025631D01*
X106606148Y-46025630D01*
X106599920Y-46021791D01*
X106434809Y-45967026D01*
X106427973Y-45966326D01*
X106427970Y-45966325D01*
X106376474Y-45961049D01*
X106332072Y-45956500D01*
X105757928Y-45956500D01*
X105754682Y-45956837D01*
X105754678Y-45956837D01*
X105660765Y-45966581D01*
X105660761Y-45966582D01*
X105653907Y-45967293D01*
X105647371Y-45969474D01*
X105647369Y-45969474D01*
X105625183Y-45976876D01*
X105488893Y-46022346D01*
X105340969Y-46113884D01*
X105335796Y-46119066D01*
X105223242Y-46231816D01*
X105223238Y-46231821D01*
X105218071Y-46236997D01*
X105146258Y-46353500D01*
X105142550Y-46359515D01*
X105093377Y-46402069D01*
X105094508Y-46403981D01*
X105077072Y-46414293D01*
X105059324Y-46422988D01*
X105040483Y-46430448D01*
X105034067Y-46435110D01*
X105034066Y-46435110D01*
X105004713Y-46456436D01*
X104994793Y-46462952D01*
X104961143Y-46482853D01*
X104897003Y-46500400D01*
X104833713Y-46500400D01*
X104827261Y-46501772D01*
X104827256Y-46501772D01*
X104740313Y-46520253D01*
X104646912Y-46540106D01*
X104640882Y-46542791D01*
X104640881Y-46542791D01*
X104478478Y-46615097D01*
X104478476Y-46615098D01*
X104472448Y-46617782D01*
X104317947Y-46730034D01*
X104313526Y-46734944D01*
X104313525Y-46734945D01*
X104211997Y-46847704D01*
X104190160Y-46871956D01*
X104153534Y-46935394D01*
X104104332Y-47020615D01*
X104094673Y-47037344D01*
X104035658Y-47218972D01*
X104034968Y-47225533D01*
X104034968Y-47225535D01*
X104025740Y-47313340D01*
X104015696Y-47408900D01*
X102104427Y-47408900D01*
X102115577Y-47406377D01*
X102119931Y-47404684D01*
X102354824Y-47313340D01*
X102354827Y-47313339D01*
X102359177Y-47311647D01*
X102586098Y-47181951D01*
X102791357Y-47020138D01*
X102970443Y-46829763D01*
X103095373Y-46649678D01*
X103116759Y-46618851D01*
X103116761Y-46618848D01*
X103119424Y-46615009D01*
X103123306Y-46607137D01*
X103232960Y-46384781D01*
X103232961Y-46384778D01*
X103235025Y-46380593D01*
X103243698Y-46353500D01*
X103313280Y-46136123D01*
X103314707Y-46131665D01*
X103356721Y-45873693D01*
X103360142Y-45612345D01*
X103338617Y-45454183D01*
X115504389Y-45454183D01*
X115505912Y-45462607D01*
X115518292Y-45466000D01*
X116567885Y-45466000D01*
X116583124Y-45461525D01*
X116584329Y-45460135D01*
X116586000Y-45452452D01*
X116586000Y-44403102D01*
X116582082Y-44389758D01*
X116567806Y-44387771D01*
X116529324Y-44393660D01*
X116519288Y-44396051D01*
X116316868Y-44462212D01*
X116307359Y-44466209D01*
X116118463Y-44564542D01*
X116109738Y-44570036D01*
X115939433Y-44697905D01*
X115931726Y-44704748D01*
X115784590Y-44858717D01*
X115778104Y-44866727D01*
X115658098Y-45042649D01*
X115653000Y-45051623D01*
X115563338Y-45244783D01*
X115559775Y-45254470D01*
X115504389Y-45454183D01*
X103338617Y-45454183D01*
X103324896Y-45353362D01*
X103310473Y-45303877D01*
X103253068Y-45106932D01*
X103251757Y-45102433D01*
X103239498Y-45075840D01*
X103155030Y-44892617D01*
X103142332Y-44865072D01*
X103078458Y-44767648D01*
X103001590Y-44650404D01*
X103001586Y-44650399D01*
X102999024Y-44646491D01*
X102824982Y-44451494D01*
X102624030Y-44284363D01*
X102422402Y-44162012D01*
X102404578Y-44151196D01*
X102404574Y-44151194D01*
X102400581Y-44148771D01*
X102159545Y-44047697D01*
X101906217Y-43983359D01*
X101901566Y-43982891D01*
X101901562Y-43982890D01*
X101692271Y-43961816D01*
X101689133Y-43961500D01*
X101533646Y-43961500D01*
X101531321Y-43961673D01*
X101531315Y-43961673D01*
X101344000Y-43975593D01*
X101343996Y-43975594D01*
X101339348Y-43975939D01*
X101334800Y-43976968D01*
X101334794Y-43976969D01*
X101148399Y-44019147D01*
X101084423Y-44033623D01*
X101080071Y-44035315D01*
X101080069Y-44035316D01*
X100845176Y-44126660D01*
X100845173Y-44126661D01*
X100840823Y-44128353D01*
X100613902Y-44258049D01*
X100408643Y-44419862D01*
X100229557Y-44610237D01*
X100080576Y-44824991D01*
X100078510Y-44829181D01*
X100078508Y-44829184D01*
X99968814Y-45051623D01*
X99964975Y-45059407D01*
X99963553Y-45063850D01*
X99963552Y-45063852D01*
X99902535Y-45254470D01*
X99885293Y-45308335D01*
X99843279Y-45566307D01*
X99843218Y-45570980D01*
X99840396Y-45786590D01*
X99839858Y-45827655D01*
X97028500Y-45827655D01*
X97028500Y-41963250D01*
X97030246Y-41942345D01*
X97032770Y-41927344D01*
X97032770Y-41927341D01*
X97033576Y-41922552D01*
X97033704Y-41912029D01*
X97054533Y-41844157D01*
X97108750Y-41798320D01*
X97148906Y-41790094D01*
X97148723Y-41788691D01*
X97148724Y-41788691D01*
X97180286Y-41784564D01*
X97196621Y-41783500D01*
X182195633Y-41783500D01*
X182215018Y-41785000D01*
G37*
G04 #@! TD.AperFunction*
G04 #@! TA.AperFunction,Conductor*
G36*
X139896121Y-68346002D02*
G01*
X139942614Y-68399658D01*
X139954000Y-68452000D01*
X139954000Y-71248000D01*
X139933998Y-71316121D01*
X139880342Y-71362614D01*
X139828000Y-71374000D01*
X139572000Y-71374000D01*
X139503879Y-71353998D01*
X139457386Y-71300342D01*
X139446000Y-71248000D01*
X139446000Y-68452000D01*
X139466002Y-68383879D01*
X139519658Y-68337386D01*
X139572000Y-68326000D01*
X139828000Y-68326000D01*
X139896121Y-68346002D01*
G37*
G04 #@! TD.AperFunction*
G04 #@! TA.AperFunction,Conductor*
G36*
X162756121Y-70408802D02*
G01*
X162802614Y-70462458D01*
X162814000Y-70514800D01*
X162814000Y-71248000D01*
X162793998Y-71316121D01*
X162740342Y-71362614D01*
X162688000Y-71374000D01*
X162432000Y-71374000D01*
X162363879Y-71353998D01*
X162317386Y-71300342D01*
X162306000Y-71248000D01*
X162306000Y-70514800D01*
X162326002Y-70446679D01*
X162379658Y-70400186D01*
X162432000Y-70388800D01*
X162688000Y-70388800D01*
X162756121Y-70408802D01*
G37*
G04 #@! TD.AperFunction*
G04 #@! TA.AperFunction,Conductor*
G36*
X162129149Y-62802798D02*
G01*
X162178750Y-62836541D01*
X162234147Y-62898066D01*
X162388648Y-63010318D01*
X162394676Y-63013002D01*
X162394678Y-63013003D01*
X162557081Y-63085309D01*
X162563112Y-63087994D01*
X162656513Y-63107847D01*
X162743456Y-63126328D01*
X162743461Y-63126328D01*
X162749913Y-63127700D01*
X162940887Y-63127700D01*
X162947339Y-63126328D01*
X162947344Y-63126328D01*
X163034287Y-63107847D01*
X163127688Y-63087994D01*
X163133719Y-63085309D01*
X163296122Y-63013003D01*
X163296124Y-63013002D01*
X163302152Y-63010318D01*
X163456653Y-62898066D01*
X163461068Y-62893163D01*
X163465980Y-62888740D01*
X163467105Y-62889989D01*
X163520414Y-62857149D01*
X163553600Y-62852700D01*
X165705200Y-62852700D01*
X165773321Y-62872702D01*
X165819814Y-62926358D01*
X165831200Y-62978700D01*
X165831200Y-67219820D01*
X165811198Y-67287941D01*
X165757542Y-67334434D01*
X165687268Y-67344538D01*
X165658907Y-67336304D01*
X165658789Y-67336638D01*
X165453087Y-67263795D01*
X165453083Y-67263794D01*
X165448212Y-67262069D01*
X165443119Y-67261162D01*
X165443116Y-67261161D01*
X165233373Y-67223800D01*
X165233367Y-67223799D01*
X165228284Y-67222894D01*
X165154452Y-67221992D01*
X165010081Y-67220228D01*
X165010079Y-67220228D01*
X165004911Y-67220165D01*
X164784091Y-67253955D01*
X164571756Y-67323357D01*
X164373607Y-67426507D01*
X164369474Y-67429610D01*
X164369471Y-67429612D01*
X164286450Y-67491946D01*
X164194965Y-67560635D01*
X164040629Y-67722138D01*
X163933204Y-67879618D01*
X163932898Y-67880066D01*
X163877987Y-67925069D01*
X163807462Y-67933240D01*
X163743715Y-67901986D01*
X163723018Y-67877502D01*
X163642426Y-67752926D01*
X163636136Y-67744757D01*
X163492806Y-67587240D01*
X163485273Y-67580215D01*
X163318139Y-67448222D01*
X163309552Y-67442517D01*
X163123117Y-67339599D01*
X163113705Y-67335369D01*
X162912959Y-67264280D01*
X162902988Y-67261646D01*
X162831837Y-67248972D01*
X162818540Y-67250432D01*
X162814000Y-67264989D01*
X162814000Y-68995800D01*
X162793998Y-69063921D01*
X162740342Y-69110414D01*
X162688000Y-69121800D01*
X162432000Y-69121800D01*
X162363879Y-69101798D01*
X162317386Y-69048142D01*
X162306000Y-68995800D01*
X162306000Y-67263102D01*
X162302082Y-67249758D01*
X162287806Y-67247771D01*
X162249324Y-67253660D01*
X162239288Y-67256051D01*
X162036868Y-67322212D01*
X162027359Y-67326209D01*
X161838463Y-67424542D01*
X161829738Y-67430036D01*
X161659433Y-67557905D01*
X161651726Y-67564748D01*
X161574478Y-67645584D01*
X161512954Y-67681014D01*
X161442042Y-67677557D01*
X161384255Y-67636311D01*
X161365402Y-67602763D01*
X161323767Y-67491703D01*
X161320615Y-67483295D01*
X161233261Y-67366739D01*
X161116705Y-67279385D01*
X160980316Y-67228255D01*
X160918134Y-67221500D01*
X159121866Y-67221500D01*
X159059684Y-67228255D01*
X158923295Y-67279385D01*
X158806739Y-67366739D01*
X158796387Y-67380551D01*
X158739531Y-67423068D01*
X158668713Y-67428096D01*
X158606465Y-67394084D01*
X158181505Y-66969124D01*
X158147479Y-66906812D01*
X158144600Y-66880029D01*
X158144600Y-66735371D01*
X158164602Y-66667250D01*
X158181505Y-66646276D01*
X161996022Y-62831759D01*
X162058334Y-62797733D01*
X162129149Y-62802798D01*
G37*
G04 #@! TD.AperFunction*
G04 #@! TA.AperFunction,Conductor*
G36*
X160216121Y-48026002D02*
G01*
X160262614Y-48079658D01*
X160274000Y-48132000D01*
X160274000Y-49578517D01*
X160278064Y-49592359D01*
X160291478Y-49594393D01*
X160298184Y-49593534D01*
X160308262Y-49591392D01*
X160512255Y-49530191D01*
X160521842Y-49526433D01*
X160713095Y-49432739D01*
X160721945Y-49427464D01*
X160895328Y-49303792D01*
X160903200Y-49297139D01*
X161054052Y-49146812D01*
X161060730Y-49138965D01*
X161188022Y-48961819D01*
X161189279Y-48962722D01*
X161236373Y-48919362D01*
X161306311Y-48907145D01*
X161371751Y-48934678D01*
X161399579Y-48966511D01*
X161459987Y-49065088D01*
X161606250Y-49233938D01*
X161641524Y-49263223D01*
X161681159Y-49322125D01*
X161682657Y-49393106D01*
X161650134Y-49449262D01*
X157950672Y-53148723D01*
X157888360Y-53182749D01*
X157817544Y-53177684D01*
X157767944Y-53143942D01*
X157766170Y-53141972D01*
X157759653Y-53134734D01*
X157605152Y-53022482D01*
X157599124Y-53019798D01*
X157599122Y-53019797D01*
X157436719Y-52947491D01*
X157436718Y-52947491D01*
X157430688Y-52944806D01*
X157337288Y-52924953D01*
X157250344Y-52906472D01*
X157250339Y-52906472D01*
X157243887Y-52905100D01*
X157052913Y-52905100D01*
X157046461Y-52906472D01*
X157046456Y-52906472D01*
X156959512Y-52924953D01*
X156866112Y-52944806D01*
X156860082Y-52947491D01*
X156860081Y-52947491D01*
X156697678Y-53019797D01*
X156697676Y-53019798D01*
X156691648Y-53022482D01*
X156537147Y-53134734D01*
X156532726Y-53139644D01*
X156532725Y-53139645D01*
X156524721Y-53148535D01*
X156409360Y-53276656D01*
X156313873Y-53442044D01*
X156254858Y-53623672D01*
X156254168Y-53630233D01*
X156254168Y-53630235D01*
X156237493Y-53788892D01*
X156210480Y-53854549D01*
X156201278Y-53864817D01*
X155852700Y-54213395D01*
X155790388Y-54247421D01*
X155763605Y-54250300D01*
X153414151Y-54250300D01*
X153346030Y-54230298D01*
X153299537Y-54176642D01*
X153289433Y-54106368D01*
X153318927Y-54041788D01*
X153340086Y-54022367D01*
X153356053Y-54010766D01*
X153360475Y-54005855D01*
X153479421Y-53873752D01*
X153479422Y-53873751D01*
X153483840Y-53868844D01*
X153542845Y-53766644D01*
X153576023Y-53709179D01*
X153576024Y-53709178D01*
X153579327Y-53703456D01*
X153638342Y-53521828D01*
X153642245Y-53484698D01*
X153655707Y-53356607D01*
X153682720Y-53290950D01*
X153691922Y-53280682D01*
X156696953Y-50275652D01*
X156705239Y-50268112D01*
X156711718Y-50264000D01*
X156758344Y-50214348D01*
X156761098Y-50211507D01*
X156780835Y-50191770D01*
X156783315Y-50188573D01*
X156791020Y-50179551D01*
X156815859Y-50153100D01*
X156821286Y-50147321D01*
X156825105Y-50140375D01*
X156825107Y-50140372D01*
X156831048Y-50129566D01*
X156841899Y-50113047D01*
X156849458Y-50103301D01*
X156854314Y-50097041D01*
X156857459Y-50089772D01*
X156857462Y-50089768D01*
X156871874Y-50056463D01*
X156877091Y-50045813D01*
X156898395Y-50007060D01*
X156903433Y-49987437D01*
X156909837Y-49968734D01*
X156914733Y-49957420D01*
X156914733Y-49957419D01*
X156917881Y-49950145D01*
X156919120Y-49942322D01*
X156919123Y-49942312D01*
X156924799Y-49906476D01*
X156927205Y-49894856D01*
X156936228Y-49859711D01*
X156936228Y-49859710D01*
X156938200Y-49852030D01*
X156938200Y-49831776D01*
X156939751Y-49812065D01*
X156941680Y-49799886D01*
X156942920Y-49792057D01*
X156938759Y-49748038D01*
X156938200Y-49736181D01*
X156938200Y-49689487D01*
X156958202Y-49621366D01*
X157011858Y-49574873D01*
X157082132Y-49564769D01*
X157096878Y-49567955D01*
X157099692Y-49569030D01*
X157318597Y-49613567D01*
X157323772Y-49613757D01*
X157323774Y-49613757D01*
X157536673Y-49621564D01*
X157536677Y-49621564D01*
X157541837Y-49621753D01*
X157546957Y-49621097D01*
X157546959Y-49621097D01*
X157758288Y-49594025D01*
X157758289Y-49594025D01*
X157763416Y-49593368D01*
X157768366Y-49591883D01*
X157972429Y-49530661D01*
X157972434Y-49530659D01*
X157977384Y-49529174D01*
X158177994Y-49430896D01*
X158359860Y-49301173D01*
X158518096Y-49143489D01*
X158577594Y-49060689D01*
X158648453Y-48962077D01*
X158649640Y-48962930D01*
X158696960Y-48919362D01*
X158766897Y-48907145D01*
X158832338Y-48934678D01*
X158860166Y-48966511D01*
X158917694Y-49060388D01*
X158923777Y-49068699D01*
X159063213Y-49229667D01*
X159070580Y-49236883D01*
X159234434Y-49372916D01*
X159242881Y-49378831D01*
X159426756Y-49486279D01*
X159436042Y-49490729D01*
X159635001Y-49566703D01*
X159644899Y-49569579D01*
X159748250Y-49590606D01*
X159762299Y-49589410D01*
X159766000Y-49579065D01*
X159766000Y-48132000D01*
X159786002Y-48063879D01*
X159839658Y-48017386D01*
X159892000Y-48006000D01*
X160148000Y-48006000D01*
X160216121Y-48026002D01*
G37*
G04 #@! TD.AperFunction*
G04 #@! TA.AperFunction,Conductor*
G36*
X142436121Y-48026002D02*
G01*
X142482614Y-48079658D01*
X142494000Y-48132000D01*
X142494000Y-49578517D01*
X142498064Y-49592359D01*
X142511478Y-49594393D01*
X142518184Y-49593534D01*
X142528262Y-49591392D01*
X142732255Y-49530191D01*
X142741842Y-49526433D01*
X142933095Y-49432739D01*
X142941945Y-49427464D01*
X143115328Y-49303792D01*
X143123200Y-49297139D01*
X143274052Y-49146812D01*
X143280730Y-49138965D01*
X143408022Y-48961819D01*
X143409279Y-48962722D01*
X143456373Y-48919362D01*
X143526311Y-48907145D01*
X143591751Y-48934678D01*
X143619579Y-48966511D01*
X143679987Y-49065088D01*
X143826250Y-49233938D01*
X143998126Y-49376632D01*
X144191000Y-49489338D01*
X144195825Y-49491180D01*
X144195826Y-49491181D01*
X144227856Y-49503412D01*
X144399692Y-49569030D01*
X144404760Y-49570061D01*
X144404763Y-49570062D01*
X144499862Y-49589410D01*
X144618597Y-49613567D01*
X144623772Y-49613757D01*
X144623774Y-49613757D01*
X144836673Y-49621564D01*
X144836677Y-49621564D01*
X144841837Y-49621753D01*
X144846957Y-49621097D01*
X144846959Y-49621097D01*
X145058288Y-49594025D01*
X145058289Y-49594025D01*
X145063416Y-49593368D01*
X145068366Y-49591883D01*
X145272429Y-49530661D01*
X145272434Y-49530659D01*
X145277384Y-49529174D01*
X145477994Y-49430896D01*
X145659860Y-49301173D01*
X145818096Y-49143489D01*
X145877594Y-49060689D01*
X145948453Y-48962077D01*
X145949776Y-48963028D01*
X145996645Y-48919857D01*
X146066580Y-48907625D01*
X146132026Y-48935144D01*
X146159875Y-48966994D01*
X146219987Y-49065088D01*
X146366250Y-49233938D01*
X146538126Y-49376632D01*
X146731000Y-49489338D01*
X146735825Y-49491180D01*
X146735826Y-49491181D01*
X146767856Y-49503412D01*
X146939692Y-49569030D01*
X146944760Y-49570061D01*
X146944763Y-49570062D01*
X147039862Y-49589410D01*
X147158597Y-49613567D01*
X147163772Y-49613757D01*
X147163774Y-49613757D01*
X147376673Y-49621564D01*
X147376677Y-49621564D01*
X147381837Y-49621753D01*
X147386957Y-49621097D01*
X147386959Y-49621097D01*
X147598288Y-49594025D01*
X147598289Y-49594025D01*
X147603416Y-49593368D01*
X147608366Y-49591883D01*
X147812429Y-49530661D01*
X147812434Y-49530659D01*
X147817384Y-49529174D01*
X148017994Y-49430896D01*
X148199860Y-49301173D01*
X148358096Y-49143489D01*
X148417594Y-49060689D01*
X148488453Y-48962077D01*
X148489640Y-48962930D01*
X148536960Y-48919362D01*
X148606897Y-48907145D01*
X148672338Y-48934678D01*
X148700166Y-48966511D01*
X148757694Y-49060388D01*
X148763777Y-49068699D01*
X148903213Y-49229667D01*
X148910580Y-49236883D01*
X149074434Y-49372916D01*
X149082881Y-49378831D01*
X149266756Y-49486279D01*
X149276042Y-49490729D01*
X149475001Y-49566703D01*
X149484899Y-49569579D01*
X149588250Y-49590606D01*
X149602299Y-49589410D01*
X149606000Y-49579065D01*
X149606000Y-48132000D01*
X149626002Y-48063879D01*
X149679658Y-48017386D01*
X149732000Y-48006000D01*
X149988000Y-48006000D01*
X150056121Y-48026002D01*
X150102614Y-48079658D01*
X150114000Y-48132000D01*
X150114000Y-49578517D01*
X150118064Y-49592359D01*
X150131478Y-49594393D01*
X150138184Y-49593534D01*
X150148262Y-49591392D01*
X150352255Y-49530191D01*
X150361842Y-49526433D01*
X150553095Y-49432739D01*
X150561945Y-49427464D01*
X150735328Y-49303792D01*
X150743200Y-49297139D01*
X150894052Y-49146812D01*
X150900730Y-49138965D01*
X151028022Y-48961819D01*
X151029279Y-48962722D01*
X151076373Y-48919362D01*
X151146311Y-48907145D01*
X151211751Y-48934678D01*
X151239579Y-48966511D01*
X151299987Y-49065088D01*
X151446250Y-49233938D01*
X151618126Y-49376632D01*
X151811000Y-49489338D01*
X151815825Y-49491180D01*
X151815826Y-49491181D01*
X151847856Y-49503412D01*
X152019692Y-49569030D01*
X152024760Y-49570061D01*
X152024763Y-49570062D01*
X152119862Y-49589410D01*
X152238597Y-49613567D01*
X152243772Y-49613757D01*
X152243774Y-49613757D01*
X152456673Y-49621564D01*
X152456677Y-49621564D01*
X152461837Y-49621753D01*
X152466957Y-49621097D01*
X152466959Y-49621097D01*
X152678288Y-49594025D01*
X152678289Y-49594025D01*
X152683416Y-49593368D01*
X152688366Y-49591883D01*
X152892429Y-49530661D01*
X152892434Y-49530659D01*
X152897384Y-49529174D01*
X153097994Y-49430896D01*
X153279860Y-49301173D01*
X153438096Y-49143489D01*
X153497594Y-49060689D01*
X153568453Y-48962077D01*
X153569776Y-48963028D01*
X153616645Y-48919857D01*
X153686580Y-48907625D01*
X153752026Y-48935144D01*
X153779875Y-48966994D01*
X153839987Y-49065088D01*
X153986250Y-49233938D01*
X154158126Y-49376632D01*
X154351000Y-49489338D01*
X154355825Y-49491180D01*
X154355826Y-49491181D01*
X154387856Y-49503412D01*
X154559692Y-49569030D01*
X154564760Y-49570061D01*
X154564763Y-49570062D01*
X154659862Y-49589410D01*
X154778597Y-49613567D01*
X154783772Y-49613757D01*
X154783774Y-49613757D01*
X154996673Y-49621564D01*
X154996677Y-49621564D01*
X155001837Y-49621753D01*
X155006957Y-49621097D01*
X155006959Y-49621097D01*
X155218288Y-49594025D01*
X155218289Y-49594025D01*
X155223416Y-49593368D01*
X155228361Y-49591884D01*
X155228377Y-49591881D01*
X155264743Y-49580970D01*
X155335738Y-49580552D01*
X155395689Y-49618584D01*
X155425561Y-49682991D01*
X155415870Y-49753323D01*
X155390046Y-49790750D01*
X153095490Y-52085306D01*
X152794300Y-52386495D01*
X152731988Y-52420521D01*
X152705205Y-52423400D01*
X152649313Y-52423400D01*
X152642861Y-52424772D01*
X152642856Y-52424772D01*
X152555912Y-52443253D01*
X152462512Y-52463106D01*
X152456482Y-52465791D01*
X152456481Y-52465791D01*
X152294078Y-52538097D01*
X152294076Y-52538098D01*
X152288048Y-52540782D01*
X152133547Y-52653034D01*
X152005760Y-52794956D01*
X151910273Y-52960344D01*
X151851258Y-53141972D01*
X151850568Y-53148533D01*
X151850568Y-53148535D01*
X151837864Y-53269406D01*
X151831296Y-53331900D01*
X151831986Y-53338465D01*
X151847356Y-53484698D01*
X151851258Y-53521828D01*
X151910273Y-53703456D01*
X151913576Y-53709178D01*
X151913577Y-53709179D01*
X151946755Y-53766644D01*
X152005760Y-53868844D01*
X152010178Y-53873751D01*
X152010179Y-53873752D01*
X152129125Y-54005855D01*
X152133547Y-54010766D01*
X152149512Y-54022365D01*
X152192864Y-54078587D01*
X152198939Y-54149323D01*
X152165807Y-54212115D01*
X152103987Y-54247026D01*
X152075449Y-54250300D01*
X148041337Y-54250300D01*
X147973216Y-54230298D01*
X147926723Y-54176642D01*
X147916027Y-54137470D01*
X147896832Y-53954835D01*
X147896832Y-53954833D01*
X147896142Y-53948272D01*
X147837127Y-53766644D01*
X147803950Y-53709179D01*
X147744941Y-53606974D01*
X147741640Y-53601256D01*
X147664214Y-53515265D01*
X147618275Y-53464245D01*
X147618274Y-53464244D01*
X147613853Y-53459334D01*
X147459352Y-53347082D01*
X147453324Y-53344398D01*
X147453322Y-53344397D01*
X147290919Y-53272091D01*
X147290918Y-53272091D01*
X147284888Y-53269406D01*
X147191487Y-53249553D01*
X147104544Y-53231072D01*
X147104539Y-53231072D01*
X147098087Y-53229700D01*
X146907113Y-53229700D01*
X146900661Y-53231072D01*
X146900656Y-53231072D01*
X146813712Y-53249553D01*
X146720312Y-53269406D01*
X146714282Y-53272091D01*
X146714281Y-53272091D01*
X146551878Y-53344397D01*
X146551876Y-53344398D01*
X146545848Y-53347082D01*
X146391347Y-53459334D01*
X146386932Y-53464237D01*
X146382020Y-53468660D01*
X146380895Y-53467411D01*
X146327586Y-53500251D01*
X146294400Y-53504700D01*
X144160694Y-53504700D01*
X144092573Y-53484698D01*
X144071599Y-53467795D01*
X140278832Y-49675027D01*
X140244806Y-49612715D01*
X140249871Y-49541899D01*
X140292418Y-49485064D01*
X140312482Y-49472788D01*
X140397994Y-49430896D01*
X140579860Y-49301173D01*
X140738096Y-49143489D01*
X140797594Y-49060689D01*
X140868453Y-48962077D01*
X140869640Y-48962930D01*
X140916960Y-48919362D01*
X140986897Y-48907145D01*
X141052338Y-48934678D01*
X141080166Y-48966511D01*
X141137694Y-49060388D01*
X141143777Y-49068699D01*
X141283213Y-49229667D01*
X141290580Y-49236883D01*
X141454434Y-49372916D01*
X141462881Y-49378831D01*
X141646756Y-49486279D01*
X141656042Y-49490729D01*
X141855001Y-49566703D01*
X141864899Y-49569579D01*
X141968250Y-49590606D01*
X141982299Y-49589410D01*
X141986000Y-49579065D01*
X141986000Y-48132000D01*
X142006002Y-48063879D01*
X142059658Y-48017386D01*
X142112000Y-48006000D01*
X142368000Y-48006000D01*
X142436121Y-48026002D01*
G37*
G04 #@! TD.AperFunction*
G04 #@! TA.AperFunction,Conductor*
G36*
X125811751Y-48934678D02*
G01*
X125839579Y-48966511D01*
X125899987Y-49065088D01*
X126046250Y-49233938D01*
X126218126Y-49376632D01*
X126305882Y-49427912D01*
X126354606Y-49479550D01*
X126367677Y-49549333D01*
X126340946Y-49615105D01*
X126282899Y-49655984D01*
X126242312Y-49662700D01*
X125224772Y-49662700D01*
X125156651Y-49642698D01*
X125110158Y-49589042D01*
X125100054Y-49518768D01*
X125129548Y-49454188D01*
X125157788Y-49430537D01*
X125157737Y-49430465D01*
X125158661Y-49429806D01*
X125160255Y-49428471D01*
X125161944Y-49427464D01*
X125335328Y-49303792D01*
X125343200Y-49297139D01*
X125494052Y-49146812D01*
X125500730Y-49138965D01*
X125628022Y-48961819D01*
X125629279Y-48962722D01*
X125676373Y-48919362D01*
X125746311Y-48907145D01*
X125811751Y-48934678D01*
G37*
G04 #@! TD.AperFunction*
G04 #@! TA.AperFunction,Conductor*
G36*
X148672026Y-46395144D02*
G01*
X148699875Y-46426994D01*
X148759987Y-46525088D01*
X148906250Y-46693938D01*
X149078126Y-46836632D01*
X149097074Y-46847704D01*
X149151955Y-46879774D01*
X149200679Y-46931412D01*
X149213750Y-47001195D01*
X149187019Y-47066967D01*
X149146562Y-47100327D01*
X149138457Y-47104546D01*
X149129738Y-47110036D01*
X148959433Y-47237905D01*
X148951726Y-47244748D01*
X148804590Y-47398717D01*
X148798109Y-47406722D01*
X148693498Y-47560074D01*
X148638587Y-47605076D01*
X148568062Y-47613247D01*
X148504315Y-47581993D01*
X148483618Y-47557509D01*
X148402822Y-47432617D01*
X148402820Y-47432614D01*
X148400014Y-47428277D01*
X148249670Y-47263051D01*
X148245619Y-47259852D01*
X148245615Y-47259848D01*
X148078414Y-47127800D01*
X148078410Y-47127798D01*
X148074359Y-47124598D01*
X148033053Y-47101796D01*
X147983084Y-47051364D01*
X147968312Y-46981921D01*
X147993428Y-46915516D01*
X148020780Y-46888909D01*
X148078547Y-46847704D01*
X148199860Y-46761173D01*
X148358096Y-46603489D01*
X148396956Y-46549410D01*
X148488453Y-46422077D01*
X148489776Y-46423028D01*
X148536645Y-46379857D01*
X148606580Y-46367625D01*
X148672026Y-46395144D01*
G37*
G04 #@! TD.AperFunction*
G04 #@! TA.AperFunction,Conductor*
G36*
X151212026Y-46395144D02*
G01*
X151239875Y-46426994D01*
X151299987Y-46525088D01*
X151446250Y-46693938D01*
X151618126Y-46836632D01*
X151637074Y-46847704D01*
X151691445Y-46879476D01*
X151740169Y-46931114D01*
X151753240Y-47000897D01*
X151726509Y-47066669D01*
X151686055Y-47100027D01*
X151673607Y-47106507D01*
X151669474Y-47109610D01*
X151669471Y-47109612D01*
X151523817Y-47218972D01*
X151494965Y-47240635D01*
X151429346Y-47309301D01*
X151348930Y-47393452D01*
X151340629Y-47402138D01*
X151233204Y-47559618D01*
X151232898Y-47560066D01*
X151177987Y-47605069D01*
X151107462Y-47613240D01*
X151043715Y-47581986D01*
X151023018Y-47557502D01*
X150942426Y-47432926D01*
X150936136Y-47424757D01*
X150792806Y-47267240D01*
X150785273Y-47260215D01*
X150618139Y-47128222D01*
X150609556Y-47122520D01*
X150572602Y-47102120D01*
X150522631Y-47051687D01*
X150507859Y-46982245D01*
X150532975Y-46915839D01*
X150560327Y-46889232D01*
X150618547Y-46847704D01*
X150739860Y-46761173D01*
X150898096Y-46603489D01*
X150936956Y-46549410D01*
X151028453Y-46422077D01*
X151029776Y-46423028D01*
X151076645Y-46379857D01*
X151146580Y-46367625D01*
X151212026Y-46395144D01*
G37*
G04 #@! TD.AperFunction*
G04 #@! TA.AperFunction,Conductor*
G36*
X130892026Y-46395144D02*
G01*
X130919875Y-46426994D01*
X130979987Y-46525088D01*
X131126250Y-46693938D01*
X131298126Y-46836632D01*
X131317074Y-46847704D01*
X131371445Y-46879476D01*
X131420169Y-46931114D01*
X131433240Y-47000897D01*
X131406509Y-47066669D01*
X131366055Y-47100027D01*
X131353607Y-47106507D01*
X131349474Y-47109610D01*
X131349471Y-47109612D01*
X131203817Y-47218972D01*
X131174965Y-47240635D01*
X131109346Y-47309301D01*
X131028930Y-47393452D01*
X131020629Y-47402138D01*
X130913204Y-47559618D01*
X130912898Y-47560066D01*
X130857987Y-47605069D01*
X130787462Y-47613240D01*
X130723715Y-47581986D01*
X130703018Y-47557502D01*
X130622426Y-47432926D01*
X130616136Y-47424757D01*
X130472806Y-47267240D01*
X130465273Y-47260215D01*
X130298139Y-47128222D01*
X130289556Y-47122520D01*
X130252602Y-47102120D01*
X130202631Y-47051687D01*
X130187859Y-46982245D01*
X130212975Y-46915839D01*
X130240327Y-46889232D01*
X130298547Y-46847704D01*
X130419860Y-46761173D01*
X130578096Y-46603489D01*
X130616956Y-46549410D01*
X130708453Y-46422077D01*
X130709776Y-46423028D01*
X130756645Y-46379857D01*
X130826580Y-46367625D01*
X130892026Y-46395144D01*
G37*
G04 #@! TD.AperFunction*
G04 #@! TA.AperFunction,Conductor*
G36*
X118191751Y-46394678D02*
G01*
X118219579Y-46426511D01*
X118231885Y-46446593D01*
X118279987Y-46525088D01*
X118426250Y-46693938D01*
X118598126Y-46836632D01*
X118617074Y-46847704D01*
X118671445Y-46879476D01*
X118720169Y-46931114D01*
X118733240Y-47000897D01*
X118706509Y-47066669D01*
X118666055Y-47100027D01*
X118653607Y-47106507D01*
X118649474Y-47109610D01*
X118649471Y-47109612D01*
X118503817Y-47218972D01*
X118474965Y-47240635D01*
X118409346Y-47309301D01*
X118328930Y-47393452D01*
X118320629Y-47402138D01*
X118213201Y-47559621D01*
X118158293Y-47604621D01*
X118087768Y-47612792D01*
X118024021Y-47581538D01*
X118003324Y-47557054D01*
X117922822Y-47432617D01*
X117922820Y-47432614D01*
X117920014Y-47428277D01*
X117769670Y-47263051D01*
X117765619Y-47259852D01*
X117765615Y-47259848D01*
X117598414Y-47127800D01*
X117598410Y-47127798D01*
X117594359Y-47124598D01*
X117589829Y-47122097D01*
X117561587Y-47106507D01*
X117552569Y-47101529D01*
X117502598Y-47051097D01*
X117487826Y-46981654D01*
X117512942Y-46915248D01*
X117540294Y-46888641D01*
X117715328Y-46763792D01*
X117723200Y-46757139D01*
X117874052Y-46606812D01*
X117880730Y-46598965D01*
X118008022Y-46421819D01*
X118009279Y-46422722D01*
X118056373Y-46379362D01*
X118126311Y-46367145D01*
X118191751Y-46394678D01*
G37*
G04 #@! TD.AperFunction*
M02*
