G04 #@! TF.GenerationSoftware,KiCad,Pcbnew,6.0.9-8da3e8f707~116~ubuntu20.04.1*
G04 #@! TF.CreationDate,2023-03-05T21:16:07+01:00*
G04 #@! TF.ProjectId,pi4_pmod,7069345f-706d-46f6-942e-6b696361645f,rev?*
G04 #@! TF.SameCoordinates,Original*
G04 #@! TF.FileFunction,Legend,Top*
G04 #@! TF.FilePolarity,Positive*
%FSLAX46Y46*%
G04 Gerber Fmt 4.6, Leading zero omitted, Abs format (unit mm)*
G04 Created by KiCad (PCBNEW 6.0.9-8da3e8f707~116~ubuntu20.04.1) date 2023-03-05 21:16:07*
%MOMM*%
%LPD*%
G01*
G04 APERTURE LIST*
G04 Aperture macros list*
%AMRoundRect*
0 Rectangle with rounded corners*
0 $1 Rounding radius*
0 $2 $3 $4 $5 $6 $7 $8 $9 X,Y pos of 4 corners*
0 Add a 4 corners polygon primitive as box body*
4,1,4,$2,$3,$4,$5,$6,$7,$8,$9,$2,$3,0*
0 Add four circle primitives for the rounded corners*
1,1,$1+$1,$2,$3*
1,1,$1+$1,$4,$5*
1,1,$1+$1,$6,$7*
1,1,$1+$1,$8,$9*
0 Add four rect primitives between the rounded corners*
20,1,$1+$1,$2,$3,$4,$5,0*
20,1,$1+$1,$4,$5,$6,$7,0*
20,1,$1+$1,$6,$7,$8,$9,0*
20,1,$1+$1,$8,$9,$2,$3,0*%
G04 Aperture macros list end*
%ADD10C,0.125000*%
%ADD11C,0.150000*%
%ADD12C,0.120000*%
%ADD13R,1.700000X1.700000*%
%ADD14O,1.700000X1.700000*%
%ADD15RoundRect,0.237500X0.237500X-0.287500X0.237500X0.287500X-0.237500X0.287500X-0.237500X-0.287500X0*%
%ADD16C,2.500000*%
G04 APERTURE END LIST*
D10*
X172559285Y-66320750D02*
X173166428Y-66320750D01*
X173237857Y-66349321D01*
X173273571Y-66377892D01*
X173309285Y-66435035D01*
X173309285Y-66520750D01*
X173273571Y-66577892D01*
X173023571Y-66320750D02*
X173059285Y-66377892D01*
X173059285Y-66492178D01*
X173023571Y-66549321D01*
X172987857Y-66577892D01*
X172916428Y-66606464D01*
X172702142Y-66606464D01*
X172630714Y-66577892D01*
X172595000Y-66549321D01*
X172559285Y-66492178D01*
X172559285Y-66377892D01*
X172595000Y-66320750D01*
X173059285Y-65720750D02*
X173059285Y-66063607D01*
X173059285Y-65892178D02*
X172309285Y-65892178D01*
X172416428Y-65949321D01*
X172487857Y-66006464D01*
X172523571Y-66063607D01*
X172630714Y-65377892D02*
X172595000Y-65435035D01*
X172559285Y-65463607D01*
X172487857Y-65492178D01*
X172452142Y-65492178D01*
X172380714Y-65463607D01*
X172345000Y-65435035D01*
X172309285Y-65377892D01*
X172309285Y-65263607D01*
X172345000Y-65206464D01*
X172380714Y-65177892D01*
X172452142Y-65149321D01*
X172487857Y-65149321D01*
X172559285Y-65177892D01*
X172595000Y-65206464D01*
X172630714Y-65263607D01*
X172630714Y-65377892D01*
X172666428Y-65435035D01*
X172702142Y-65463607D01*
X172773571Y-65492178D01*
X172916428Y-65492178D01*
X172987857Y-65463607D01*
X173023571Y-65435035D01*
X173059285Y-65377892D01*
X173059285Y-65263607D01*
X173023571Y-65206464D01*
X172987857Y-65177892D01*
X172916428Y-65149321D01*
X172773571Y-65149321D01*
X172702142Y-65177892D01*
X172666428Y-65206464D01*
X172630714Y-65263607D01*
X173023571Y-64177892D02*
X173059285Y-64235035D01*
X173059285Y-64349321D01*
X173023571Y-64406464D01*
X172987857Y-64435035D01*
X172916428Y-64463607D01*
X172702142Y-64463607D01*
X172630714Y-64435035D01*
X172595000Y-64406464D01*
X172559285Y-64349321D01*
X172559285Y-64235035D01*
X172595000Y-64177892D01*
X173023571Y-63949321D02*
X173059285Y-63892178D01*
X173059285Y-63777892D01*
X173023571Y-63720750D01*
X172952142Y-63692178D01*
X172916428Y-63692178D01*
X172845000Y-63720750D01*
X172809285Y-63777892D01*
X172809285Y-63863607D01*
X172773571Y-63920750D01*
X172702142Y-63949321D01*
X172666428Y-63949321D01*
X172595000Y-63920750D01*
X172559285Y-63863607D01*
X172559285Y-63777892D01*
X172595000Y-63720750D01*
X173059285Y-63120750D02*
X173059285Y-63463607D01*
X173059285Y-63292178D02*
X172309285Y-63292178D01*
X172416428Y-63349321D01*
X172487857Y-63406464D01*
X172523571Y-63463607D01*
X170019285Y-66320750D02*
X170626428Y-66320750D01*
X170697857Y-66349321D01*
X170733571Y-66377892D01*
X170769285Y-66435035D01*
X170769285Y-66520750D01*
X170733571Y-66577892D01*
X170483571Y-66320750D02*
X170519285Y-66377892D01*
X170519285Y-66492178D01*
X170483571Y-66549321D01*
X170447857Y-66577892D01*
X170376428Y-66606464D01*
X170162142Y-66606464D01*
X170090714Y-66577892D01*
X170055000Y-66549321D01*
X170019285Y-66492178D01*
X170019285Y-66377892D01*
X170055000Y-66320750D01*
X170519285Y-65720750D02*
X170519285Y-66063607D01*
X170519285Y-65892178D02*
X169769285Y-65892178D01*
X169876428Y-65949321D01*
X169947857Y-66006464D01*
X169983571Y-66063607D01*
X169840714Y-65492178D02*
X169805000Y-65463607D01*
X169769285Y-65406464D01*
X169769285Y-65263607D01*
X169805000Y-65206464D01*
X169840714Y-65177892D01*
X169912142Y-65149321D01*
X169983571Y-65149321D01*
X170090714Y-65177892D01*
X170519285Y-65520750D01*
X170519285Y-65149321D01*
X170519285Y-64435035D02*
X170019285Y-64435035D01*
X170090714Y-64435035D02*
X170055000Y-64406464D01*
X170019285Y-64349321D01*
X170019285Y-64263607D01*
X170055000Y-64206464D01*
X170126428Y-64177892D01*
X170519285Y-64177892D01*
X170126428Y-64177892D02*
X170055000Y-64149321D01*
X170019285Y-64092178D01*
X170019285Y-64006464D01*
X170055000Y-63949321D01*
X170126428Y-63920750D01*
X170519285Y-63920750D01*
X170519285Y-63549321D02*
X170483571Y-63606464D01*
X170447857Y-63635035D01*
X170376428Y-63663607D01*
X170162142Y-63663607D01*
X170090714Y-63635035D01*
X170055000Y-63606464D01*
X170019285Y-63549321D01*
X170019285Y-63463607D01*
X170055000Y-63406464D01*
X170090714Y-63377892D01*
X170162142Y-63349321D01*
X170376428Y-63349321D01*
X170447857Y-63377892D01*
X170483571Y-63406464D01*
X170519285Y-63463607D01*
X170519285Y-63549321D01*
X170483571Y-63120750D02*
X170519285Y-63063607D01*
X170519285Y-62949321D01*
X170483571Y-62892178D01*
X170412142Y-62863607D01*
X170376428Y-62863607D01*
X170305000Y-62892178D01*
X170269285Y-62949321D01*
X170269285Y-63035035D01*
X170233571Y-63092178D01*
X170162142Y-63120750D01*
X170126428Y-63120750D01*
X170055000Y-63092178D01*
X170019285Y-63035035D01*
X170019285Y-62949321D01*
X170055000Y-62892178D01*
X170519285Y-62606464D02*
X170019285Y-62606464D01*
X169769285Y-62606464D02*
X169805000Y-62635035D01*
X169840714Y-62606464D01*
X169805000Y-62577892D01*
X169769285Y-62606464D01*
X169840714Y-62606464D01*
X167943571Y-66606464D02*
X167979285Y-66549321D01*
X167979285Y-66435035D01*
X167943571Y-66377892D01*
X167872142Y-66349321D01*
X167836428Y-66349321D01*
X167765000Y-66377892D01*
X167729285Y-66435035D01*
X167729285Y-66520750D01*
X167693571Y-66577892D01*
X167622142Y-66606464D01*
X167586428Y-66606464D01*
X167515000Y-66577892D01*
X167479285Y-66520750D01*
X167479285Y-66435035D01*
X167515000Y-66377892D01*
X167943571Y-65835035D02*
X167979285Y-65892178D01*
X167979285Y-66006464D01*
X167943571Y-66063607D01*
X167907857Y-66092178D01*
X167836428Y-66120750D01*
X167622142Y-66120750D01*
X167550714Y-66092178D01*
X167515000Y-66063607D01*
X167479285Y-66006464D01*
X167479285Y-65892178D01*
X167515000Y-65835035D01*
X167979285Y-65492178D02*
X167943571Y-65549321D01*
X167872142Y-65577892D01*
X167229285Y-65577892D01*
X167979285Y-64949321D02*
X167979285Y-65292178D01*
X167979285Y-65120750D02*
X167229285Y-65120750D01*
X167336428Y-65177892D01*
X167407857Y-65235035D01*
X167443571Y-65292178D01*
X167979285Y-64235035D02*
X167479285Y-64235035D01*
X167550714Y-64235035D02*
X167515000Y-64206464D01*
X167479285Y-64149321D01*
X167479285Y-64063607D01*
X167515000Y-64006464D01*
X167586428Y-63977892D01*
X167979285Y-63977892D01*
X167586428Y-63977892D02*
X167515000Y-63949321D01*
X167479285Y-63892178D01*
X167479285Y-63806464D01*
X167515000Y-63749321D01*
X167586428Y-63720750D01*
X167979285Y-63720750D01*
X167979285Y-63435035D02*
X167479285Y-63435035D01*
X167229285Y-63435035D02*
X167265000Y-63463607D01*
X167300714Y-63435035D01*
X167265000Y-63406464D01*
X167229285Y-63435035D01*
X167300714Y-63435035D01*
X167943571Y-63177892D02*
X167979285Y-63120750D01*
X167979285Y-63006464D01*
X167943571Y-62949321D01*
X167872142Y-62920750D01*
X167836428Y-62920750D01*
X167765000Y-62949321D01*
X167729285Y-63006464D01*
X167729285Y-63092178D01*
X167693571Y-63149321D01*
X167622142Y-63177892D01*
X167586428Y-63177892D01*
X167515000Y-63149321D01*
X167479285Y-63092178D01*
X167479285Y-63006464D01*
X167515000Y-62949321D01*
X167979285Y-62577892D02*
X167943571Y-62635035D01*
X167907857Y-62663607D01*
X167836428Y-62692178D01*
X167622142Y-62692178D01*
X167550714Y-62663607D01*
X167515000Y-62635035D01*
X167479285Y-62577892D01*
X167479285Y-62492178D01*
X167515000Y-62435035D01*
X167550714Y-62406464D01*
X167622142Y-62377892D01*
X167836428Y-62377892D01*
X167907857Y-62406464D01*
X167943571Y-62435035D01*
X167979285Y-62492178D01*
X167979285Y-62577892D01*
X165403571Y-66606464D02*
X165439285Y-66549321D01*
X165439285Y-66435035D01*
X165403571Y-66377892D01*
X165332142Y-66349321D01*
X165296428Y-66349321D01*
X165225000Y-66377892D01*
X165189285Y-66435035D01*
X165189285Y-66520750D01*
X165153571Y-66577892D01*
X165082142Y-66606464D01*
X165046428Y-66606464D01*
X164975000Y-66577892D01*
X164939285Y-66520750D01*
X164939285Y-66435035D01*
X164975000Y-66377892D01*
X165439285Y-65835035D02*
X164689285Y-65835035D01*
X165403571Y-65835035D02*
X165439285Y-65892178D01*
X165439285Y-66006464D01*
X165403571Y-66063607D01*
X165367857Y-66092178D01*
X165296428Y-66120750D01*
X165082142Y-66120750D01*
X165010714Y-66092178D01*
X164975000Y-66063607D01*
X164939285Y-66006464D01*
X164939285Y-65892178D01*
X164975000Y-65835035D01*
X165439285Y-65292178D02*
X165046428Y-65292178D01*
X164975000Y-65320750D01*
X164939285Y-65377892D01*
X164939285Y-65492178D01*
X164975000Y-65549321D01*
X165403571Y-65292178D02*
X165439285Y-65349321D01*
X165439285Y-65492178D01*
X165403571Y-65549321D01*
X165332142Y-65577892D01*
X165260714Y-65577892D01*
X165189285Y-65549321D01*
X165153571Y-65492178D01*
X165153571Y-65349321D01*
X165117857Y-65292178D01*
X165439285Y-64692178D02*
X165439285Y-65035035D01*
X165439285Y-64863607D02*
X164689285Y-64863607D01*
X164796428Y-64920750D01*
X164867857Y-64977892D01*
X164903571Y-65035035D01*
X165403571Y-64006464D02*
X165439285Y-63949321D01*
X165439285Y-63835035D01*
X165403571Y-63777892D01*
X165332142Y-63749321D01*
X165296428Y-63749321D01*
X165225000Y-63777892D01*
X165189285Y-63835035D01*
X165189285Y-63920750D01*
X165153571Y-63977892D01*
X165082142Y-64006464D01*
X165046428Y-64006464D01*
X164975000Y-63977892D01*
X164939285Y-63920750D01*
X164939285Y-63835035D01*
X164975000Y-63777892D01*
X165403571Y-63235035D02*
X165439285Y-63292178D01*
X165439285Y-63406464D01*
X165403571Y-63463607D01*
X165367857Y-63492178D01*
X165296428Y-63520750D01*
X165082142Y-63520750D01*
X165010714Y-63492178D01*
X164975000Y-63463607D01*
X164939285Y-63406464D01*
X164939285Y-63292178D01*
X164975000Y-63235035D01*
X165439285Y-62977892D02*
X164689285Y-62977892D01*
X165153571Y-62920750D02*
X165439285Y-62749321D01*
X164939285Y-62749321D02*
X165225000Y-62977892D01*
X162399285Y-66320750D02*
X163006428Y-66320750D01*
X163077857Y-66349321D01*
X163113571Y-66377892D01*
X163149285Y-66435035D01*
X163149285Y-66520750D01*
X163113571Y-66577892D01*
X162863571Y-66320750D02*
X162899285Y-66377892D01*
X162899285Y-66492178D01*
X162863571Y-66549321D01*
X162827857Y-66577892D01*
X162756428Y-66606464D01*
X162542142Y-66606464D01*
X162470714Y-66577892D01*
X162435000Y-66549321D01*
X162399285Y-66492178D01*
X162399285Y-66377892D01*
X162435000Y-66320750D01*
X162399285Y-66035035D02*
X162899285Y-66035035D01*
X162470714Y-66035035D02*
X162435000Y-66006464D01*
X162399285Y-65949321D01*
X162399285Y-65863607D01*
X162435000Y-65806464D01*
X162506428Y-65777892D01*
X162899285Y-65777892D01*
X162899285Y-65235035D02*
X162149285Y-65235035D01*
X162863571Y-65235035D02*
X162899285Y-65292178D01*
X162899285Y-65406464D01*
X162863571Y-65463607D01*
X162827857Y-65492178D01*
X162756428Y-65520750D01*
X162542142Y-65520750D01*
X162470714Y-65492178D01*
X162435000Y-65463607D01*
X162399285Y-65406464D01*
X162399285Y-65292178D01*
X162435000Y-65235035D01*
X160073571Y-66577892D02*
X160073571Y-66120750D01*
X160359285Y-66349321D02*
X159787857Y-66349321D01*
X159609285Y-65892178D02*
X159609285Y-65520750D01*
X159895000Y-65720750D01*
X159895000Y-65635035D01*
X159930714Y-65577892D01*
X159966428Y-65549321D01*
X160037857Y-65520750D01*
X160216428Y-65520750D01*
X160287857Y-65549321D01*
X160323571Y-65577892D01*
X160359285Y-65635035D01*
X160359285Y-65806464D01*
X160323571Y-65863607D01*
X160287857Y-65892178D01*
X159609285Y-65349321D02*
X160359285Y-65149321D01*
X159609285Y-64949321D01*
X159609285Y-64806464D02*
X159609285Y-64435035D01*
X159895000Y-64635035D01*
X159895000Y-64549321D01*
X159930714Y-64492178D01*
X159966428Y-64463607D01*
X160037857Y-64435035D01*
X160216428Y-64435035D01*
X160287857Y-64463607D01*
X160323571Y-64492178D01*
X160359285Y-64549321D01*
X160359285Y-64720750D01*
X160323571Y-64777892D01*
X160287857Y-64806464D01*
X149699285Y-66320750D02*
X150306428Y-66320750D01*
X150377857Y-66349321D01*
X150413571Y-66377892D01*
X150449285Y-66435035D01*
X150449285Y-66520750D01*
X150413571Y-66577892D01*
X150163571Y-66320750D02*
X150199285Y-66377892D01*
X150199285Y-66492178D01*
X150163571Y-66549321D01*
X150127857Y-66577892D01*
X150056428Y-66606464D01*
X149842142Y-66606464D01*
X149770714Y-66577892D01*
X149735000Y-66549321D01*
X149699285Y-66492178D01*
X149699285Y-66377892D01*
X149735000Y-66320750D01*
X149699285Y-65777892D02*
X150199285Y-65777892D01*
X149413571Y-65920750D02*
X149949285Y-66063607D01*
X149949285Y-65692178D01*
X150163571Y-64292178D02*
X150199285Y-64349321D01*
X150199285Y-64463607D01*
X150163571Y-64520750D01*
X150127857Y-64549321D01*
X150056428Y-64577892D01*
X149842142Y-64577892D01*
X149770714Y-64549321D01*
X149735000Y-64520750D01*
X149699285Y-64463607D01*
X149699285Y-64349321D01*
X149735000Y-64292178D01*
X150163571Y-64063607D02*
X150199285Y-64006464D01*
X150199285Y-63892178D01*
X150163571Y-63835035D01*
X150092142Y-63806464D01*
X150056428Y-63806464D01*
X149985000Y-63835035D01*
X149949285Y-63892178D01*
X149949285Y-63977892D01*
X149913571Y-64035035D01*
X149842142Y-64063607D01*
X149806428Y-64063607D01*
X149735000Y-64035035D01*
X149699285Y-63977892D01*
X149699285Y-63892178D01*
X149735000Y-63835035D01*
X149449285Y-63435035D02*
X149449285Y-63377892D01*
X149485000Y-63320750D01*
X149520714Y-63292178D01*
X149592142Y-63263607D01*
X149735000Y-63235035D01*
X149913571Y-63235035D01*
X150056428Y-63263607D01*
X150127857Y-63292178D01*
X150163571Y-63320750D01*
X150199285Y-63377892D01*
X150199285Y-63435035D01*
X150163571Y-63492178D01*
X150127857Y-63520750D01*
X150056428Y-63549321D01*
X149913571Y-63577892D01*
X149735000Y-63577892D01*
X149592142Y-63549321D01*
X149520714Y-63520750D01*
X149485000Y-63492178D01*
X149449285Y-63435035D01*
X147159285Y-66320750D02*
X147766428Y-66320750D01*
X147837857Y-66349321D01*
X147873571Y-66377892D01*
X147909285Y-66435035D01*
X147909285Y-66520750D01*
X147873571Y-66577892D01*
X147623571Y-66320750D02*
X147659285Y-66377892D01*
X147659285Y-66492178D01*
X147623571Y-66549321D01*
X147587857Y-66577892D01*
X147516428Y-66606464D01*
X147302142Y-66606464D01*
X147230714Y-66577892D01*
X147195000Y-66549321D01*
X147159285Y-66492178D01*
X147159285Y-66377892D01*
X147195000Y-66320750D01*
X147659285Y-65720750D02*
X147659285Y-66063607D01*
X147659285Y-65892178D02*
X146909285Y-65892178D01*
X147016428Y-65949321D01*
X147087857Y-66006464D01*
X147123571Y-66063607D01*
X146909285Y-65520750D02*
X146909285Y-65149321D01*
X147195000Y-65349321D01*
X147195000Y-65263607D01*
X147230714Y-65206464D01*
X147266428Y-65177892D01*
X147337857Y-65149321D01*
X147516428Y-65149321D01*
X147587857Y-65177892D01*
X147623571Y-65206464D01*
X147659285Y-65263607D01*
X147659285Y-65435035D01*
X147623571Y-65492178D01*
X147587857Y-65520750D01*
X147659285Y-64435035D02*
X147159285Y-64435035D01*
X147230714Y-64435035D02*
X147195000Y-64406464D01*
X147159285Y-64349321D01*
X147159285Y-64263607D01*
X147195000Y-64206464D01*
X147266428Y-64177892D01*
X147659285Y-64177892D01*
X147266428Y-64177892D02*
X147195000Y-64149321D01*
X147159285Y-64092178D01*
X147159285Y-64006464D01*
X147195000Y-63949321D01*
X147266428Y-63920750D01*
X147659285Y-63920750D01*
X147659285Y-63549321D02*
X147623571Y-63606464D01*
X147587857Y-63635035D01*
X147516428Y-63663607D01*
X147302142Y-63663607D01*
X147230714Y-63635035D01*
X147195000Y-63606464D01*
X147159285Y-63549321D01*
X147159285Y-63463607D01*
X147195000Y-63406464D01*
X147230714Y-63377892D01*
X147302142Y-63349321D01*
X147516428Y-63349321D01*
X147587857Y-63377892D01*
X147623571Y-63406464D01*
X147659285Y-63463607D01*
X147659285Y-63549321D01*
X147623571Y-63120750D02*
X147659285Y-63063607D01*
X147659285Y-62949321D01*
X147623571Y-62892178D01*
X147552142Y-62863607D01*
X147516428Y-62863607D01*
X147445000Y-62892178D01*
X147409285Y-62949321D01*
X147409285Y-63035035D01*
X147373571Y-63092178D01*
X147302142Y-63120750D01*
X147266428Y-63120750D01*
X147195000Y-63092178D01*
X147159285Y-63035035D01*
X147159285Y-62949321D01*
X147195000Y-62892178D01*
X147659285Y-62606464D02*
X147159285Y-62606464D01*
X146909285Y-62606464D02*
X146945000Y-62635035D01*
X146980714Y-62606464D01*
X146945000Y-62577892D01*
X146909285Y-62606464D01*
X146980714Y-62606464D01*
X145083571Y-66606464D02*
X145119285Y-66549321D01*
X145119285Y-66435035D01*
X145083571Y-66377892D01*
X145012142Y-66349321D01*
X144976428Y-66349321D01*
X144905000Y-66377892D01*
X144869285Y-66435035D01*
X144869285Y-66520750D01*
X144833571Y-66577892D01*
X144762142Y-66606464D01*
X144726428Y-66606464D01*
X144655000Y-66577892D01*
X144619285Y-66520750D01*
X144619285Y-66435035D01*
X144655000Y-66377892D01*
X145083571Y-65835035D02*
X145119285Y-65892178D01*
X145119285Y-66006464D01*
X145083571Y-66063607D01*
X145047857Y-66092178D01*
X144976428Y-66120750D01*
X144762142Y-66120750D01*
X144690714Y-66092178D01*
X144655000Y-66063607D01*
X144619285Y-66006464D01*
X144619285Y-65892178D01*
X144655000Y-65835035D01*
X145119285Y-65492178D02*
X145083571Y-65549321D01*
X145012142Y-65577892D01*
X144369285Y-65577892D01*
X144369285Y-65149321D02*
X144369285Y-65092178D01*
X144405000Y-65035035D01*
X144440714Y-65006464D01*
X144512142Y-64977892D01*
X144655000Y-64949321D01*
X144833571Y-64949321D01*
X144976428Y-64977892D01*
X145047857Y-65006464D01*
X145083571Y-65035035D01*
X145119285Y-65092178D01*
X145119285Y-65149321D01*
X145083571Y-65206464D01*
X145047857Y-65235035D01*
X144976428Y-65263607D01*
X144833571Y-65292178D01*
X144655000Y-65292178D01*
X144512142Y-65263607D01*
X144440714Y-65235035D01*
X144405000Y-65206464D01*
X144369285Y-65149321D01*
X145119285Y-64235035D02*
X144619285Y-64235035D01*
X144690714Y-64235035D02*
X144655000Y-64206464D01*
X144619285Y-64149321D01*
X144619285Y-64063607D01*
X144655000Y-64006464D01*
X144726428Y-63977892D01*
X145119285Y-63977892D01*
X144726428Y-63977892D02*
X144655000Y-63949321D01*
X144619285Y-63892178D01*
X144619285Y-63806464D01*
X144655000Y-63749321D01*
X144726428Y-63720750D01*
X145119285Y-63720750D01*
X145119285Y-63435035D02*
X144619285Y-63435035D01*
X144369285Y-63435035D02*
X144405000Y-63463607D01*
X144440714Y-63435035D01*
X144405000Y-63406464D01*
X144369285Y-63435035D01*
X144440714Y-63435035D01*
X145083571Y-63177892D02*
X145119285Y-63120750D01*
X145119285Y-63006464D01*
X145083571Y-62949321D01*
X145012142Y-62920750D01*
X144976428Y-62920750D01*
X144905000Y-62949321D01*
X144869285Y-63006464D01*
X144869285Y-63092178D01*
X144833571Y-63149321D01*
X144762142Y-63177892D01*
X144726428Y-63177892D01*
X144655000Y-63149321D01*
X144619285Y-63092178D01*
X144619285Y-63006464D01*
X144655000Y-62949321D01*
X145119285Y-62577892D02*
X145083571Y-62635035D01*
X145047857Y-62663607D01*
X144976428Y-62692178D01*
X144762142Y-62692178D01*
X144690714Y-62663607D01*
X144655000Y-62635035D01*
X144619285Y-62577892D01*
X144619285Y-62492178D01*
X144655000Y-62435035D01*
X144690714Y-62406464D01*
X144762142Y-62377892D01*
X144976428Y-62377892D01*
X145047857Y-62406464D01*
X145083571Y-62435035D01*
X145119285Y-62492178D01*
X145119285Y-62577892D01*
X139539285Y-66320750D02*
X140146428Y-66320750D01*
X140217857Y-66349321D01*
X140253571Y-66377892D01*
X140289285Y-66435035D01*
X140289285Y-66520750D01*
X140253571Y-66577892D01*
X140003571Y-66320750D02*
X140039285Y-66377892D01*
X140039285Y-66492178D01*
X140003571Y-66549321D01*
X139967857Y-66577892D01*
X139896428Y-66606464D01*
X139682142Y-66606464D01*
X139610714Y-66577892D01*
X139575000Y-66549321D01*
X139539285Y-66492178D01*
X139539285Y-66377892D01*
X139575000Y-66320750D01*
X139539285Y-66035035D02*
X140039285Y-66035035D01*
X139610714Y-66035035D02*
X139575000Y-66006464D01*
X139539285Y-65949321D01*
X139539285Y-65863607D01*
X139575000Y-65806464D01*
X139646428Y-65777892D01*
X140039285Y-65777892D01*
X140039285Y-65235035D02*
X139289285Y-65235035D01*
X140003571Y-65235035D02*
X140039285Y-65292178D01*
X140039285Y-65406464D01*
X140003571Y-65463607D01*
X139967857Y-65492178D01*
X139896428Y-65520750D01*
X139682142Y-65520750D01*
X139610714Y-65492178D01*
X139575000Y-65463607D01*
X139539285Y-65406464D01*
X139539285Y-65292178D01*
X139575000Y-65235035D01*
X142543571Y-66606464D02*
X142579285Y-66549321D01*
X142579285Y-66435035D01*
X142543571Y-66377892D01*
X142472142Y-66349321D01*
X142436428Y-66349321D01*
X142365000Y-66377892D01*
X142329285Y-66435035D01*
X142329285Y-66520750D01*
X142293571Y-66577892D01*
X142222142Y-66606464D01*
X142186428Y-66606464D01*
X142115000Y-66577892D01*
X142079285Y-66520750D01*
X142079285Y-66435035D01*
X142115000Y-66377892D01*
X142579285Y-65835035D02*
X141829285Y-65835035D01*
X142543571Y-65835035D02*
X142579285Y-65892178D01*
X142579285Y-66006464D01*
X142543571Y-66063607D01*
X142507857Y-66092178D01*
X142436428Y-66120750D01*
X142222142Y-66120750D01*
X142150714Y-66092178D01*
X142115000Y-66063607D01*
X142079285Y-66006464D01*
X142079285Y-65892178D01*
X142115000Y-65835035D01*
X142579285Y-65292178D02*
X142186428Y-65292178D01*
X142115000Y-65320750D01*
X142079285Y-65377892D01*
X142079285Y-65492178D01*
X142115000Y-65549321D01*
X142543571Y-65292178D02*
X142579285Y-65349321D01*
X142579285Y-65492178D01*
X142543571Y-65549321D01*
X142472142Y-65577892D01*
X142400714Y-65577892D01*
X142329285Y-65549321D01*
X142293571Y-65492178D01*
X142293571Y-65349321D01*
X142257857Y-65292178D01*
X141829285Y-64892178D02*
X141829285Y-64835035D01*
X141865000Y-64777892D01*
X141900714Y-64749321D01*
X141972142Y-64720750D01*
X142115000Y-64692178D01*
X142293571Y-64692178D01*
X142436428Y-64720750D01*
X142507857Y-64749321D01*
X142543571Y-64777892D01*
X142579285Y-64835035D01*
X142579285Y-64892178D01*
X142543571Y-64949321D01*
X142507857Y-64977892D01*
X142436428Y-65006464D01*
X142293571Y-65035035D01*
X142115000Y-65035035D01*
X141972142Y-65006464D01*
X141900714Y-64977892D01*
X141865000Y-64949321D01*
X141829285Y-64892178D01*
X142543571Y-64006464D02*
X142579285Y-63949321D01*
X142579285Y-63835035D01*
X142543571Y-63777892D01*
X142472142Y-63749321D01*
X142436428Y-63749321D01*
X142365000Y-63777892D01*
X142329285Y-63835035D01*
X142329285Y-63920750D01*
X142293571Y-63977892D01*
X142222142Y-64006464D01*
X142186428Y-64006464D01*
X142115000Y-63977892D01*
X142079285Y-63920750D01*
X142079285Y-63835035D01*
X142115000Y-63777892D01*
X142543571Y-63235035D02*
X142579285Y-63292178D01*
X142579285Y-63406464D01*
X142543571Y-63463607D01*
X142507857Y-63492178D01*
X142436428Y-63520750D01*
X142222142Y-63520750D01*
X142150714Y-63492178D01*
X142115000Y-63463607D01*
X142079285Y-63406464D01*
X142079285Y-63292178D01*
X142115000Y-63235035D01*
X142579285Y-62977892D02*
X141829285Y-62977892D01*
X142293571Y-62920750D02*
X142579285Y-62749321D01*
X142079285Y-62749321D02*
X142365000Y-62977892D01*
X136959571Y-66577892D02*
X136959571Y-66120750D01*
X137245285Y-66349321D02*
X136673857Y-66349321D01*
X136495285Y-65892178D02*
X136495285Y-65520750D01*
X136781000Y-65720750D01*
X136781000Y-65635035D01*
X136816714Y-65577892D01*
X136852428Y-65549321D01*
X136923857Y-65520750D01*
X137102428Y-65520750D01*
X137173857Y-65549321D01*
X137209571Y-65577892D01*
X137245285Y-65635035D01*
X137245285Y-65806464D01*
X137209571Y-65863607D01*
X137173857Y-65892178D01*
X136495285Y-65349321D02*
X137245285Y-65149321D01*
X136495285Y-64949321D01*
X136495285Y-64806464D02*
X136495285Y-64435035D01*
X136781000Y-64635035D01*
X136781000Y-64549321D01*
X136816714Y-64492178D01*
X136852428Y-64463607D01*
X136923857Y-64435035D01*
X137102428Y-64435035D01*
X137173857Y-64463607D01*
X137209571Y-64492178D01*
X137245285Y-64549321D01*
X137245285Y-64720750D01*
X137209571Y-64777892D01*
X137173857Y-64806464D01*
X126839285Y-66066750D02*
X127446428Y-66066750D01*
X127517857Y-66095321D01*
X127553571Y-66123892D01*
X127589285Y-66181035D01*
X127589285Y-66266750D01*
X127553571Y-66323892D01*
X127303571Y-66066750D02*
X127339285Y-66123892D01*
X127339285Y-66238178D01*
X127303571Y-66295321D01*
X127267857Y-66323892D01*
X127196428Y-66352464D01*
X126982142Y-66352464D01*
X126910714Y-66323892D01*
X126875000Y-66295321D01*
X126839285Y-66238178D01*
X126839285Y-66123892D01*
X126875000Y-66066750D01*
X127339285Y-65466750D02*
X127339285Y-65809607D01*
X127339285Y-65638178D02*
X126589285Y-65638178D01*
X126696428Y-65695321D01*
X126767857Y-65752464D01*
X126803571Y-65809607D01*
X126910714Y-65123892D02*
X126875000Y-65181035D01*
X126839285Y-65209607D01*
X126767857Y-65238178D01*
X126732142Y-65238178D01*
X126660714Y-65209607D01*
X126625000Y-65181035D01*
X126589285Y-65123892D01*
X126589285Y-65009607D01*
X126625000Y-64952464D01*
X126660714Y-64923892D01*
X126732142Y-64895321D01*
X126767857Y-64895321D01*
X126839285Y-64923892D01*
X126875000Y-64952464D01*
X126910714Y-65009607D01*
X126910714Y-65123892D01*
X126946428Y-65181035D01*
X126982142Y-65209607D01*
X127053571Y-65238178D01*
X127196428Y-65238178D01*
X127267857Y-65209607D01*
X127303571Y-65181035D01*
X127339285Y-65123892D01*
X127339285Y-65009607D01*
X127303571Y-64952464D01*
X127267857Y-64923892D01*
X127196428Y-64895321D01*
X127053571Y-64895321D01*
X126982142Y-64923892D01*
X126946428Y-64952464D01*
X126910714Y-65009607D01*
X126839285Y-63923892D02*
X127446428Y-63923892D01*
X127517857Y-63952464D01*
X127553571Y-63981035D01*
X127589285Y-64038178D01*
X127589285Y-64123892D01*
X127553571Y-64181035D01*
X127303571Y-63923892D02*
X127339285Y-63981035D01*
X127339285Y-64095321D01*
X127303571Y-64152464D01*
X127267857Y-64181035D01*
X127196428Y-64209607D01*
X126982142Y-64209607D01*
X126910714Y-64181035D01*
X126875000Y-64152464D01*
X126839285Y-64095321D01*
X126839285Y-63981035D01*
X126875000Y-63923892D01*
X127339285Y-63323892D02*
X127339285Y-63666750D01*
X127339285Y-63495321D02*
X126589285Y-63495321D01*
X126696428Y-63552464D01*
X126767857Y-63609607D01*
X126803571Y-63666750D01*
X126589285Y-63123892D02*
X126589285Y-62723892D01*
X127339285Y-62981035D01*
X124299285Y-66320750D02*
X124906428Y-66320750D01*
X124977857Y-66349321D01*
X125013571Y-66377892D01*
X125049285Y-66435035D01*
X125049285Y-66520750D01*
X125013571Y-66577892D01*
X124763571Y-66320750D02*
X124799285Y-66377892D01*
X124799285Y-66492178D01*
X124763571Y-66549321D01*
X124727857Y-66577892D01*
X124656428Y-66606464D01*
X124442142Y-66606464D01*
X124370714Y-66577892D01*
X124335000Y-66549321D01*
X124299285Y-66492178D01*
X124299285Y-66377892D01*
X124335000Y-66320750D01*
X124120714Y-66063607D02*
X124085000Y-66035035D01*
X124049285Y-65977892D01*
X124049285Y-65835035D01*
X124085000Y-65777892D01*
X124120714Y-65749321D01*
X124192142Y-65720750D01*
X124263571Y-65720750D01*
X124370714Y-65749321D01*
X124799285Y-66092178D01*
X124799285Y-65720750D01*
X124049285Y-65520750D02*
X124049285Y-65149321D01*
X124335000Y-65349321D01*
X124335000Y-65263607D01*
X124370714Y-65206464D01*
X124406428Y-65177892D01*
X124477857Y-65149321D01*
X124656428Y-65149321D01*
X124727857Y-65177892D01*
X124763571Y-65206464D01*
X124799285Y-65263607D01*
X124799285Y-65435035D01*
X124763571Y-65492178D01*
X124727857Y-65520750D01*
X124299285Y-64177892D02*
X124906428Y-64177892D01*
X124977857Y-64206464D01*
X125013571Y-64235035D01*
X125049285Y-64292178D01*
X125049285Y-64377892D01*
X125013571Y-64435035D01*
X124763571Y-64177892D02*
X124799285Y-64235035D01*
X124799285Y-64349321D01*
X124763571Y-64406464D01*
X124727857Y-64435035D01*
X124656428Y-64463607D01*
X124442142Y-64463607D01*
X124370714Y-64435035D01*
X124335000Y-64406464D01*
X124299285Y-64349321D01*
X124299285Y-64235035D01*
X124335000Y-64177892D01*
X124120714Y-63920750D02*
X124085000Y-63892178D01*
X124049285Y-63835035D01*
X124049285Y-63692178D01*
X124085000Y-63635035D01*
X124120714Y-63606464D01*
X124192142Y-63577892D01*
X124263571Y-63577892D01*
X124370714Y-63606464D01*
X124799285Y-63949321D01*
X124799285Y-63577892D01*
X124049285Y-63377892D02*
X124049285Y-62977892D01*
X124799285Y-63235035D01*
X121759285Y-66320750D02*
X122366428Y-66320750D01*
X122437857Y-66349321D01*
X122473571Y-66377892D01*
X122509285Y-66435035D01*
X122509285Y-66520750D01*
X122473571Y-66577892D01*
X122223571Y-66320750D02*
X122259285Y-66377892D01*
X122259285Y-66492178D01*
X122223571Y-66549321D01*
X122187857Y-66577892D01*
X122116428Y-66606464D01*
X121902142Y-66606464D01*
X121830714Y-66577892D01*
X121795000Y-66549321D01*
X121759285Y-66492178D01*
X121759285Y-66377892D01*
X121795000Y-66320750D01*
X121580714Y-66063607D02*
X121545000Y-66035035D01*
X121509285Y-65977892D01*
X121509285Y-65835035D01*
X121545000Y-65777892D01*
X121580714Y-65749321D01*
X121652142Y-65720750D01*
X121723571Y-65720750D01*
X121830714Y-65749321D01*
X122259285Y-66092178D01*
X122259285Y-65720750D01*
X121759285Y-65206464D02*
X122259285Y-65206464D01*
X121473571Y-65349321D02*
X122009285Y-65492178D01*
X122009285Y-65120750D01*
X121759285Y-64177892D02*
X122366428Y-64177892D01*
X122437857Y-64206464D01*
X122473571Y-64235035D01*
X122509285Y-64292178D01*
X122509285Y-64377892D01*
X122473571Y-64435035D01*
X122223571Y-64177892D02*
X122259285Y-64235035D01*
X122259285Y-64349321D01*
X122223571Y-64406464D01*
X122187857Y-64435035D01*
X122116428Y-64463607D01*
X121902142Y-64463607D01*
X121830714Y-64435035D01*
X121795000Y-64406464D01*
X121759285Y-64349321D01*
X121759285Y-64235035D01*
X121795000Y-64177892D01*
X121580714Y-63920750D02*
X121545000Y-63892178D01*
X121509285Y-63835035D01*
X121509285Y-63692178D01*
X121545000Y-63635035D01*
X121580714Y-63606464D01*
X121652142Y-63577892D01*
X121723571Y-63577892D01*
X121830714Y-63606464D01*
X122259285Y-63949321D01*
X122259285Y-63577892D01*
X121580714Y-63349321D02*
X121545000Y-63320750D01*
X121509285Y-63263607D01*
X121509285Y-63120750D01*
X121545000Y-63063607D01*
X121580714Y-63035035D01*
X121652142Y-63006464D01*
X121723571Y-63006464D01*
X121830714Y-63035035D01*
X122259285Y-63377892D01*
X122259285Y-63006464D01*
X119219285Y-66320750D02*
X119826428Y-66320750D01*
X119897857Y-66349321D01*
X119933571Y-66377892D01*
X119969285Y-66435035D01*
X119969285Y-66520750D01*
X119933571Y-66577892D01*
X119683571Y-66320750D02*
X119719285Y-66377892D01*
X119719285Y-66492178D01*
X119683571Y-66549321D01*
X119647857Y-66577892D01*
X119576428Y-66606464D01*
X119362142Y-66606464D01*
X119290714Y-66577892D01*
X119255000Y-66549321D01*
X119219285Y-66492178D01*
X119219285Y-66377892D01*
X119255000Y-66320750D01*
X119040714Y-66063607D02*
X119005000Y-66035035D01*
X118969285Y-65977892D01*
X118969285Y-65835035D01*
X119005000Y-65777892D01*
X119040714Y-65749321D01*
X119112142Y-65720750D01*
X119183571Y-65720750D01*
X119290714Y-65749321D01*
X119719285Y-66092178D01*
X119719285Y-65720750D01*
X118969285Y-65177892D02*
X118969285Y-65463607D01*
X119326428Y-65492178D01*
X119290714Y-65463607D01*
X119255000Y-65406464D01*
X119255000Y-65263607D01*
X119290714Y-65206464D01*
X119326428Y-65177892D01*
X119397857Y-65149321D01*
X119576428Y-65149321D01*
X119647857Y-65177892D01*
X119683571Y-65206464D01*
X119719285Y-65263607D01*
X119719285Y-65406464D01*
X119683571Y-65463607D01*
X119647857Y-65492178D01*
X119219285Y-64177892D02*
X119826428Y-64177892D01*
X119897857Y-64206464D01*
X119933571Y-64235035D01*
X119969285Y-64292178D01*
X119969285Y-64377892D01*
X119933571Y-64435035D01*
X119683571Y-64177892D02*
X119719285Y-64235035D01*
X119719285Y-64349321D01*
X119683571Y-64406464D01*
X119647857Y-64435035D01*
X119576428Y-64463607D01*
X119362142Y-64463607D01*
X119290714Y-64435035D01*
X119255000Y-64406464D01*
X119219285Y-64349321D01*
X119219285Y-64235035D01*
X119255000Y-64177892D01*
X118969285Y-63606464D02*
X118969285Y-63892178D01*
X119326428Y-63920750D01*
X119290714Y-63892178D01*
X119255000Y-63835035D01*
X119255000Y-63692178D01*
X119290714Y-63635035D01*
X119326428Y-63606464D01*
X119397857Y-63577892D01*
X119576428Y-63577892D01*
X119647857Y-63606464D01*
X119683571Y-63635035D01*
X119719285Y-63692178D01*
X119719285Y-63835035D01*
X119683571Y-63892178D01*
X119647857Y-63920750D01*
X116679285Y-66320750D02*
X117286428Y-66320750D01*
X117357857Y-66349321D01*
X117393571Y-66377892D01*
X117429285Y-66435035D01*
X117429285Y-66520750D01*
X117393571Y-66577892D01*
X117143571Y-66320750D02*
X117179285Y-66377892D01*
X117179285Y-66492178D01*
X117143571Y-66549321D01*
X117107857Y-66577892D01*
X117036428Y-66606464D01*
X116822142Y-66606464D01*
X116750714Y-66577892D01*
X116715000Y-66549321D01*
X116679285Y-66492178D01*
X116679285Y-66377892D01*
X116715000Y-66320750D01*
X117179285Y-65720750D02*
X117179285Y-66063607D01*
X117179285Y-65892178D02*
X116429285Y-65892178D01*
X116536428Y-65949321D01*
X116607857Y-66006464D01*
X116643571Y-66063607D01*
X116500714Y-65492178D02*
X116465000Y-65463607D01*
X116429285Y-65406464D01*
X116429285Y-65263607D01*
X116465000Y-65206464D01*
X116500714Y-65177892D01*
X116572142Y-65149321D01*
X116643571Y-65149321D01*
X116750714Y-65177892D01*
X117179285Y-65520750D01*
X117179285Y-65149321D01*
X116679285Y-64177892D02*
X117286428Y-64177892D01*
X117357857Y-64206464D01*
X117393571Y-64235035D01*
X117429285Y-64292178D01*
X117429285Y-64377892D01*
X117393571Y-64435035D01*
X117143571Y-64177892D02*
X117179285Y-64235035D01*
X117179285Y-64349321D01*
X117143571Y-64406464D01*
X117107857Y-64435035D01*
X117036428Y-64463607D01*
X116822142Y-64463607D01*
X116750714Y-64435035D01*
X116715000Y-64406464D01*
X116679285Y-64349321D01*
X116679285Y-64235035D01*
X116715000Y-64177892D01*
X116429285Y-63635035D02*
X116429285Y-63749321D01*
X116465000Y-63806464D01*
X116500714Y-63835035D01*
X116607857Y-63892178D01*
X116750714Y-63920750D01*
X117036428Y-63920750D01*
X117107857Y-63892178D01*
X117143571Y-63863607D01*
X117179285Y-63806464D01*
X117179285Y-63692178D01*
X117143571Y-63635035D01*
X117107857Y-63606464D01*
X117036428Y-63577892D01*
X116857857Y-63577892D01*
X116786428Y-63606464D01*
X116750714Y-63635035D01*
X116715000Y-63692178D01*
X116715000Y-63806464D01*
X116750714Y-63863607D01*
X116786428Y-63892178D01*
X116857857Y-63920750D01*
X114139285Y-66320750D02*
X114746428Y-66320750D01*
X114817857Y-66349321D01*
X114853571Y-66377892D01*
X114889285Y-66435035D01*
X114889285Y-66520750D01*
X114853571Y-66577892D01*
X114603571Y-66320750D02*
X114639285Y-66377892D01*
X114639285Y-66492178D01*
X114603571Y-66549321D01*
X114567857Y-66577892D01*
X114496428Y-66606464D01*
X114282142Y-66606464D01*
X114210714Y-66577892D01*
X114175000Y-66549321D01*
X114139285Y-66492178D01*
X114139285Y-66377892D01*
X114175000Y-66320750D01*
X114639285Y-65720750D02*
X114639285Y-66063607D01*
X114639285Y-65892178D02*
X113889285Y-65892178D01*
X113996428Y-65949321D01*
X114067857Y-66006464D01*
X114103571Y-66063607D01*
X113889285Y-65206464D02*
X113889285Y-65320750D01*
X113925000Y-65377892D01*
X113960714Y-65406464D01*
X114067857Y-65463607D01*
X114210714Y-65492178D01*
X114496428Y-65492178D01*
X114567857Y-65463607D01*
X114603571Y-65435035D01*
X114639285Y-65377892D01*
X114639285Y-65263607D01*
X114603571Y-65206464D01*
X114567857Y-65177892D01*
X114496428Y-65149321D01*
X114317857Y-65149321D01*
X114246428Y-65177892D01*
X114210714Y-65206464D01*
X114175000Y-65263607D01*
X114175000Y-65377892D01*
X114210714Y-65435035D01*
X114246428Y-65463607D01*
X114317857Y-65492178D01*
X114139285Y-64177892D02*
X114746428Y-64177892D01*
X114817857Y-64206464D01*
X114853571Y-64235035D01*
X114889285Y-64292178D01*
X114889285Y-64377892D01*
X114853571Y-64435035D01*
X114603571Y-64177892D02*
X114639285Y-64235035D01*
X114639285Y-64349321D01*
X114603571Y-64406464D01*
X114567857Y-64435035D01*
X114496428Y-64463607D01*
X114282142Y-64463607D01*
X114210714Y-64435035D01*
X114175000Y-64406464D01*
X114139285Y-64349321D01*
X114139285Y-64235035D01*
X114175000Y-64177892D01*
X114639285Y-63577892D02*
X114639285Y-63920750D01*
X114639285Y-63749321D02*
X113889285Y-63749321D01*
X113996428Y-63806464D01*
X114067857Y-63863607D01*
X114103571Y-63920750D01*
X113889285Y-63377892D02*
X113889285Y-63006464D01*
X114175000Y-63206464D01*
X114175000Y-63120750D01*
X114210714Y-63063607D01*
X114246428Y-63035035D01*
X114317857Y-63006464D01*
X114496428Y-63006464D01*
X114567857Y-63035035D01*
X114603571Y-63063607D01*
X114639285Y-63120750D01*
X114639285Y-63292178D01*
X114603571Y-63349321D01*
X114567857Y-63377892D01*
X111599285Y-66320750D02*
X112206428Y-66320750D01*
X112277857Y-66349321D01*
X112313571Y-66377892D01*
X112349285Y-66435035D01*
X112349285Y-66520750D01*
X112313571Y-66577892D01*
X112063571Y-66320750D02*
X112099285Y-66377892D01*
X112099285Y-66492178D01*
X112063571Y-66549321D01*
X112027857Y-66577892D01*
X111956428Y-66606464D01*
X111742142Y-66606464D01*
X111670714Y-66577892D01*
X111635000Y-66549321D01*
X111599285Y-66492178D01*
X111599285Y-66377892D01*
X111635000Y-66320750D01*
X111420714Y-66063607D02*
X111385000Y-66035035D01*
X111349285Y-65977892D01*
X111349285Y-65835035D01*
X111385000Y-65777892D01*
X111420714Y-65749321D01*
X111492142Y-65720750D01*
X111563571Y-65720750D01*
X111670714Y-65749321D01*
X112099285Y-66092178D01*
X112099285Y-65720750D01*
X111349285Y-65349321D02*
X111349285Y-65292178D01*
X111385000Y-65235035D01*
X111420714Y-65206464D01*
X111492142Y-65177892D01*
X111635000Y-65149321D01*
X111813571Y-65149321D01*
X111956428Y-65177892D01*
X112027857Y-65206464D01*
X112063571Y-65235035D01*
X112099285Y-65292178D01*
X112099285Y-65349321D01*
X112063571Y-65406464D01*
X112027857Y-65435035D01*
X111956428Y-65463607D01*
X111813571Y-65492178D01*
X111635000Y-65492178D01*
X111492142Y-65463607D01*
X111420714Y-65435035D01*
X111385000Y-65406464D01*
X111349285Y-65349321D01*
X111599285Y-64177892D02*
X112206428Y-64177892D01*
X112277857Y-64206464D01*
X112313571Y-64235035D01*
X112349285Y-64292178D01*
X112349285Y-64377892D01*
X112313571Y-64435035D01*
X112063571Y-64177892D02*
X112099285Y-64235035D01*
X112099285Y-64349321D01*
X112063571Y-64406464D01*
X112027857Y-64435035D01*
X111956428Y-64463607D01*
X111742142Y-64463607D01*
X111670714Y-64435035D01*
X111635000Y-64406464D01*
X111599285Y-64349321D01*
X111599285Y-64235035D01*
X111635000Y-64177892D01*
X112099285Y-63577892D02*
X112099285Y-63920750D01*
X112099285Y-63749321D02*
X111349285Y-63749321D01*
X111456428Y-63806464D01*
X111527857Y-63863607D01*
X111563571Y-63920750D01*
X112099285Y-63292178D02*
X112099285Y-63177892D01*
X112063571Y-63120750D01*
X112027857Y-63092178D01*
X111920714Y-63035035D01*
X111777857Y-63006464D01*
X111492142Y-63006464D01*
X111420714Y-63035035D01*
X111385000Y-63063607D01*
X111349285Y-63120750D01*
X111349285Y-63235035D01*
X111385000Y-63292178D01*
X111420714Y-63320750D01*
X111492142Y-63349321D01*
X111670714Y-63349321D01*
X111742142Y-63320750D01*
X111777857Y-63292178D01*
X111813571Y-63235035D01*
X111813571Y-63120750D01*
X111777857Y-63063607D01*
X111742142Y-63035035D01*
X111670714Y-63006464D01*
D11*
X165354000Y-41910000D02*
G75*
G03*
X165354000Y-41910000I-254000J0D01*
G01*
D10*
X109059285Y-66320750D02*
X109666428Y-66320750D01*
X109737857Y-66349321D01*
X109773571Y-66377892D01*
X109809285Y-66435035D01*
X109809285Y-66520750D01*
X109773571Y-66577892D01*
X109523571Y-66320750D02*
X109559285Y-66377892D01*
X109559285Y-66492178D01*
X109523571Y-66549321D01*
X109487857Y-66577892D01*
X109416428Y-66606464D01*
X109202142Y-66606464D01*
X109130714Y-66577892D01*
X109095000Y-66549321D01*
X109059285Y-66492178D01*
X109059285Y-66377892D01*
X109095000Y-66320750D01*
X108880714Y-66063607D02*
X108845000Y-66035035D01*
X108809285Y-65977892D01*
X108809285Y-65835035D01*
X108845000Y-65777892D01*
X108880714Y-65749321D01*
X108952142Y-65720750D01*
X109023571Y-65720750D01*
X109130714Y-65749321D01*
X109559285Y-66092178D01*
X109559285Y-65720750D01*
X109559285Y-65149321D02*
X109559285Y-65492178D01*
X109559285Y-65320750D02*
X108809285Y-65320750D01*
X108916428Y-65377892D01*
X108987857Y-65435035D01*
X109023571Y-65492178D01*
X109059285Y-64177892D02*
X109666428Y-64177892D01*
X109737857Y-64206464D01*
X109773571Y-64235035D01*
X109809285Y-64292178D01*
X109809285Y-64377892D01*
X109773571Y-64435035D01*
X109523571Y-64177892D02*
X109559285Y-64235035D01*
X109559285Y-64349321D01*
X109523571Y-64406464D01*
X109487857Y-64435035D01*
X109416428Y-64463607D01*
X109202142Y-64463607D01*
X109130714Y-64435035D01*
X109095000Y-64406464D01*
X109059285Y-64349321D01*
X109059285Y-64235035D01*
X109095000Y-64177892D01*
X108880714Y-63920750D02*
X108845000Y-63892178D01*
X108809285Y-63835035D01*
X108809285Y-63692178D01*
X108845000Y-63635035D01*
X108880714Y-63606464D01*
X108952142Y-63577892D01*
X109023571Y-63577892D01*
X109130714Y-63606464D01*
X109559285Y-63949321D01*
X109559285Y-63577892D01*
X108809285Y-63063607D02*
X108809285Y-63177892D01*
X108845000Y-63235035D01*
X108880714Y-63263607D01*
X108987857Y-63320750D01*
X109130714Y-63349321D01*
X109416428Y-63349321D01*
X109487857Y-63320750D01*
X109523571Y-63292178D01*
X109559285Y-63235035D01*
X109559285Y-63120750D01*
X109523571Y-63063607D01*
X109487857Y-63035035D01*
X109416428Y-63006464D01*
X109237857Y-63006464D01*
X109166428Y-63035035D01*
X109130714Y-63063607D01*
X109095000Y-63120750D01*
X109095000Y-63235035D01*
X109130714Y-63292178D01*
X109166428Y-63320750D01*
X109237857Y-63349321D01*
D11*
X113221428Y-54382380D02*
X113221428Y-53382380D01*
X113459523Y-53382380D01*
X113602380Y-53430000D01*
X113697619Y-53525238D01*
X113745238Y-53620476D01*
X113792857Y-53810952D01*
X113792857Y-53953809D01*
X113745238Y-54144285D01*
X113697619Y-54239523D01*
X113602380Y-54334761D01*
X113459523Y-54382380D01*
X113221428Y-54382380D01*
X114602380Y-54334761D02*
X114507142Y-54382380D01*
X114316666Y-54382380D01*
X114221428Y-54334761D01*
X114173809Y-54239523D01*
X114173809Y-53858571D01*
X114221428Y-53763333D01*
X114316666Y-53715714D01*
X114507142Y-53715714D01*
X114602380Y-53763333D01*
X114650000Y-53858571D01*
X114650000Y-53953809D01*
X114173809Y-54049047D01*
X115030952Y-54334761D02*
X115126190Y-54382380D01*
X115316666Y-54382380D01*
X115411904Y-54334761D01*
X115459523Y-54239523D01*
X115459523Y-54191904D01*
X115411904Y-54096666D01*
X115316666Y-54049047D01*
X115173809Y-54049047D01*
X115078571Y-54001428D01*
X115030952Y-53906190D01*
X115030952Y-53858571D01*
X115078571Y-53763333D01*
X115173809Y-53715714D01*
X115316666Y-53715714D01*
X115411904Y-53763333D01*
X115888095Y-54382380D02*
X115888095Y-53715714D01*
X115888095Y-53382380D02*
X115840476Y-53430000D01*
X115888095Y-53477619D01*
X115935714Y-53430000D01*
X115888095Y-53382380D01*
X115888095Y-53477619D01*
X116792857Y-53715714D02*
X116792857Y-54525238D01*
X116745238Y-54620476D01*
X116697619Y-54668095D01*
X116602380Y-54715714D01*
X116459523Y-54715714D01*
X116364285Y-54668095D01*
X116792857Y-54334761D02*
X116697619Y-54382380D01*
X116507142Y-54382380D01*
X116411904Y-54334761D01*
X116364285Y-54287142D01*
X116316666Y-54191904D01*
X116316666Y-53906190D01*
X116364285Y-53810952D01*
X116411904Y-53763333D01*
X116507142Y-53715714D01*
X116697619Y-53715714D01*
X116792857Y-53763333D01*
X117269047Y-53715714D02*
X117269047Y-54382380D01*
X117269047Y-53810952D02*
X117316666Y-53763333D01*
X117411904Y-53715714D01*
X117554761Y-53715714D01*
X117650000Y-53763333D01*
X117697619Y-53858571D01*
X117697619Y-54382380D01*
X118554761Y-54334761D02*
X118459523Y-54382380D01*
X118269047Y-54382380D01*
X118173809Y-54334761D01*
X118126190Y-54239523D01*
X118126190Y-53858571D01*
X118173809Y-53763333D01*
X118269047Y-53715714D01*
X118459523Y-53715714D01*
X118554761Y-53763333D01*
X118602380Y-53858571D01*
X118602380Y-53953809D01*
X118126190Y-54049047D01*
X119459523Y-54382380D02*
X119459523Y-53382380D01*
X119459523Y-54334761D02*
X119364285Y-54382380D01*
X119173809Y-54382380D01*
X119078571Y-54334761D01*
X119030952Y-54287142D01*
X118983333Y-54191904D01*
X118983333Y-53906190D01*
X119030952Y-53810952D01*
X119078571Y-53763333D01*
X119173809Y-53715714D01*
X119364285Y-53715714D01*
X119459523Y-53763333D01*
X120697619Y-54382380D02*
X120697619Y-53382380D01*
X120697619Y-53763333D02*
X120792857Y-53715714D01*
X120983333Y-53715714D01*
X121078571Y-53763333D01*
X121126190Y-53810952D01*
X121173809Y-53906190D01*
X121173809Y-54191904D01*
X121126190Y-54287142D01*
X121078571Y-54334761D01*
X120983333Y-54382380D01*
X120792857Y-54382380D01*
X120697619Y-54334761D01*
X121507142Y-53715714D02*
X121745238Y-54382380D01*
X121983333Y-53715714D02*
X121745238Y-54382380D01*
X121650000Y-54620476D01*
X121602380Y-54668095D01*
X121507142Y-54715714D01*
X122364285Y-54287142D02*
X122411904Y-54334761D01*
X122364285Y-54382380D01*
X122316666Y-54334761D01*
X122364285Y-54287142D01*
X122364285Y-54382380D01*
X122364285Y-53763333D02*
X122411904Y-53810952D01*
X122364285Y-53858571D01*
X122316666Y-53810952D01*
X122364285Y-53763333D01*
X122364285Y-53858571D01*
X123554761Y-54334761D02*
X123697619Y-54382380D01*
X123935714Y-54382380D01*
X124030952Y-54334761D01*
X124078571Y-54287142D01*
X124126190Y-54191904D01*
X124126190Y-54096666D01*
X124078571Y-54001428D01*
X124030952Y-53953809D01*
X123935714Y-53906190D01*
X123745238Y-53858571D01*
X123650000Y-53810952D01*
X123602380Y-53763333D01*
X123554761Y-53668095D01*
X123554761Y-53572857D01*
X123602380Y-53477619D01*
X123650000Y-53430000D01*
X123745238Y-53382380D01*
X123983333Y-53382380D01*
X124126190Y-53430000D01*
X125030952Y-53382380D02*
X124554761Y-53382380D01*
X124507142Y-53858571D01*
X124554761Y-53810952D01*
X124650000Y-53763333D01*
X124888095Y-53763333D01*
X124983333Y-53810952D01*
X125030952Y-53858571D01*
X125078571Y-53953809D01*
X125078571Y-54191904D01*
X125030952Y-54287142D01*
X124983333Y-54334761D01*
X124888095Y-54382380D01*
X124650000Y-54382380D01*
X124554761Y-54334761D01*
X124507142Y-54287142D01*
X125554761Y-54382380D02*
X125745238Y-54382380D01*
X125840476Y-54334761D01*
X125888095Y-54287142D01*
X125983333Y-54144285D01*
X126030952Y-53953809D01*
X126030952Y-53572857D01*
X125983333Y-53477619D01*
X125935714Y-53430000D01*
X125840476Y-53382380D01*
X125650000Y-53382380D01*
X125554761Y-53430000D01*
X125507142Y-53477619D01*
X125459523Y-53572857D01*
X125459523Y-53810952D01*
X125507142Y-53906190D01*
X125554761Y-53953809D01*
X125650000Y-54001428D01*
X125840476Y-54001428D01*
X125935714Y-53953809D01*
X125983333Y-53906190D01*
X126030952Y-53810952D01*
X126459523Y-54382380D02*
X126459523Y-53382380D01*
X126792857Y-54096666D01*
X127126190Y-53382380D01*
X127126190Y-54382380D01*
X127507142Y-53382380D02*
X128173809Y-53382380D01*
X127507142Y-54382380D01*
X128173809Y-54382380D01*
X113411904Y-57602380D02*
X113411904Y-56602380D01*
X113792857Y-56602380D01*
X113888095Y-56650000D01*
X113935714Y-56697619D01*
X113983333Y-56792857D01*
X113983333Y-56935714D01*
X113935714Y-57030952D01*
X113888095Y-57078571D01*
X113792857Y-57126190D01*
X113411904Y-57126190D01*
X114411904Y-57602380D02*
X114411904Y-56935714D01*
X114411904Y-56602380D02*
X114364285Y-56650000D01*
X114411904Y-56697619D01*
X114459523Y-56650000D01*
X114411904Y-56602380D01*
X114411904Y-56697619D01*
X114888095Y-57221428D02*
X115650000Y-57221428D01*
X116554761Y-56935714D02*
X116554761Y-57602380D01*
X116316666Y-56554761D02*
X116078571Y-57269047D01*
X116697619Y-57269047D01*
X117840476Y-57602380D02*
X117840476Y-56602380D01*
X118221428Y-56602380D01*
X118316666Y-56650000D01*
X118364285Y-56697619D01*
X118411904Y-56792857D01*
X118411904Y-56935714D01*
X118364285Y-57030952D01*
X118316666Y-57078571D01*
X118221428Y-57126190D01*
X117840476Y-57126190D01*
X118840476Y-57602380D02*
X118840476Y-56935714D01*
X118840476Y-57030952D02*
X118888095Y-56983333D01*
X118983333Y-56935714D01*
X119126190Y-56935714D01*
X119221428Y-56983333D01*
X119269047Y-57078571D01*
X119269047Y-57602380D01*
X119269047Y-57078571D02*
X119316666Y-56983333D01*
X119411904Y-56935714D01*
X119554761Y-56935714D01*
X119650000Y-56983333D01*
X119697619Y-57078571D01*
X119697619Y-57602380D01*
X120316666Y-57602380D02*
X120221428Y-57554761D01*
X120173809Y-57507142D01*
X120126190Y-57411904D01*
X120126190Y-57126190D01*
X120173809Y-57030952D01*
X120221428Y-56983333D01*
X120316666Y-56935714D01*
X120459523Y-56935714D01*
X120554761Y-56983333D01*
X120602380Y-57030952D01*
X120650000Y-57126190D01*
X120650000Y-57411904D01*
X120602380Y-57507142D01*
X120554761Y-57554761D01*
X120459523Y-57602380D01*
X120316666Y-57602380D01*
X121507142Y-57602380D02*
X121507142Y-56602380D01*
X121507142Y-57554761D02*
X121411904Y-57602380D01*
X121221428Y-57602380D01*
X121126190Y-57554761D01*
X121078571Y-57507142D01*
X121030952Y-57411904D01*
X121030952Y-57126190D01*
X121078571Y-57030952D01*
X121126190Y-56983333D01*
X121221428Y-56935714D01*
X121411904Y-56935714D01*
X121507142Y-56983333D01*
X122697619Y-57316666D02*
X123173809Y-57316666D01*
X122602380Y-57602380D02*
X122935714Y-56602380D01*
X123269047Y-57602380D01*
X124030952Y-57602380D02*
X124030952Y-56602380D01*
X124030952Y-57554761D02*
X123935714Y-57602380D01*
X123745238Y-57602380D01*
X123650000Y-57554761D01*
X123602380Y-57507142D01*
X123554761Y-57411904D01*
X123554761Y-57126190D01*
X123602380Y-57030952D01*
X123650000Y-56983333D01*
X123745238Y-56935714D01*
X123935714Y-56935714D01*
X124030952Y-56983333D01*
X124935714Y-57602380D02*
X124935714Y-57078571D01*
X124888095Y-56983333D01*
X124792857Y-56935714D01*
X124602380Y-56935714D01*
X124507142Y-56983333D01*
X124935714Y-57554761D02*
X124840476Y-57602380D01*
X124602380Y-57602380D01*
X124507142Y-57554761D01*
X124459523Y-57459523D01*
X124459523Y-57364285D01*
X124507142Y-57269047D01*
X124602380Y-57221428D01*
X124840476Y-57221428D01*
X124935714Y-57173809D01*
X125411904Y-56935714D02*
X125411904Y-57935714D01*
X125411904Y-56983333D02*
X125507142Y-56935714D01*
X125697619Y-56935714D01*
X125792857Y-56983333D01*
X125840476Y-57030952D01*
X125888095Y-57126190D01*
X125888095Y-57411904D01*
X125840476Y-57507142D01*
X125792857Y-57554761D01*
X125697619Y-57602380D01*
X125507142Y-57602380D01*
X125411904Y-57554761D01*
X126173809Y-56935714D02*
X126554761Y-56935714D01*
X126316666Y-56602380D02*
X126316666Y-57459523D01*
X126364285Y-57554761D01*
X126459523Y-57602380D01*
X126554761Y-57602380D01*
X127269047Y-57554761D02*
X127173809Y-57602380D01*
X126983333Y-57602380D01*
X126888095Y-57554761D01*
X126840476Y-57459523D01*
X126840476Y-57078571D01*
X126888095Y-56983333D01*
X126983333Y-56935714D01*
X127173809Y-56935714D01*
X127269047Y-56983333D01*
X127316666Y-57078571D01*
X127316666Y-57173809D01*
X126840476Y-57269047D01*
X127745238Y-57602380D02*
X127745238Y-56935714D01*
X127745238Y-57126190D02*
X127792857Y-57030952D01*
X127840476Y-56983333D01*
X127935714Y-56935714D01*
X128030952Y-56935714D01*
X117959523Y-59212380D02*
X117959523Y-58545714D01*
X117959523Y-58736190D02*
X118007142Y-58640952D01*
X118054761Y-58593333D01*
X118150000Y-58545714D01*
X118245238Y-58545714D01*
X118959523Y-59164761D02*
X118864285Y-59212380D01*
X118673809Y-59212380D01*
X118578571Y-59164761D01*
X118530952Y-59069523D01*
X118530952Y-58688571D01*
X118578571Y-58593333D01*
X118673809Y-58545714D01*
X118864285Y-58545714D01*
X118959523Y-58593333D01*
X119007142Y-58688571D01*
X119007142Y-58783809D01*
X118530952Y-58879047D01*
X119340476Y-58545714D02*
X119578571Y-59212380D01*
X119816666Y-58545714D01*
X120197619Y-59117142D02*
X120245238Y-59164761D01*
X120197619Y-59212380D01*
X120150000Y-59164761D01*
X120197619Y-59117142D01*
X120197619Y-59212380D01*
X120197619Y-58593333D02*
X120245238Y-58640952D01*
X120197619Y-58688571D01*
X120150000Y-58640952D01*
X120197619Y-58593333D01*
X120197619Y-58688571D01*
X121959523Y-59212380D02*
X121388095Y-59212380D01*
X121673809Y-59212380D02*
X121673809Y-58212380D01*
X121578571Y-58355238D01*
X121483333Y-58450476D01*
X121388095Y-58498095D01*
X122388095Y-59117142D02*
X122435714Y-59164761D01*
X122388095Y-59212380D01*
X122340476Y-59164761D01*
X122388095Y-59117142D01*
X122388095Y-59212380D01*
X123054761Y-58212380D02*
X123150000Y-58212380D01*
X123245238Y-58260000D01*
X123292857Y-58307619D01*
X123340476Y-58402857D01*
X123388095Y-58593333D01*
X123388095Y-58831428D01*
X123340476Y-59021904D01*
X123292857Y-59117142D01*
X123245238Y-59164761D01*
X123150000Y-59212380D01*
X123054761Y-59212380D01*
X122959523Y-59164761D01*
X122911904Y-59117142D01*
X122864285Y-59021904D01*
X122816666Y-58831428D01*
X122816666Y-58593333D01*
X122864285Y-58402857D01*
X122911904Y-58307619D01*
X122959523Y-58260000D01*
X123054761Y-58212380D01*
X116792857Y-59822380D02*
X116888095Y-59822380D01*
X116983333Y-59870000D01*
X117030952Y-59917619D01*
X117078571Y-60012857D01*
X117126190Y-60203333D01*
X117126190Y-60441428D01*
X117078571Y-60631904D01*
X117030952Y-60727142D01*
X116983333Y-60774761D01*
X116888095Y-60822380D01*
X116792857Y-60822380D01*
X116697619Y-60774761D01*
X116650000Y-60727142D01*
X116602380Y-60631904D01*
X116554761Y-60441428D01*
X116554761Y-60203333D01*
X116602380Y-60012857D01*
X116650000Y-59917619D01*
X116697619Y-59870000D01*
X116792857Y-59822380D01*
X117459523Y-59822380D02*
X118078571Y-59822380D01*
X117745238Y-60203333D01*
X117888095Y-60203333D01*
X117983333Y-60250952D01*
X118030952Y-60298571D01*
X118078571Y-60393809D01*
X118078571Y-60631904D01*
X118030952Y-60727142D01*
X117983333Y-60774761D01*
X117888095Y-60822380D01*
X117602380Y-60822380D01*
X117507142Y-60774761D01*
X117459523Y-60727142D01*
X118507142Y-60727142D02*
X118554761Y-60774761D01*
X118507142Y-60822380D01*
X118459523Y-60774761D01*
X118507142Y-60727142D01*
X118507142Y-60822380D01*
X119173809Y-59822380D02*
X119269047Y-59822380D01*
X119364285Y-59870000D01*
X119411904Y-59917619D01*
X119459523Y-60012857D01*
X119507142Y-60203333D01*
X119507142Y-60441428D01*
X119459523Y-60631904D01*
X119411904Y-60727142D01*
X119364285Y-60774761D01*
X119269047Y-60822380D01*
X119173809Y-60822380D01*
X119078571Y-60774761D01*
X119030952Y-60727142D01*
X118983333Y-60631904D01*
X118935714Y-60441428D01*
X118935714Y-60203333D01*
X118983333Y-60012857D01*
X119030952Y-59917619D01*
X119078571Y-59870000D01*
X119173809Y-59822380D01*
X119840476Y-59822380D02*
X120459523Y-59822380D01*
X120126190Y-60203333D01*
X120269047Y-60203333D01*
X120364285Y-60250952D01*
X120411904Y-60298571D01*
X120459523Y-60393809D01*
X120459523Y-60631904D01*
X120411904Y-60727142D01*
X120364285Y-60774761D01*
X120269047Y-60822380D01*
X119983333Y-60822380D01*
X119888095Y-60774761D01*
X119840476Y-60727142D01*
X120888095Y-60727142D02*
X120935714Y-60774761D01*
X120888095Y-60822380D01*
X120840476Y-60774761D01*
X120888095Y-60727142D01*
X120888095Y-60822380D01*
X121316666Y-59917619D02*
X121364285Y-59870000D01*
X121459523Y-59822380D01*
X121697619Y-59822380D01*
X121792857Y-59870000D01*
X121840476Y-59917619D01*
X121888095Y-60012857D01*
X121888095Y-60108095D01*
X121840476Y-60250952D01*
X121269047Y-60822380D01*
X121888095Y-60822380D01*
X122507142Y-59822380D02*
X122602380Y-59822380D01*
X122697619Y-59870000D01*
X122745238Y-59917619D01*
X122792857Y-60012857D01*
X122840476Y-60203333D01*
X122840476Y-60441428D01*
X122792857Y-60631904D01*
X122745238Y-60727142D01*
X122697619Y-60774761D01*
X122602380Y-60822380D01*
X122507142Y-60822380D01*
X122411904Y-60774761D01*
X122364285Y-60727142D01*
X122316666Y-60631904D01*
X122269047Y-60441428D01*
X122269047Y-60203333D01*
X122316666Y-60012857D01*
X122364285Y-59917619D01*
X122411904Y-59870000D01*
X122507142Y-59822380D01*
X123221428Y-59917619D02*
X123269047Y-59870000D01*
X123364285Y-59822380D01*
X123602380Y-59822380D01*
X123697619Y-59870000D01*
X123745238Y-59917619D01*
X123792857Y-60012857D01*
X123792857Y-60108095D01*
X123745238Y-60250952D01*
X123173809Y-60822380D01*
X123792857Y-60822380D01*
X124126190Y-59822380D02*
X124745238Y-59822380D01*
X124411904Y-60203333D01*
X124554761Y-60203333D01*
X124650000Y-60250952D01*
X124697619Y-60298571D01*
X124745238Y-60393809D01*
X124745238Y-60631904D01*
X124697619Y-60727142D01*
X124650000Y-60774761D01*
X124554761Y-60822380D01*
X124269047Y-60822380D01*
X124173809Y-60774761D01*
X124126190Y-60727142D01*
X134056666Y-73682380D02*
X134056666Y-74396666D01*
X134009047Y-74539523D01*
X133913809Y-74634761D01*
X133770952Y-74682380D01*
X133675714Y-74682380D01*
X134961428Y-74015714D02*
X134961428Y-74682380D01*
X134723333Y-73634761D02*
X134485238Y-74349047D01*
X135104285Y-74349047D01*
X156916666Y-73682380D02*
X156916666Y-74396666D01*
X156869047Y-74539523D01*
X156773809Y-74634761D01*
X156630952Y-74682380D01*
X156535714Y-74682380D01*
X157869047Y-73682380D02*
X157392857Y-73682380D01*
X157345238Y-74158571D01*
X157392857Y-74110952D01*
X157488095Y-74063333D01*
X157726190Y-74063333D01*
X157821428Y-74110952D01*
X157869047Y-74158571D01*
X157916666Y-74253809D01*
X157916666Y-74491904D01*
X157869047Y-74587142D01*
X157821428Y-74634761D01*
X157726190Y-74682380D01*
X157488095Y-74682380D01*
X157392857Y-74634761D01*
X157345238Y-74587142D01*
X166798666Y-52284380D02*
X166798666Y-52998666D01*
X166751047Y-53141523D01*
X166655809Y-53236761D01*
X166512952Y-53284380D01*
X166417714Y-53284380D01*
X167798666Y-53284380D02*
X167227238Y-53284380D01*
X167512952Y-53284380D02*
X167512952Y-52284380D01*
X167417714Y-52427238D01*
X167322476Y-52522476D01*
X167227238Y-52570095D01*
X108481904Y-51252380D02*
X108481904Y-50252380D01*
X108720000Y-50252380D01*
X108862857Y-50300000D01*
X108958095Y-50395238D01*
X109005714Y-50490476D01*
X109053333Y-50680952D01*
X109053333Y-50823809D01*
X109005714Y-51014285D01*
X108958095Y-51109523D01*
X108862857Y-51204761D01*
X108720000Y-51252380D01*
X108481904Y-51252380D01*
X109434285Y-50347619D02*
X109481904Y-50300000D01*
X109577142Y-50252380D01*
X109815238Y-50252380D01*
X109910476Y-50300000D01*
X109958095Y-50347619D01*
X110005714Y-50442857D01*
X110005714Y-50538095D01*
X109958095Y-50680952D01*
X109386666Y-51252380D01*
X110005714Y-51252380D01*
X107981904Y-44537380D02*
X108600952Y-44537380D01*
X108267619Y-44918333D01*
X108410476Y-44918333D01*
X108505714Y-44965952D01*
X108553333Y-45013571D01*
X108600952Y-45108809D01*
X108600952Y-45346904D01*
X108553333Y-45442142D01*
X108505714Y-45489761D01*
X108410476Y-45537380D01*
X108124761Y-45537380D01*
X108029523Y-45489761D01*
X107981904Y-45442142D01*
X108886666Y-44537380D02*
X109220000Y-45537380D01*
X109553333Y-44537380D01*
X109791428Y-44537380D02*
X110410476Y-44537380D01*
X110077142Y-44918333D01*
X110220000Y-44918333D01*
X110315238Y-44965952D01*
X110362857Y-45013571D01*
X110410476Y-45108809D01*
X110410476Y-45346904D01*
X110362857Y-45442142D01*
X110315238Y-45489761D01*
X110220000Y-45537380D01*
X109934285Y-45537380D01*
X109839047Y-45489761D01*
X109791428Y-45442142D01*
X103576666Y-73682380D02*
X103576666Y-74396666D01*
X103529047Y-74539523D01*
X103433809Y-74634761D01*
X103290952Y-74682380D01*
X103195714Y-74682380D01*
X104481428Y-73682380D02*
X104290952Y-73682380D01*
X104195714Y-73730000D01*
X104148095Y-73777619D01*
X104052857Y-73920476D01*
X104005238Y-74110952D01*
X104005238Y-74491904D01*
X104052857Y-74587142D01*
X104100476Y-74634761D01*
X104195714Y-74682380D01*
X104386190Y-74682380D01*
X104481428Y-74634761D01*
X104529047Y-74587142D01*
X104576666Y-74491904D01*
X104576666Y-74253809D01*
X104529047Y-74158571D01*
X104481428Y-74110952D01*
X104386190Y-74063333D01*
X104195714Y-74063333D01*
X104100476Y-74110952D01*
X104052857Y-74158571D01*
X104005238Y-74253809D01*
X175180666Y-48982380D02*
X175180666Y-49696666D01*
X175133047Y-49839523D01*
X175037809Y-49934761D01*
X174894952Y-49982380D01*
X174799714Y-49982380D01*
X175609238Y-49077619D02*
X175656857Y-49030000D01*
X175752095Y-48982380D01*
X175990190Y-48982380D01*
X176085428Y-49030000D01*
X176133047Y-49077619D01*
X176180666Y-49172857D01*
X176180666Y-49268095D01*
X176133047Y-49410952D01*
X175561619Y-49982380D01*
X176180666Y-49982380D01*
X172029523Y-42965714D02*
X172029523Y-43775238D01*
X171981904Y-43870476D01*
X171934285Y-43918095D01*
X171839047Y-43965714D01*
X171696190Y-43965714D01*
X171600952Y-43918095D01*
X172029523Y-43584761D02*
X171934285Y-43632380D01*
X171743809Y-43632380D01*
X171648571Y-43584761D01*
X171600952Y-43537142D01*
X171553333Y-43441904D01*
X171553333Y-43156190D01*
X171600952Y-43060952D01*
X171648571Y-43013333D01*
X171743809Y-42965714D01*
X171934285Y-42965714D01*
X172029523Y-43013333D01*
X172505714Y-42965714D02*
X172505714Y-43632380D01*
X172505714Y-43060952D02*
X172553333Y-43013333D01*
X172648571Y-42965714D01*
X172791428Y-42965714D01*
X172886666Y-43013333D01*
X172934285Y-43108571D01*
X172934285Y-43632380D01*
X173839047Y-43632380D02*
X173839047Y-42632380D01*
X173839047Y-43584761D02*
X173743809Y-43632380D01*
X173553333Y-43632380D01*
X173458095Y-43584761D01*
X173410476Y-43537142D01*
X173362857Y-43441904D01*
X173362857Y-43156190D01*
X173410476Y-43060952D01*
X173458095Y-43013333D01*
X173553333Y-42965714D01*
X173743809Y-42965714D01*
X173839047Y-43013333D01*
X171180285Y-50871428D02*
X171942190Y-50871428D01*
X171561238Y-51252380D02*
X171561238Y-50490476D01*
X172894571Y-50252380D02*
X172418380Y-50252380D01*
X172370761Y-50728571D01*
X172418380Y-50680952D01*
X172513619Y-50633333D01*
X172751714Y-50633333D01*
X172846952Y-50680952D01*
X172894571Y-50728571D01*
X172942190Y-50823809D01*
X172942190Y-51061904D01*
X172894571Y-51157142D01*
X172846952Y-51204761D01*
X172751714Y-51252380D01*
X172513619Y-51252380D01*
X172418380Y-51204761D01*
X172370761Y-51157142D01*
X173227904Y-50252380D02*
X173561238Y-51252380D01*
X173894571Y-50252380D01*
X105306904Y-51252380D02*
X105306904Y-50252380D01*
X105545000Y-50252380D01*
X105687857Y-50300000D01*
X105783095Y-50395238D01*
X105830714Y-50490476D01*
X105878333Y-50680952D01*
X105878333Y-50823809D01*
X105830714Y-51014285D01*
X105783095Y-51109523D01*
X105687857Y-51204761D01*
X105545000Y-51252380D01*
X105306904Y-51252380D01*
X106830714Y-51252380D02*
X106259285Y-51252380D01*
X106545000Y-51252380D02*
X106545000Y-50252380D01*
X106449761Y-50395238D01*
X106354523Y-50490476D01*
X106259285Y-50538095D01*
X105854523Y-44537380D02*
X105378333Y-44537380D01*
X105330714Y-45013571D01*
X105378333Y-44965952D01*
X105473571Y-44918333D01*
X105711666Y-44918333D01*
X105806904Y-44965952D01*
X105854523Y-45013571D01*
X105902142Y-45108809D01*
X105902142Y-45346904D01*
X105854523Y-45442142D01*
X105806904Y-45489761D01*
X105711666Y-45537380D01*
X105473571Y-45537380D01*
X105378333Y-45489761D01*
X105330714Y-45442142D01*
X106187857Y-44537380D02*
X106521190Y-45537380D01*
X106854523Y-44537380D01*
X177466666Y-53002380D02*
X177466666Y-53716666D01*
X177419047Y-53859523D01*
X177323809Y-53954761D01*
X177180952Y-54002380D01*
X177085714Y-54002380D01*
X177847619Y-53002380D02*
X178466666Y-53002380D01*
X178133333Y-53383333D01*
X178276190Y-53383333D01*
X178371428Y-53430952D01*
X178419047Y-53478571D01*
X178466666Y-53573809D01*
X178466666Y-53811904D01*
X178419047Y-53907142D01*
X178371428Y-53954761D01*
X178276190Y-54002380D01*
X177990476Y-54002380D01*
X177895238Y-53954761D01*
X177847619Y-53907142D01*
X174061523Y-55665714D02*
X174061523Y-56475238D01*
X174013904Y-56570476D01*
X173966285Y-56618095D01*
X173871047Y-56665714D01*
X173728190Y-56665714D01*
X173632952Y-56618095D01*
X174061523Y-56284761D02*
X173966285Y-56332380D01*
X173775809Y-56332380D01*
X173680571Y-56284761D01*
X173632952Y-56237142D01*
X173585333Y-56141904D01*
X173585333Y-55856190D01*
X173632952Y-55760952D01*
X173680571Y-55713333D01*
X173775809Y-55665714D01*
X173966285Y-55665714D01*
X174061523Y-55713333D01*
X174537714Y-55665714D02*
X174537714Y-56332380D01*
X174537714Y-55760952D02*
X174585333Y-55713333D01*
X174680571Y-55665714D01*
X174823428Y-55665714D01*
X174918666Y-55713333D01*
X174966285Y-55808571D01*
X174966285Y-56332380D01*
X175871047Y-56332380D02*
X175871047Y-55332380D01*
X175871047Y-56284761D02*
X175775809Y-56332380D01*
X175585333Y-56332380D01*
X175490095Y-56284761D01*
X175442476Y-56237142D01*
X175394857Y-56141904D01*
X175394857Y-55856190D01*
X175442476Y-55760952D01*
X175490095Y-55713333D01*
X175585333Y-55665714D01*
X175775809Y-55665714D01*
X175871047Y-55713333D01*
X174061523Y-57872380D02*
X174632952Y-57872380D01*
X174347238Y-58872380D02*
X174347238Y-57872380D01*
X174871047Y-58872380D02*
X175394857Y-58205714D01*
X174871047Y-58205714D02*
X175394857Y-58872380D01*
X174656761Y-61412380D02*
X174323428Y-60936190D01*
X174085333Y-61412380D02*
X174085333Y-60412380D01*
X174466285Y-60412380D01*
X174561523Y-60460000D01*
X174609142Y-60507619D01*
X174656761Y-60602857D01*
X174656761Y-60745714D01*
X174609142Y-60840952D01*
X174561523Y-60888571D01*
X174466285Y-60936190D01*
X174085333Y-60936190D01*
X174990095Y-61412380D02*
X175513904Y-60745714D01*
X174990095Y-60745714D02*
X175513904Y-61412380D01*
X176966666Y-63539714D02*
X176966666Y-64206380D01*
X176538095Y-63539714D02*
X176538095Y-64063523D01*
X176585714Y-64158761D01*
X176680952Y-64206380D01*
X176823809Y-64206380D01*
X176919047Y-64158761D01*
X176966666Y-64111142D01*
X177871428Y-64206380D02*
X177871428Y-63682571D01*
X177823809Y-63587333D01*
X177728571Y-63539714D01*
X177538095Y-63539714D01*
X177442857Y-63587333D01*
X177871428Y-64158761D02*
X177776190Y-64206380D01*
X177538095Y-64206380D01*
X177442857Y-64158761D01*
X177395238Y-64063523D01*
X177395238Y-63968285D01*
X177442857Y-63873047D01*
X177538095Y-63825428D01*
X177776190Y-63825428D01*
X177871428Y-63777809D01*
X178347619Y-64206380D02*
X178347619Y-63539714D01*
X178347619Y-63730190D02*
X178395238Y-63634952D01*
X178442857Y-63587333D01*
X178538095Y-63539714D01*
X178633333Y-63539714D01*
X178823809Y-63539714D02*
X179204761Y-63539714D01*
X178966666Y-63206380D02*
X178966666Y-64063523D01*
X179014285Y-64158761D01*
X179109523Y-64206380D01*
X179204761Y-64206380D01*
D12*
X141880000Y-72580000D02*
X141880000Y-72170000D01*
X137839520Y-81210000D02*
X137839520Y-72580000D01*
X140060000Y-70070000D02*
X140060000Y-69630000D01*
X137520000Y-72580000D02*
X137520000Y-72170000D01*
X137012855Y-81210000D02*
X137012855Y-72580000D01*
X144420000Y-70070000D02*
X144420000Y-69630000D01*
X142600000Y-72580000D02*
X142600000Y-72170000D01*
X136186190Y-81210000D02*
X136186190Y-72580000D01*
X136800000Y-72580000D02*
X136800000Y-72170000D01*
X137130950Y-81210000D02*
X137130950Y-72580000D01*
X142600000Y-70070000D02*
X142600000Y-69630000D01*
X139340000Y-72580000D02*
X139340000Y-72170000D01*
X140970000Y-81210000D02*
X140970000Y-72580000D01*
X135830000Y-72580000D02*
X151190000Y-72580000D01*
X138075710Y-81210000D02*
X138075710Y-72580000D01*
X147680000Y-70070000D02*
X147680000Y-69630000D01*
X145140000Y-72580000D02*
X145140000Y-72170000D01*
X135830000Y-81210000D02*
X151190000Y-81210000D01*
X137721425Y-81210000D02*
X137721425Y-72580000D01*
X138430000Y-81210000D02*
X138430000Y-72580000D01*
X136540475Y-81210000D02*
X136540475Y-72580000D01*
X137367140Y-81210000D02*
X137367140Y-72580000D01*
X150220000Y-70070000D02*
X150220000Y-69630000D01*
X143510000Y-81210000D02*
X143510000Y-72580000D01*
X140060000Y-72580000D02*
X140060000Y-72170000D01*
X137249045Y-81210000D02*
X137249045Y-72580000D01*
X136422380Y-81210000D02*
X136422380Y-72580000D01*
X139340000Y-70070000D02*
X139340000Y-69630000D01*
X135950000Y-81210000D02*
X135950000Y-72580000D01*
X136304285Y-81210000D02*
X136304285Y-72580000D01*
X138193805Y-81210000D02*
X138193805Y-72580000D01*
X144420000Y-72580000D02*
X144420000Y-72170000D01*
X136894760Y-81210000D02*
X136894760Y-72580000D01*
X146960000Y-70070000D02*
X146960000Y-69630000D01*
X141880000Y-70070000D02*
X141880000Y-69630000D01*
X149500000Y-72580000D02*
X149500000Y-72170000D01*
X146050000Y-81210000D02*
X146050000Y-72580000D01*
X149500000Y-70070000D02*
X149500000Y-69630000D01*
X135830000Y-67470000D02*
X137160000Y-67470000D01*
X137485235Y-81210000D02*
X137485235Y-72580000D01*
X146960000Y-72580000D02*
X146960000Y-72170000D01*
X137520000Y-70070000D02*
X137520000Y-69690000D01*
X147680000Y-72580000D02*
X147680000Y-72170000D01*
X136800000Y-70070000D02*
X136800000Y-69690000D01*
X151190000Y-81210000D02*
X151190000Y-72580000D01*
X150220000Y-72580000D02*
X150220000Y-72170000D01*
X135830000Y-81210000D02*
X135830000Y-72580000D01*
X137957615Y-81210000D02*
X137957615Y-72580000D01*
X145140000Y-70070000D02*
X145140000Y-69630000D01*
X148590000Y-81210000D02*
X148590000Y-72580000D01*
X136068095Y-81210000D02*
X136068095Y-72580000D01*
X136776665Y-81210000D02*
X136776665Y-72580000D01*
X135830000Y-68580000D02*
X135830000Y-67470000D01*
X136658570Y-81210000D02*
X136658570Y-72580000D01*
X137603330Y-81210000D02*
X137603330Y-72580000D01*
X138311900Y-81210000D02*
X138311900Y-72580000D01*
X159660000Y-70070000D02*
X159660000Y-69690000D01*
X160109045Y-81210000D02*
X160109045Y-72580000D01*
X166370000Y-81210000D02*
X166370000Y-72580000D01*
X161290000Y-81210000D02*
X161290000Y-72580000D01*
X159754760Y-81210000D02*
X159754760Y-72580000D01*
X173080000Y-70070000D02*
X173080000Y-69630000D01*
X161053805Y-81210000D02*
X161053805Y-72580000D01*
X159990950Y-81210000D02*
X159990950Y-72580000D01*
X159164285Y-81210000D02*
X159164285Y-72580000D01*
X158810000Y-81210000D02*
X158810000Y-72580000D01*
X160935710Y-81210000D02*
X160935710Y-72580000D01*
X160581425Y-81210000D02*
X160581425Y-72580000D01*
X160699520Y-81210000D02*
X160699520Y-72580000D01*
X158690000Y-81210000D02*
X158690000Y-72580000D01*
X171450000Y-81210000D02*
X171450000Y-72580000D01*
X174050000Y-81210000D02*
X174050000Y-72580000D01*
X165460000Y-70070000D02*
X165460000Y-69630000D01*
X159282380Y-81210000D02*
X159282380Y-72580000D01*
X158690000Y-68580000D02*
X158690000Y-67470000D01*
X159872855Y-81210000D02*
X159872855Y-72580000D01*
X160380000Y-72580000D02*
X160380000Y-72170000D01*
X158690000Y-81210000D02*
X174050000Y-81210000D01*
X170540000Y-72580000D02*
X170540000Y-72170000D01*
X170540000Y-70070000D02*
X170540000Y-69630000D01*
X167280000Y-70070000D02*
X167280000Y-69630000D01*
X168910000Y-81210000D02*
X168910000Y-72580000D01*
X160463330Y-81210000D02*
X160463330Y-72580000D01*
X172360000Y-70070000D02*
X172360000Y-69630000D01*
X169820000Y-72580000D02*
X169820000Y-72170000D01*
X159518570Y-81210000D02*
X159518570Y-72580000D01*
X168000000Y-72580000D02*
X168000000Y-72170000D01*
X169820000Y-70070000D02*
X169820000Y-69630000D01*
X164740000Y-72580000D02*
X164740000Y-72170000D01*
X168000000Y-70070000D02*
X168000000Y-69630000D01*
X158928095Y-81210000D02*
X158928095Y-72580000D01*
X164740000Y-70070000D02*
X164740000Y-69630000D01*
X167280000Y-72580000D02*
X167280000Y-72170000D01*
X172360000Y-72580000D02*
X172360000Y-72170000D01*
X163830000Y-81210000D02*
X163830000Y-72580000D01*
X160380000Y-70070000D02*
X160380000Y-69690000D01*
X159400475Y-81210000D02*
X159400475Y-72580000D01*
X165460000Y-72580000D02*
X165460000Y-72170000D01*
X162200000Y-72580000D02*
X162200000Y-72170000D01*
X160345235Y-81210000D02*
X160345235Y-72580000D01*
X161171900Y-81210000D02*
X161171900Y-72580000D01*
X162200000Y-70070000D02*
X162200000Y-69630000D01*
X173080000Y-72580000D02*
X173080000Y-72170000D01*
X159636665Y-81210000D02*
X159636665Y-72580000D01*
X158690000Y-72580000D02*
X174050000Y-72580000D01*
X160227140Y-81210000D02*
X160227140Y-72580000D01*
X160817615Y-81210000D02*
X160817615Y-72580000D01*
X158690000Y-67470000D02*
X160020000Y-67470000D01*
X162920000Y-72580000D02*
X162920000Y-72170000D01*
X162920000Y-70070000D02*
X162920000Y-69630000D01*
X159660000Y-72580000D02*
X159660000Y-72170000D01*
X159046190Y-81210000D02*
X159046190Y-72580000D01*
X143510000Y-42418000D02*
X143510000Y-43434000D01*
X138430000Y-43434000D02*
X138430000Y-42418000D01*
X143510000Y-43434000D02*
X138430000Y-43434000D01*
X168960800Y-42418000D02*
X113030000Y-42418000D01*
X113030000Y-42418000D02*
X113030000Y-51562000D01*
X113030000Y-51562000D02*
X168960800Y-51562000D01*
X168960800Y-51562000D02*
X168960800Y-42418000D01*
X108485000Y-49525000D02*
X109955000Y-49525000D01*
X108485000Y-47065000D02*
X108485000Y-49525000D01*
X109955000Y-49525000D02*
X109955000Y-47065000D01*
X106060475Y-81210000D02*
X106060475Y-72580000D01*
X106650950Y-81210000D02*
X106650950Y-72580000D01*
X105350000Y-81210000D02*
X105350000Y-72580000D01*
X105350000Y-72580000D02*
X128330000Y-72580000D01*
X112120000Y-72580000D02*
X112120000Y-72170000D01*
X116480000Y-72580000D02*
X116480000Y-72170000D01*
X106887140Y-81210000D02*
X106887140Y-72580000D01*
X125730000Y-81210000D02*
X125730000Y-72580000D01*
X122280000Y-70070000D02*
X122280000Y-69630000D01*
X106296665Y-81210000D02*
X106296665Y-72580000D01*
X107241425Y-81210000D02*
X107241425Y-72580000D01*
X109580000Y-72580000D02*
X109580000Y-72170000D01*
X106414760Y-81210000D02*
X106414760Y-72580000D01*
X127360000Y-72580000D02*
X127360000Y-72170000D01*
X105350000Y-67470000D02*
X106680000Y-67470000D01*
X118110000Y-81210000D02*
X118110000Y-72580000D01*
X105588095Y-81210000D02*
X105588095Y-72580000D01*
X108860000Y-70070000D02*
X108860000Y-69630000D01*
X121560000Y-70070000D02*
X121560000Y-69630000D01*
X113940000Y-72580000D02*
X113940000Y-72170000D01*
X127360000Y-70070000D02*
X127360000Y-69630000D01*
X126640000Y-70070000D02*
X126640000Y-69630000D01*
X120650000Y-81210000D02*
X120650000Y-72580000D01*
X116480000Y-70070000D02*
X116480000Y-69630000D01*
X114660000Y-72580000D02*
X114660000Y-72170000D01*
X107359520Y-81210000D02*
X107359520Y-72580000D01*
X119740000Y-70070000D02*
X119740000Y-69630000D01*
X105470000Y-81210000D02*
X105470000Y-72580000D01*
X108860000Y-72580000D02*
X108860000Y-72170000D01*
X106532855Y-81210000D02*
X106532855Y-72580000D01*
X107713805Y-81210000D02*
X107713805Y-72580000D01*
X105942380Y-81210000D02*
X105942380Y-72580000D01*
X105706190Y-81210000D02*
X105706190Y-72580000D01*
X119740000Y-72580000D02*
X119740000Y-72170000D01*
X113940000Y-70070000D02*
X113940000Y-69630000D01*
X112120000Y-70070000D02*
X112120000Y-69630000D01*
X111400000Y-72580000D02*
X111400000Y-72170000D01*
X110490000Y-81210000D02*
X110490000Y-72580000D01*
X107595710Y-81210000D02*
X107595710Y-72580000D01*
X124820000Y-72580000D02*
X124820000Y-72170000D01*
X107040000Y-72580000D02*
X107040000Y-72170000D01*
X105350000Y-68580000D02*
X105350000Y-67470000D01*
X106178570Y-81210000D02*
X106178570Y-72580000D01*
X124100000Y-72580000D02*
X124100000Y-72170000D01*
X109580000Y-70070000D02*
X109580000Y-69630000D01*
X124820000Y-70070000D02*
X124820000Y-69630000D01*
X105824285Y-81210000D02*
X105824285Y-72580000D01*
X128330000Y-81210000D02*
X128330000Y-72580000D01*
X111400000Y-70070000D02*
X111400000Y-69630000D01*
X107831900Y-81210000D02*
X107831900Y-72580000D01*
X124100000Y-70070000D02*
X124100000Y-69630000D01*
X107477615Y-81210000D02*
X107477615Y-72580000D01*
X107040000Y-70070000D02*
X107040000Y-69690000D01*
X114660000Y-70070000D02*
X114660000Y-69630000D01*
X119020000Y-72580000D02*
X119020000Y-72170000D01*
X123190000Y-81210000D02*
X123190000Y-72580000D01*
X107123330Y-81210000D02*
X107123330Y-72580000D01*
X122280000Y-72580000D02*
X122280000Y-72170000D01*
X106320000Y-72580000D02*
X106320000Y-72170000D01*
X117200000Y-70070000D02*
X117200000Y-69630000D01*
X106320000Y-70070000D02*
X106320000Y-69690000D01*
X107950000Y-81210000D02*
X107950000Y-72580000D01*
X107005235Y-81210000D02*
X107005235Y-72580000D01*
X119020000Y-70070000D02*
X119020000Y-69630000D01*
X106769045Y-81210000D02*
X106769045Y-72580000D01*
X121560000Y-72580000D02*
X121560000Y-72170000D01*
X105350000Y-81210000D02*
X128330000Y-81210000D01*
X126640000Y-72580000D02*
X126640000Y-72170000D01*
X117200000Y-72580000D02*
X117200000Y-72170000D01*
X113030000Y-81210000D02*
X113030000Y-72580000D01*
X115570000Y-81210000D02*
X115570000Y-72580000D01*
X174050000Y-46990000D02*
X174050000Y-49590000D01*
X171390000Y-49590000D02*
X174050000Y-49590000D01*
X171390000Y-44390000D02*
X172720000Y-44390000D01*
X171390000Y-46990000D02*
X171390000Y-49590000D01*
X171390000Y-46990000D02*
X174050000Y-46990000D01*
X171390000Y-45720000D02*
X171390000Y-44390000D01*
X106780000Y-49525000D02*
X106780000Y-47065000D01*
X105310000Y-49525000D02*
X106780000Y-49525000D01*
X105310000Y-47065000D02*
X105310000Y-49525000D01*
X176470000Y-54550000D02*
X177800000Y-54550000D01*
X176470000Y-57150000D02*
X176470000Y-62290000D01*
X179130000Y-57150000D02*
X179130000Y-62290000D01*
X176470000Y-62290000D02*
X179130000Y-62290000D01*
X176470000Y-55880000D02*
X176470000Y-54550000D01*
X176470000Y-57150000D02*
X179130000Y-57150000D01*
%LPC*%
D13*
X137160000Y-68580000D03*
D14*
X137160000Y-71120000D03*
X139700000Y-68580000D03*
X139700000Y-71120000D03*
X142240000Y-68580000D03*
X142240000Y-71120000D03*
X144780000Y-68580000D03*
X144780000Y-71120000D03*
X147320000Y-68580000D03*
X147320000Y-71120000D03*
X149860000Y-68580000D03*
X149860000Y-71120000D03*
D13*
X160020000Y-68580000D03*
D14*
X160020000Y-71120000D03*
X162560000Y-68580000D03*
X162560000Y-71120000D03*
X165100000Y-68580000D03*
X165100000Y-71120000D03*
X167640000Y-68580000D03*
X167640000Y-71120000D03*
X170180000Y-68580000D03*
X170180000Y-71120000D03*
X172720000Y-68580000D03*
X172720000Y-71120000D03*
D13*
X165100000Y-45720000D03*
D14*
X165100000Y-48260000D03*
X162560000Y-45720000D03*
X162560000Y-48260000D03*
X160020000Y-45720000D03*
X160020000Y-48260000D03*
X157480000Y-45720000D03*
X157480000Y-48260000D03*
X154940000Y-45720000D03*
X154940000Y-48260000D03*
X152400000Y-45720000D03*
X152400000Y-48260000D03*
X149860000Y-45720000D03*
X149860000Y-48260000D03*
X147320000Y-45720000D03*
X147320000Y-48260000D03*
X144780000Y-45720000D03*
X144780000Y-48260000D03*
X142240000Y-45720000D03*
X142240000Y-48260000D03*
X139700000Y-45720000D03*
X139700000Y-48260000D03*
X137160000Y-45720000D03*
X137160000Y-48260000D03*
X134620000Y-45720000D03*
X134620000Y-48260000D03*
X132080000Y-45720000D03*
X132080000Y-48260000D03*
X129540000Y-45720000D03*
X129540000Y-48260000D03*
X127000000Y-45720000D03*
X127000000Y-48260000D03*
X124460000Y-45720000D03*
X124460000Y-48260000D03*
X121920000Y-45720000D03*
X121920000Y-48260000D03*
X119380000Y-45720000D03*
X119380000Y-48260000D03*
X116840000Y-45720000D03*
X116840000Y-48260000D03*
D15*
X109220000Y-48740000D03*
X109220000Y-46990000D03*
D13*
X106680000Y-68580000D03*
D14*
X106680000Y-71120000D03*
X109220000Y-68580000D03*
X109220000Y-71120000D03*
X111760000Y-68580000D03*
X111760000Y-71120000D03*
X114300000Y-68580000D03*
X114300000Y-71120000D03*
X116840000Y-68580000D03*
X116840000Y-71120000D03*
X119380000Y-68580000D03*
X119380000Y-71120000D03*
X121920000Y-68580000D03*
X121920000Y-71120000D03*
X124460000Y-68580000D03*
X124460000Y-71120000D03*
X127000000Y-68580000D03*
X127000000Y-71120000D03*
D13*
X172720000Y-45720000D03*
D14*
X172720000Y-48260000D03*
D16*
X101600000Y-45720000D03*
X177800000Y-45720000D03*
X177800000Y-76200000D03*
D15*
X106045000Y-48740000D03*
X106045000Y-46990000D03*
D16*
X101600000Y-76200000D03*
D13*
X177800000Y-55880000D03*
D14*
X177800000Y-58420000D03*
X177800000Y-60960000D03*
M02*
