M48
; DRILL file {KiCad 6.0.9-8da3e8f707~116~ubuntu20.04.1} date ned 05 mar 2023 21:16:24
; FORMAT={-:-/ absolute / metric / decimal}
; #@! TF.CreationDate,2023-03-05T21:16:24+01:00
; #@! TF.GenerationSoftware,Kicad,Pcbnew,6.0.9-8da3e8f707~116~ubuntu20.04.1
; #@! TF.FileFunction,Plated,1,2,PTH
FMAT,2
METRIC
; #@! TA.AperFunction,Plated,PTH,ViaDrill
T1C0.400
; #@! TA.AperFunction,Plated,PTH,ComponentDrill
T2C1.000
%
G90
G05
T1
X104.929Y-47.409
X107.289Y-49.722
X110.302Y-46.99
X133.428Y-54.557
X134.909Y-62.594
X139.065Y-42.545
X139.7Y-60.325
X141.789Y-64.602
X145.438Y-55.956
X147.003Y-54.138
X152.745Y-53.332
X157.148Y-53.814
X160.806Y-61.25
X162.845Y-62.219
T2
X106.68Y-68.58
X106.68Y-71.12
X109.22Y-68.58
X109.22Y-71.12
X111.76Y-68.58
X111.76Y-71.12
X114.3Y-68.58
X114.3Y-71.12
X116.84Y-45.72
X116.84Y-48.26
X116.84Y-68.58
X116.84Y-71.12
X119.38Y-45.72
X119.38Y-48.26
X119.38Y-68.58
X119.38Y-71.12
X121.92Y-45.72
X121.92Y-48.26
X121.92Y-68.58
X121.92Y-71.12
X124.46Y-45.72
X124.46Y-48.26
X124.46Y-68.58
X124.46Y-71.12
X127.0Y-45.72
X127.0Y-48.26
X127.0Y-68.58
X127.0Y-71.12
X129.54Y-45.72
X129.54Y-48.26
X132.08Y-45.72
X132.08Y-48.26
X134.62Y-45.72
X134.62Y-48.26
X137.16Y-45.72
X137.16Y-48.26
X137.16Y-68.58
X137.16Y-71.12
X139.7Y-45.72
X139.7Y-48.26
X139.7Y-68.58
X139.7Y-71.12
X142.24Y-45.72
X142.24Y-48.26
X142.24Y-68.58
X142.24Y-71.12
X144.78Y-45.72
X144.78Y-48.26
X144.78Y-68.58
X144.78Y-71.12
X147.32Y-45.72
X147.32Y-48.26
X147.32Y-68.58
X147.32Y-71.12
X149.86Y-45.72
X149.86Y-48.26
X149.86Y-68.58
X149.86Y-71.12
X152.4Y-45.72
X152.4Y-48.26
X154.94Y-45.72
X154.94Y-48.26
X157.48Y-45.72
X157.48Y-48.26
X160.02Y-45.72
X160.02Y-48.26
X160.02Y-68.58
X160.02Y-71.12
X162.56Y-45.72
X162.56Y-48.26
X162.56Y-68.58
X162.56Y-71.12
X165.1Y-45.72
X165.1Y-48.26
X165.1Y-68.58
X165.1Y-71.12
X167.64Y-68.58
X167.64Y-71.12
X170.18Y-68.58
X170.18Y-71.12
X172.72Y-45.72
X172.72Y-48.26
X172.72Y-68.58
X172.72Y-71.12
X177.8Y-55.88
X177.8Y-58.42
X177.8Y-60.96
T0
M30
